<svg xmlns="http://www.w3.org/2000/svg" xmlns:xlink="http://www.w3.org/1999/xlink" width="300" height="300" viewBox="0 0 300 300">
  <defs>
    <filter id="패스_12672" x="0" y="0" width="300" height="300" filterUnits="userSpaceOnUse">
      <feOffset input="SourceAlpha"/>
      <feGaussianBlur stdDeviation="25" result="blur"/>
      <feFlood flood-color="#fff" result="color"/>
      <feComposite operator="out" in="SourceGraphic" in2="blur"/>
      <feComposite operator="in" in="color"/>
      <feComposite operator="in" in2="SourceGraphic"/>
    </filter>
  </defs>
  <g data-type="innerShadowGroup">
    <g id="패스_12672-2" data-name="패스 12672" fill="#fff">
      <path d="M 285 299.5 L 15 299.5 C 11.12692260742188 299.5 7.485653877258301 297.9917297363281 4.74696159362793 295.2530517578125 C 2.008269309997559 292.5143432617188 0.5 288.8730773925781 0.5 285 L 0.5 15 C 0.5 11.12692260742188 2.008269309997559 7.485653877258301 4.74696159362793 4.74696159362793 C 7.485653877258301 2.008269309997559 11.12692260742188 0.5 15 0.5 L 285 0.5 C 288.8730773925781 0.5 292.5143432617188 2.008269309997559 295.2530517578125 4.74696159362793 C 297.9917297363281 7.485653877258301 299.5 11.12692260742188 299.5 15 L 299.5 285 C 299.5 288.8730773925781 297.9917297363281 292.5143432617188 295.2530517578125 295.2530517578125 C 292.5143432617188 297.9917297363281 288.8730773925781 299.5 285 299.5 Z" stroke="none"/>
      <path d="M 15 1 C 11.26046752929688 1 7.744781494140625 2.456268310546875 5.100494384765625 5.100494384765625 C 2.456268310546875 7.744781494140625 1 11.26046752929688 1 15 L 1 285 C 1 288.7395324707031 2.456268310546875 292.2552185058594 5.100494384765625 294.8995056152344 C 7.744781494140625 297.5437316894531 11.26046752929688 299 15 299 L 285 299 C 288.7395324707031 299 292.2552185058594 297.5437316894531 294.8995056152344 294.8995056152344 C 297.5437316894531 292.2552185058594 299 288.7395324707031 299 285 L 299 15 C 299 11.26046752929688 297.5437316894531 7.744781494140625 294.8995056152344 5.100494384765625 C 292.2552185058594 2.456268310546875 288.7395324707031 1 285 1 L 15 1 M 15 0 L 285 0 C 293.2842712402344 0 300 6.715728759765625 300 15 L 300 285 C 300 293.2842712402344 293.2842712402344 300 285 300 L 15 300 C 6.715728759765625 300 0 293.2842712402344 0 285 L 0 15 C 0 6.715728759765625 6.715728759765625 0 15 0 Z" stroke="none"/>
    </g>
    <g transform="matrix(1, 0, 0, 1, 0, 0)" filter="url(#패스_12672)">
      <g id="패스_12672-3" data-name="패스 12672" fill="#fff">
        <path d="M 285 299.5 L 15 299.5 C 11.12692260742188 299.5 7.485653877258301 297.9917297363281 4.74696159362793 295.2530517578125 C 2.008269309997559 292.5143432617188 0.5 288.8730773925781 0.5 285 L 0.5 15 C 0.5 11.12692260742188 2.008269309997559 7.485653877258301 4.74696159362793 4.74696159362793 C 7.485653877258301 2.008269309997559 11.12692260742188 0.5 15 0.5 L 285 0.5 C 288.8730773925781 0.5 292.5143432617188 2.008269309997559 295.2530517578125 4.74696159362793 C 297.9917297363281 7.485653877258301 299.5 11.12692260742188 299.5 15 L 299.5 285 C 299.5 288.8730773925781 297.9917297363281 292.5143432617188 295.2530517578125 295.2530517578125 C 292.5143432617188 297.9917297363281 288.8730773925781 299.5 285 299.5 Z" stroke="none"/>
        <path d="M 15 1 C 11.26046752929688 1 7.744781494140625 2.456268310546875 5.100494384765625 5.100494384765625 C 2.456268310546875 7.744781494140625 1 11.26046752929688 1 15 L 1 285 C 1 288.7395324707031 2.456268310546875 292.2552185058594 5.100494384765625 294.8995056152344 C 7.744781494140625 297.5437316894531 11.26046752929688 299 15 299 L 285 299 C 288.7395324707031 299 292.2552185058594 297.5437316894531 294.8995056152344 294.8995056152344 C 297.5437316894531 292.2552185058594 299 288.7395324707031 299 285 L 299 15 C 299 11.26046752929688 297.5437316894531 7.744781494140625 294.8995056152344 5.100494384765625 C 292.2552185058594 2.456268310546875 288.7395324707031 1 285 1 L 15 1 M 15 0 L 285 0 C 293.2842712402344 0 300 6.715728759765625 300 15 L 300 285 C 300 293.2842712402344 293.2842712402344 300 285 300 L 15 300 C 6.715728759765625 300 0 293.2842712402344 0 285 L 0 15 C 0 6.715728759765625 6.715728759765625 0 15 0 Z" stroke="none"/>
      </g>
    </g>
    <g id="패스_12672-4" data-name="패스 12672" fill="none">
      <path d="M 285 299.5 L 15 299.5 C 11.12692260742188 299.5 7.485653877258301 297.9917297363281 4.74696159362793 295.2530517578125 C 2.008269309997559 292.5143432617188 0.5 288.8730773925781 0.5 285 L 0.5 15 C 0.5 11.12692260742188 2.008269309997559 7.485653877258301 4.74696159362793 4.74696159362793 C 7.485653877258301 2.008269309997559 11.12692260742188 0.5 15 0.5 L 285 0.5 C 288.8730773925781 0.5 292.5143432617188 2.008269309997559 295.2530517578125 4.74696159362793 C 297.9917297363281 7.485653877258301 299.5 11.12692260742188 299.5 15 L 299.5 285 C 299.5 288.8730773925781 297.9917297363281 292.5143432617188 295.2530517578125 295.2530517578125 C 292.5143432617188 297.9917297363281 288.8730773925781 299.5 285 299.5 Z" stroke="none"/>
      <path d="M 15 1 C 11.26046752929688 1 7.744781494140625 2.456268310546875 5.100494384765625 5.100494384765625 C 2.456268310546875 7.744781494140625 1 11.26046752929688 1 15 L 1 285 C 1 288.7395324707031 2.456268310546875 292.2552185058594 5.100494384765625 294.8995056152344 C 7.744781494140625 297.5437316894531 11.26046752929688 299 15 299 L 285 299 C 288.7395324707031 299 292.2552185058594 297.5437316894531 294.8995056152344 294.8995056152344 C 297.5437316894531 292.2552185058594 299 288.7395324707031 299 285 L 299 15 C 299 11.26046752929688 297.5437316894531 7.744781494140625 294.8995056152344 5.100494384765625 C 292.2552185058594 2.456268310546875 288.7395324707031 1 285 1 L 15 1 M 15 0 L 285 0 C 293.2842712402344 0 300 6.715728759765625 300 15 L 300 285 C 300 293.2842712402344 293.2842712402344 300 285 300 L 15 300 C 6.715728759765625 300 0 293.2842712402344 0 285 L 0 15 C 0 6.715728759765625 6.715728759765625 0 15 0 Z" stroke="none" fill="#fff"/>
    </g>
  </g>
</svg>
