<svg id="그룹_10757" data-name="그룹 10757" xmlns="http://www.w3.org/2000/svg" width="40" height="40" viewBox="0 0 40 40">
  <g id="타원_958" data-name="타원 958" fill="#fff" stroke="#d81e1e" stroke-width="2">
    <circle cx="20" cy="20" r="20" stroke="none"/>
    <circle cx="20" cy="20" r="19" fill="none"/>
  </g>
  <path id="패스_12583" data-name="패스 12583" d="M15.82,7.534a.753.753,0,0,0-.753.753,6.794,6.794,0,1,1-3.451-5.9l-.848.848A.753.753,0,0,0,11.3,4.521h3.014A.706.706,0,0,0,14.4,4.5a.724.724,0,0,0,.144-.029.731.731,0,0,0,.143-.068.682.682,0,0,0,.075-.036c.014-.01.02-.026.033-.037a.738.738,0,0,0,.107-.12.713.713,0,0,0,.074-.11.742.742,0,0,0,.047-.136.729.729,0,0,0,.03-.148c0-.018.01-.033.01-.052V.754A.753.753,0,0,0,13.781.221L12.718,1.283a8.288,8.288,0,1,0,3.855,7,.753.753,0,0,0-.753-.753" transform="translate(11.415 11.414)" fill="#d81e1e"/>
</svg>
