<svg xmlns="http://www.w3.org/2000/svg" width="11.5" height="15.5" viewBox="0 0 11.5 15.5">
  <g id="그룹_10720" data-name="그룹 10720" transform="translate(11.375 0.75) rotate(90)">
    <path id="패스_405" data-name="패스 405" d="M124.387,1546.017a.75.75,0,0,1-.555-1.255l4.087-4.5-4.087-4.5a.75.75,0,1,1,1.11-1.009l4.546,5a.75.75,0,0,1,0,1.009l-4.546,5A.748.748,0,0,1,124.387,1546.017Z" transform="translate(-114.934 -1534.642)"/>
    <path id="패스_406" data-name="패스 406" d="M124.141,1541.75H111.076a.75.75,0,0,1,0-1.5h13.065a.75.75,0,1,1,0,1.5Z" transform="translate(-111.076 -1535.375)"/>
  </g>
</svg>
