<svg xmlns="http://www.w3.org/2000/svg" width="35" height="35" viewBox="0 0 35 35">
  <g id="그룹_10757" data-name="그룹 10757" transform="translate(-811 -1477)">
    <circle id="타원_958" data-name="타원 958" cx="17.5" cy="17.5" r="17.5" transform="translate(811 1477)" fill="#fff"/>
    <path id="타원_958_-_윤곽선" data-name="타원 958 - 윤곽선" d="M17.5,1.5A16,16,0,0,0,6.186,28.814,16,16,0,0,0,28.814,6.186,15.9,15.9,0,0,0,17.5,1.5m0-1.5A17.5,17.5,0,1,1,0,17.5,17.5,17.5,0,0,1,17.5,0Z" transform="translate(811 1477)" fill="#e254bd"/>
    <path id="패스_12583" data-name="패스 12583" d="M15.82,7.534a.753.753,0,0,0-.753.753,6.794,6.794,0,1,1-3.451-5.9l-.848.848A.753.753,0,0,0,11.3,4.521h3.014A.706.706,0,0,0,14.4,4.5a.724.724,0,0,0,.144-.029.731.731,0,0,0,.143-.068.682.682,0,0,0,.075-.036c.014-.01.02-.026.033-.037a.738.738,0,0,0,.107-.12.713.713,0,0,0,.074-.11.742.742,0,0,0,.047-.136.729.729,0,0,0,.03-.148c0-.018.01-.033.01-.052V.754A.753.753,0,0,0,13.781.221L12.718,1.283a8.288,8.288,0,1,0,3.855,7,.753.753,0,0,0-.753-.753" transform="translate(819.979 1485.978)" fill="#e254bd"/>
  </g>
</svg>
