<svg id="Icon_Back" data-name="Icon Back" xmlns="http://www.w3.org/2000/svg" width="72" height="27" viewBox="0 0 72 27">
  <rect id="사각형_4763" data-name="사각형 4763" width="72" height="27" rx="13.5"/>
  <g id="그룹_11008" data-name="그룹 11008" transform="translate(-84 -164)">
    <text id="충전" transform="translate(110 182)" fill="#fff" font-size="12" font-family="Pretendard-Bold, Pretendard" font-weight="700"><tspan x="-10.368" y="0">충전</tspan></text>
    <path id="Icon_awesome-coins" data-name="Icon awesome-coins" d="M0,11.082V12.25C0,13.215,2.352,14,5.25,14s5.25-.785,5.25-1.75V11.082A9.944,9.944,0,0,1,5.25,12.25,9.944,9.944,0,0,1,0,11.082ZM8.75,3.5c2.9,0,5.25-.785,5.25-1.75S11.648,0,8.75,0,3.5.785,3.5,1.75,5.852,3.5,8.75,3.5ZM0,8.214V9.625c0,.965,2.352,1.75,5.25,1.75s5.25-.785,5.25-1.75V8.214A8.806,8.806,0,0,1,5.25,9.625,8.806,8.806,0,0,1,0,8.214Zm11.375.3C12.942,8.211,14,7.648,14,7V5.832a6.715,6.715,0,0,1-2.625.943ZM5.25,4.375c-2.9,0-5.25.979-5.25,2.188S2.352,8.75,5.25,8.75s5.25-.979,5.25-2.187S8.148,4.375,5.25,4.375Zm6,1.539C12.887,5.619,14,5.039,14,4.375V3.207A8.9,8.9,0,0,1,9.606,4.35,3.062,3.062,0,0,1,11.246,5.914Z" transform="translate(126 171)" fill="#fff"/>
  </g>
</svg>
