<svg xmlns="http://www.w3.org/2000/svg" width="55" height="22" viewBox="0 0 55 22">
  <defs>
    <style>
      .cls-1 {
        fill: #fff;
      }
    </style>
  </defs>
  <g id="그룹_12939" data-name="그룹 12939" transform="translate(-1387.064 -2860.915)">
    <path id="사각형_4763" data-name="사각형 4763" class="cls-1" d="M11,1.5a9.5,9.5,0,0,0,0,19H44a9.5,9.5,0,0,0,0-19H11M11,0H44a11,11,0,0,1,0,22H11A11,11,0,0,1,11,0Z" transform="translate(1387.064 2860.915)"/>
    <path id="패스_12857" data-name="패스 12857" class="cls-1" d="M1409.064,2875.924a1,1,0,0,1-.707-1.707l2.3-2.3-2.3-2.3a1,1,0,0,1,1.414-1.414l3,3a1,1,0,0,1,0,1.414l-3,3A1,1,0,0,1,1409.064,2875.924Z" transform="translate(-2)"/>
    <path id="패스_12858" data-name="패스 12858" class="cls-1" d="M1409.064,2875.924a1,1,0,0,1-.707-1.707l2.3-2.3-2.3-2.3a1,1,0,0,1,1.414-1.414l3,3a1,1,0,0,1,0,1.414l-3,3A1,1,0,0,1,1409.064,2875.924Z" transform="translate(3.797)"/>
    <path id="패스_12859" data-name="패스 12859" class="cls-1" d="M1409.064,2875.924a1,1,0,0,1-.707-1.707l2.3-2.3-2.3-2.3a1,1,0,0,1,1.414-1.414l3,3a1,1,0,0,1,0,1.414l-3,3A1,1,0,0,1,1409.064,2875.924Z" transform="translate(9.593)"/>
  </g>
</svg>
