<svg xmlns="http://www.w3.org/2000/svg" width="35" height="35" viewBox="0 0 35 35">
  <g id="그룹_10758" data-name="그룹 10758" transform="translate(-0.141)">
    <circle id="타원_958" data-name="타원 958" cx="17.5" cy="17.5" r="17.5" transform="translate(0.141)" fill="#fff"/>
    <path id="타원_958_-_윤곽선" data-name="타원 958 - 윤곽선" d="M17.5,1.5A16,16,0,0,0,6.186,28.814,16,16,0,0,0,28.814,6.186,15.9,15.9,0,0,0,17.5,1.5m0-1.5A17.5,17.5,0,1,1,0,17.5,17.5,17.5,0,0,1,17.5,0Z" transform="translate(0.141)" fill="#f7a201"/>
    <path id="패스_12583" data-name="패스 12583" d="M15.962,7.6a.76.76,0,0,0-.76.76A6.855,6.855,0,1,1,11.72,2.408l-.856.856a.76.76,0,0,0,.537,1.3h3.041a.712.712,0,0,0,.091-.018.73.73,0,0,0,.145-.029.738.738,0,0,0,.144-.069.688.688,0,0,0,.076-.036c.014-.01.02-.026.033-.037a.745.745,0,0,0,.108-.122.719.719,0,0,0,.074-.111A.748.748,0,0,0,15.162,4a.735.735,0,0,0,.03-.149c0-.018.01-.034.01-.052V.761A.76.76,0,0,0,13.9.223L12.833,1.295a8.363,8.363,0,1,0,3.89,7.067.76.76,0,0,0-.76-.76" transform="translate(9.102 9.059)" fill="#f7a201"/>
  </g>
</svg>
