<svg id="BTN_reload" xmlns="http://www.w3.org/2000/svg" width="30" height="30" viewBox="0 0 30 30">
  <g id="타원_958" data-name="타원 958" fill="#fff" stroke="#000" stroke-width="2">
    <circle cx="15" cy="15" r="15" stroke="none"/>
    <circle cx="15" cy="15" r="14" fill="none"/>
  </g>
  <path id="패스_12583" data-name="패스 12583" d="M14.317,6.818a.682.682,0,0,0-.682.682A6.148,6.148,0,1,1,10.512,2.16l-.768.768a.682.682,0,0,0,.482,1.164h2.727a.639.639,0,0,0,.081-.017.655.655,0,0,0,.13-.026.662.662,0,0,0,.129-.062.617.617,0,0,0,.068-.033c.012-.009.018-.023.03-.033a.668.668,0,0,0,.1-.109.645.645,0,0,0,.067-.1A.671.671,0,0,0,13.6,3.59a.66.66,0,0,0,.027-.134c0-.016.009-.03.009-.047V.682A.682.682,0,0,0,12.471.2l-.961.961A7.5,7.5,0,1,0,15,7.5a.682.682,0,0,0-.682-.682" transform="translate(7.501 7.5)" stroke="#000" stroke-width="0.5"/>
</svg>
