<svg xmlns="http://www.w3.org/2000/svg" width="28" height="27" viewBox="0 0 28 27">
  <defs>
    <style>
      .cls-1 {
        fill: #fff;
      }
    </style>
  </defs>
  <path id="다각형_17" data-name="다각형 17" class="cls-1" d="M13.117,1.665a1,1,0,0,1,1.767,0l3.44,6.483a1,1,0,0,0,.7.515l7.166,1.318a1,1,0,0,1,.547,1.67L21.689,17a1,1,0,0,0-.264.819l.98,7.327a1,1,0,0,1-1.43,1.031l-6.536-3.192a1,1,0,0,0-.878,0L7.025,26.181a1,1,0,0,1-1.43-1.031l.98-7.327A1,1,0,0,0,6.311,17L1.261,11.65a1,1,0,0,1,.547-1.67L8.974,8.663a1,1,0,0,0,.7-.515Z"/>
</svg>
