<svg xmlns="http://www.w3.org/2000/svg" width="28.648" height="20.3" viewBox="0 0 28.648 20.3">
  <defs>
    <style>
      .cls-1 {
        fill: #231f20;
      }
    </style>
  </defs>
  <g transform="translate(-1634.85 -786.884)">
    <path id="Icon_Line_email" class="cls-1" d="M26.272,0H2.077A2.252,2.252,0,0,0,0,2.389V17.611A2.252,2.252,0,0,0,2.077,20H26.272a2.252,2.252,0,0,0,2.077-2.389V2.389A2.252,2.252,0,0,0,26.272,0m1.071,2.389V17.611a1.4,1.4,0,0,1-.06.406L17.934,10l9.348-8.016a1.394,1.394,0,0,1,.06.406M26.272,1.157a.935.935,0,0,1,.252.035l-11.6,9.945a1.225,1.225,0,0,1-1.5,0L1.825,1.192a.937.937,0,0,1,.252-.035ZM1.065,18.016a1.394,1.394,0,0,1-.06-.406V2.389a1.394,1.394,0,0,1,.06-.406L10.414,10Zm1.011.827a.939.939,0,0,1-.252-.035l9.431-8.087,1.567,1.344a2.118,2.118,0,0,0,2.7,0l1.567-1.344,9.431,8.087a.939.939,0,0,1-.252.035Z" transform="translate(1635 787.034)"/>
    <path id="Icon_Line_email_-_윤곽선" data-name="Icon_Line_email - 윤곽선" d="M2.077-.15h24.2A2.4,2.4,0,0,1,28.5,2.389V17.611a2.4,2.4,0,0,1-2.227,2.539H2.077A2.4,2.4,0,0,1-.15,17.611V2.389A2.4,2.4,0,0,1,2.077-.15Zm24.2,20A2.1,2.1,0,0,0,28.2,17.611V2.389A2.1,2.1,0,0,0,26.272.15H2.077A2.1,2.1,0,0,0,.15,2.389V17.611A2.1,2.1,0,0,0,2.077,19.85ZM2.077,1.007h24.2a1.088,1.088,0,0,1,.292.04l.271.076L15.023,11.251a1.374,1.374,0,0,1-1.7,0L1.514,1.123l.271-.075A1.089,1.089,0,0,1,2.077,1.007Zm24.082.3H2.19l11.331,9.716a1.076,1.076,0,0,0,1.307,0ZM.989,1.72,10.644,10,.989,18.28l-.067-.22a1.544,1.544,0,0,1-.066-.449V2.389A1.544,1.544,0,0,1,.922,1.94ZM10.183,10,1.162,2.264q-.006.062-.006.126V17.611q0,.063.006.126ZM27.36,1.72l.067.22a1.543,1.543,0,0,1,.066.449V17.611a1.544,1.544,0,0,1-.066.449l-.067.22L17.7,10Zm-.173,16.016q.006-.062.006-.126V2.389q0-.063-.006-.126L18.165,10ZM11.255,10.524l1.664,1.427a1.969,1.969,0,0,0,2.509,0l1.664-1.427,9.742,8.354-.271.075a1.091,1.091,0,0,1-.292.04H2.077a1.091,1.091,0,0,1-.292-.04l-.271-.075ZM14.174,12.7a2.223,2.223,0,0,1-1.45-.524l-1.469-1.26L2.19,18.693H26.159l-9.066-7.774-1.469,1.26A2.223,2.223,0,0,1,14.174,12.7Z" transform="translate(1635 787.034)"/>
  </g>
</svg>
