<svg xmlns="http://www.w3.org/2000/svg" width="23.07" height="23.007" viewBox="0 0 23.07 23.007">
  <g id="그룹_10741" data-name="그룹 10741" transform="translate(0.504 0.505)">
    <path id="패스_12578" data-name="패스 12578" d="M21.788,20.737,19.853,18.8l-3.086-3.088-.21-.21a9.536,9.536,0,0,0,.712-.941,9.409,9.409,0,0,0-.24-10.67,10.1,10.1,0,0,0-.973-1.147A9.375,9.375,0,0,0,11.037.134,9.6,9.6,0,0,0,5.389.891,9.39,9.39,0,0,0,.041,10.236a9.546,9.546,0,0,0,2.251,5.315,9.39,9.39,0,0,0,10.373,2.673A9.616,9.616,0,0,0,15.5,16.551l1.438,1.438,3.086,3.088.711.711a.742.742,0,0,0,1.049-1.05m-7.534-5.063-.01.007h0l-.007.005-.014.01-.012.009-.036.027q-.115.085-.232.166-.226.155-.461.3a8.545,8.545,0,0,1-.961.5l-.023.01.029-.012a.873.873,0,0,1-.092.04l.034-.015L12.5,16.7l-.108.044q-.137.054-.277.1-.286.1-.579.183a8.894,8.894,0,0,1-1.072.226l.087-.011-.2.026.11-.015a8.838,8.838,0,0,1-2.11,0l.1.015-.2-.026.094.012A8.718,8.718,0,0,1,6.4,16.74l-.085-.034.04.017.015.007-.107-.045.017.007.036.014-.012,0q-.127-.056-.253-.116c-.163-.078-.323-.16-.481-.248a8.582,8.582,0,0,1-.921-.592c-.017-.013-.118-.072-.122-.092l.005,0q-.109-.086-.214-.177Q4.105,15.3,3.9,15.1a8.745,8.745,0,0,1-.757-.835l-.014-.018,0,0-.007-.01h0l-.005-.007-.01-.014L3.1,14.207l-.027-.037c-.057-.076-.112-.154-.166-.232-.1-.15-.2-.3-.3-.461a8.589,8.589,0,0,1-.5-.962l-.01-.021.011.028a.874.874,0,0,1-.04-.092s.007.014.015.034l.013.03-.044-.11q-.054-.137-.1-.277-.1-.286-.183-.579a8.84,8.84,0,0,1-.226-1.073c0,.03.007.059.011.088-.009-.066-.018-.132-.027-.2l.015.109a8.855,8.855,0,0,1,0-2.112c-.005.035-.011.07-.015.105.009-.066.018-.131.027-.2,0,.031-.008.061-.011.092a8.727,8.727,0,0,1,.519-1.95c.011-.029.023-.057.035-.085l-.018.04-.007.015c.007-.018.066-.157.038-.09l-.01.024c.037-.085.076-.17.116-.254q.116-.245.248-.481a8.719,8.719,0,0,1,.592-.922c.013-.017.072-.118.092-.122,0,0,0,0,0,.005q.086-.108.177-.214.183-.215.379-.418a8.793,8.793,0,0,1,.835-.758l.008-.007-.009.007.01-.007.084-.063c.077-.057.154-.112.233-.166q.225-.156.46-.3a8.611,8.611,0,0,1,.961-.5l.025-.011-.032.013-.015.006c.006,0,.094-.041.106-.045l-.034.015-.026.011.105-.043c.091-.036.183-.071.277-.1.19-.067.383-.129.579-.183a8.629,8.629,0,0,1,1.068-.225l-.084.01L8.4,1.531l-.057.008a8.85,8.85,0,0,1,2.125,0l-.115-.016.2.026-.082-.01a8.715,8.715,0,0,1,1.939.519l.042.017-.014-.007c-.009-.005.1.042.109.046l-.017-.007L12.5,2.1c.085.037.17.076.253.116q.244.117.481.248a8.716,8.716,0,0,1,.921.593c.017.013.12.07.122.092L14.2,3.08l.024.019.06.048q.121.1.238.2.251.217.486.451.2.2.387.413c.059.068.118.137.175.207l.085.1.048.06.019.024-.056-.073a6.172,6.172,0,0,1,.6.9q.136.235.257.478.058.117.113.235c.018.039.036.079.053.118l.03.068.011.024c-.007-.018-.029-.07-.038-.091a5.928,5.928,0,0,1,.346,1,8.766,8.766,0,0,1,.226,1.072q0-.043-.011-.087.014.1.027.2c-.005-.037-.01-.074-.016-.11a8.836,8.836,0,0,1,0,2.121c.006-.037.011-.075.016-.113q-.013.1-.027.2c0-.028.007-.056.011-.084a8.692,8.692,0,0,1-.519,1.942l-.036.089.019-.044.007-.016c0,.01-.037.089-.045.106a.146.146,0,0,1,.006-.015l.01-.024c-.037.085-.076.17-.116.254-.078.163-.16.324-.248.481a8.648,8.648,0,0,1-.592.922c-.013.017-.072.118-.092.122,0,0,0,0,0-.005-.057.073-.116.144-.176.214q-.183.215-.379.418l-.067.068-.03.03,0,0a8.819,8.819,0,0,1-.736.657l-.018.014,0,0" transform="translate(0 0)" fill="#fff" stroke="#fff" stroke-width="1"/>
    <path id="패스_12579" data-name="패스 12579" d="M8.077,3.8h0c-.008,0-3.7.67-4.011,4.225" transform="translate(0.493 0.514)" fill="none" stroke="#fff" stroke-linecap="round" stroke-linejoin="round" stroke-width="1.5"/>
  </g>
</svg>
