<svg xmlns="http://www.w3.org/2000/svg" width="24" height="19.997" viewBox="0 0 24 19.997">
  <g id="그룹_13223" data-name="그룹 13223" transform="translate(-17 -20.261)">
    <path id="패스_247" data-name="패스 247" d="M1.2,2.4H22.8a1.2,1.2,0,1,0,0-2.4H1.2a1.2,1.2,0,1,0,0,2.4" transform="translate(17 20.261)"/>
    <path id="패스_248" data-name="패스 248" d="M1.2,29.166H22.8a1.2,1.2,0,1,0,0-2.4H1.2a1.2,1.2,0,1,0,0,2.4" transform="translate(17 2.293)"/>
    <path id="패스_249" data-name="패스 249" d="M1.2,55.933H22.8a1.2,1.2,0,1,0,0-2.4H1.2a1.2,1.2,0,1,0,0,2.4" transform="translate(17 -15.675)"/>
  </g>
</svg>
