<svg xmlns="http://www.w3.org/2000/svg" width="13.311" height="13.312" viewBox="0 0 13.311 13.312">
  <g id="그룹_10795" data-name="그룹 10795" transform="translate(0.421 0.42)">
    <path id="패스_12630" data-name="패스 12630" d="M7.807,13.063a1.783,1.783,0,0,1-1.271-.516.751.751,0,0,1-.079-.093L4.885,10.262A.75.75,0,1,1,6.1,9.388l1.524,2.126a.359.359,0,0,0,.291.036.7.7,0,0,0,.489-.452l3.126-9.4a.357.357,0,0,0-.048-.374.357.357,0,0,0-.374-.048l-9.4,3.126a.7.7,0,0,0-.452.49.359.359,0,0,0,.036.29L4.881,7.75a.75.75,0,0,1-.873,1.22L.36,6.357a.75.75,0,0,1-.094-.079A1.825,1.825,0,0,1-.2,4.55,2.2,2.2,0,0,1,1.243,2.982l9.4-3.126a1.849,1.849,0,0,1,1.908.411,1.849,1.849,0,0,1,.41,1.908l-3.126,9.4a2.2,2.2,0,0,1-1.568,1.438A1.989,1.989,0,0,1,7.807,13.063Z" transform="translate(-0.172 -0.172)" fill="#fff"/>
    <path id="선_237" data-name="선 237" d="M0,4.8a.748.748,0,0,1-.537-.226A.75.75,0,0,1-.524,3.517L3.628-.537a.75.75,0,0,1,1.061.013A.75.75,0,0,1,4.676.537L.524,4.59A.748.748,0,0,1,0,4.8Z" transform="translate(4.296 4.087)" fill="#fff"/>
  </g>
</svg>
