<svg id="그룹_10741" data-name="그룹 10741" xmlns="http://www.w3.org/2000/svg" width="24" height="24.002" viewBox="0 0 24 24.002">
  <path id="패스_12578" data-name="패스 12578" d="M23.769,22.622,21.658,20.51l-3.367-3.369-.229-.229a10.4,10.4,0,0,0,.777-1.027,10.264,10.264,0,0,0-.261-11.64,11.015,11.015,0,0,0-1.062-1.252A10.228,10.228,0,0,0,12.041.146,10.473,10.473,0,0,0,5.879.972,10.243,10.243,0,0,0,.045,11.167a10.414,10.414,0,0,0,2.456,5.8,10.243,10.243,0,0,0,11.316,2.916,10.49,10.49,0,0,0,3.1-1.826l1.568,1.569,3.366,3.368.776.775a.81.81,0,1,0,1.145-1.146M15.55,17.1l-.01.008h0l-.008.006-.015.011-.013.01-.04.03q-.125.093-.253.181-.246.169-.5.323a9.322,9.322,0,0,1-1.048.542l-.025.011.032-.013a.952.952,0,0,1-.1.043l.037-.017.031-.014-.117.048q-.15.059-.3.113-.312.11-.631.2a9.7,9.7,0,0,1-1.169.246l.095-.012-.215.029.12-.017a9.642,9.642,0,0,1-2.3,0l.113.016-.215-.029.1.013a9.51,9.51,0,0,1-2.128-.567l-.092-.038.043.019.016.008L6.836,18.2l.018.007.039.016-.013-.005q-.139-.061-.276-.126c-.177-.085-.353-.175-.525-.271a9.362,9.362,0,0,1-1.005-.646c-.019-.014-.129-.079-.133-.1l.006,0q-.119-.094-.234-.193-.234-.2-.455-.414a9.54,9.54,0,0,1-.826-.911l-.015-.019,0,0-.008-.01h0l-.006-.008-.011-.015-.01-.012-.03-.04c-.062-.083-.122-.168-.181-.253-.113-.164-.221-.332-.323-.5a9.37,9.37,0,0,1-.542-1.049l-.01-.023.012.03a.953.953,0,0,1-.043-.1s.007.016.017.037l.014.033-.048-.12q-.059-.149-.113-.3-.11-.312-.2-.632a9.644,9.644,0,0,1-.247-1.171c0,.032.008.064.012.1-.01-.072-.02-.144-.029-.215l.017.119a9.66,9.66,0,0,1,0-2.3c-.006.038-.012.077-.017.115.01-.072.02-.143.029-.215,0,.034-.009.067-.012.1a9.52,9.52,0,0,1,.567-2.127c.012-.032.025-.062.038-.093l-.02.044-.007.017c.007-.02.072-.171.042-.1l-.01.026c.041-.093.083-.185.126-.277q.127-.267.27-.525a9.511,9.511,0,0,1,.646-1.006c.014-.019.079-.129.1-.133,0,0,0,0,0,.006q.094-.118.193-.233.2-.234.414-.456a9.592,9.592,0,0,1,.911-.827l.009-.007-.01.007.011-.008.091-.069c.084-.062.168-.122.254-.181q.246-.17.5-.324A9.394,9.394,0,0,1,6.862,2.3l.027-.012L6.855,2.3,6.839,2.3c.006,0,.1-.045.116-.049l-.037.017-.028.012L7,2.237c.1-.039.2-.077.3-.113.208-.074.418-.141.631-.2A9.414,9.414,0,0,1,9.1,1.679l-.091.011.153-.02L9.1,1.679a9.654,9.654,0,0,1,2.319,0L11.3,1.661l.215.029-.089-.011a9.508,9.508,0,0,1,2.116.566l.046.018-.016-.008c-.01-.006.113.046.119.05L13.667,2.3l-.026-.01c.093.041.185.083.276.127q.267.127.525.27a9.509,9.509,0,0,1,1.005.646c.019.014.131.076.133.1L15.49,3.36l.026.021.066.052q.132.106.259.215.274.236.53.492.219.218.423.45c.065.074.129.149.191.225l.093.114L17.13,5l.021.026c-.007-.01-.043-.056-.061-.079a6.733,6.733,0,0,1,.655.985q.149.256.28.521.064.127.123.257c.02.043.039.086.058.129l.032.074.012.026c-.007-.019-.032-.077-.042-.1a6.467,6.467,0,0,1,.377,1.094,9.563,9.563,0,0,1,.246,1.17Q18.826,9.05,18.819,9q.015.108.029.215c-.006-.04-.011-.08-.017-.12a9.639,9.639,0,0,1,0,2.314c.006-.041.012-.082.018-.124q-.014.107-.029.215c0-.031.008-.061.012-.092a9.482,9.482,0,0,1-.566,2.119l-.039.1.021-.048.008-.018c0,.011-.04.1-.049.116a.159.159,0,0,1,.006-.016l.01-.026c-.041.093-.083.185-.127.277-.085.177-.175.353-.27.525a9.434,9.434,0,0,1-.646,1.006c-.014.019-.078.129-.1.134,0,0,0,0,0-.006-.062.079-.127.157-.192.234q-.2.234-.414.456l-.073.074-.032.032,0,0a9.621,9.621,0,0,1-.8.717l-.019.015,0,0" transform="translate(0 0)" fill="#fff"/>
  <path id="패스_12579" data-name="패스 12579" d="M4.067,8.78,4,8.777a.75.75,0,0,1-.682-.813A5.138,5.138,0,0,1,5.73,3.986a6.693,6.693,0,0,1,2.191-.915A.75.75,0,0,1,8.3,4.52a.81.81,0,0,1-.086.022,5.156,5.156,0,0,0-1.671.7A3.64,3.64,0,0,0,4.813,8.095.75.75,0,0,1,4.067,8.78Z" transform="translate(1 1)" fill="#fff"/>
</svg>
