<svg xmlns="http://www.w3.org/2000/svg" width="35.1" height="22.1" viewBox="0 0 35.1 22.1">
  <path id="Icon_metro-coins" data-name="Icon metro-coins" d="M38.227,28.955H22.308a10.246,10.246,0,0,0,1.061-2.6H38.227a1.3,1.3,0,0,1,0,2.6Zm0-3.9H23.621a9.465,9.465,0,0,0,0-2.6H38.227a1.3,1.3,0,0,1,0,2.6Zm0-3.9H23.368a10.294,10.294,0,0,0-1.061-2.6h15.92a1.3,1.3,0,0,1,0,2.6Zm0-3.9H21.421a10.412,10.412,0,0,0-3.08-2.6H38.227a1.3,1.3,0,0,1,0,2.6Zm0-3.9h-20.8a1.3,1.3,0,1,1,0-2.6h20.8a1.3,1.3,0,0,1,0,2.6Zm-15.6,10.4a9.1,9.1,0,1,1-9.1-9.1A9.1,9.1,0,0,1,22.627,23.755Zm-5.879.989a2.779,2.779,0,0,0-.512-.811,3.351,3.351,0,0,0-.723-.593,8.334,8.334,0,0,0-.828-.443q-.412-.189-.828-.369a5.4,5.4,0,0,1-.727-.373,1.831,1.831,0,0,1-.512-.455.982.982,0,0,1-.191-.606,1.191,1.191,0,0,1,.085-.445.935.935,0,0,1,.26-.36,1.259,1.259,0,0,1,.434-.234,1.952,1.952,0,0,1,.61-.084,2.92,2.92,0,0,1,.82.108,4.689,4.689,0,0,1,.658.243q.285.133.48.246a.673.673,0,0,0,.285.112.2.2,0,0,0,.142-.048.32.32,0,0,0,.081-.155,1.526,1.526,0,0,0,.04-.268c.008-.109.012-.243.012-.4,0-.14,0-.259-.008-.352a1.84,1.84,0,0,0-.027-.237.738.738,0,0,0-.048-.151.615.615,0,0,0-.111-.137,1.3,1.3,0,0,0-.333-.2,3.849,3.849,0,0,0-.576-.217,5.107,5.107,0,0,0-.7-.153c-.051-.008-.1-.005-.153-.012V17H13.1v1.344a4.688,4.688,0,0,0-.684.142,3.215,3.215,0,0,0-1.121.564A2.727,2.727,0,0,0,10.54,20a3.333,3.333,0,0,0-.086,2.456,2.79,2.79,0,0,0,.508.816,3.336,3.336,0,0,0,.71.591,7.355,7.355,0,0,0,.82.443c.282.13.555.252.82.369a5.456,5.456,0,0,1,.71.373,1.951,1.951,0,0,1,.508.455.986.986,0,0,1,.195.614,1.365,1.365,0,0,1-.113.563,1.139,1.139,0,0,1-.329.423,1.544,1.544,0,0,1-.523.264,2.41,2.41,0,0,1-.7.094,3.66,3.66,0,0,1-1.044-.134,4.787,4.787,0,0,1-.776-.3,5.137,5.137,0,0,1-.532-.3.68.68,0,0,0-.321-.134.236.236,0,0,0-.142.044.293.293,0,0,0-.1.151,1.26,1.26,0,0,0-.053.277c-.012.114-.017.255-.017.423a2.88,2.88,0,0,0,.044.573.6.6,0,0,0,.151.3,1.731,1.731,0,0,0,.344.242,3.555,3.555,0,0,0,.6.261,6.084,6.084,0,0,0,.824.213,5.48,5.48,0,0,0,1.011.087l.047,0v1.252h1.278v-1.42c.061-.016.126-.023.186-.04a3.66,3.66,0,0,0,1.235-.629,3.008,3.008,0,0,0,.837-1.043,3.25,3.25,0,0,0,.307-1.453A2.839,2.839,0,0,0,16.749,24.745Z" transform="translate(-4.427 -10.755)" fill="#fff"/>
</svg>
