<svg xmlns="http://www.w3.org/2000/svg" width="28.6" height="30.6" viewBox="0 0 28.6 30.6">
  <defs>
    <style>
      .cls-1 {
        fill: rgba(0,0,0,0.4);
      }
    </style>
  </defs>
  <g transform="translate(-1634.7 -781.7)">
    <path id="Icon_Line_emai02" class="cls-1" d="M27.055,10.793,15.32.476,15.313.47a2.081,2.081,0,0,0-2.635,0L.855,10.863A2.463,2.463,0,0,0,0,12.761v14.9A2.212,2.212,0,0,0,2.051,30h23.9A2.212,2.212,0,0,0,28,27.661v-14.9a2.424,2.424,0,0,0-.945-1.968m-.049,1.968v14.9a1.355,1.355,0,0,1-.059.4l-9.234-7.847,9.233-7.847a1.354,1.354,0,0,1,.059.4M13.275,1.376a1.191,1.191,0,0,1,1.442,0L26.267,11.53,16.883,19.5l-1.548-1.315a2.107,2.107,0,0,0-2.671,0L11.117,19.5,1.728,11.525ZM1.052,28.058a1.354,1.354,0,0,1-.059-.4v-14.9a1.346,1.346,0,0,1,.06-.4l9.233,7.847Zm1,.809a.935.935,0,0,1-.249-.034L13.258,19.1a1.219,1.219,0,0,1,1.484,0L26.2,28.833a.932.932,0,0,1-.249.034Z" transform="translate(1635 782)"/>
    <path id="Icon_Line_emai02_-_윤곽선" data-name="Icon_Line_emai02 - 윤곽선" class="cls-1" d="M14,0a2.03,2.03,0,0,0-1.317.47L.855,10.863A2.463,2.463,0,0,0,0,12.761v14.9A2.212,2.212,0,0,0,2.051,30h23.9A2.212,2.212,0,0,0,28,27.661v-14.9a2.424,2.424,0,0,0-.945-1.968L15.313.47A2.03,2.03,0,0,0,14,0m2.887,19.5-1.548-1.315a2.107,2.107,0,0,0-2.671,0L11.117,19.5,1.728,11.525,13.275,1.376a1.191,1.191,0,0,1,1.442,0L26.267,11.53,16.883,19.5m10.065,8.553-9.234-7.847,9.233-7.847a1.354,1.354,0,0,1,.059.4v14.9a1.355,1.355,0,0,1-.059.4m-25.9,0a1.354,1.354,0,0,1-.059-.4v-14.9a1.346,1.346,0,0,1,.06-.4l9.233,7.847L1.052,28.058m24.9.809H2.051a.935.935,0,0,1-.249-.034L13.258,19.1a1.219,1.219,0,0,1,1.484,0L26.2,28.833a.932.932,0,0,1-.249.034M14-.3a2.33,2.33,0,0,1,1.512.541l.008.007L27.244,10.56a2.73,2.73,0,0,1,1.056,2.2v14.9A2.51,2.51,0,0,1,25.949,30.3H2.051A2.51,2.51,0,0,1-.3,27.661v-14.9a2.768,2.768,0,0,1,.96-2.126L12.481.245A2.333,2.333,0,0,1,14-.3Zm.525,1.9a.894.894,0,0,0-1.051,0L2.187,11.521l8.93,7.589,1.353-1.15a2.407,2.407,0,0,1,3.059,0l1.353,1.15,8.925-7.585Zm-4.7,18.608-8.53-7.249v14.5ZM26.707,27.46v-14.5l-8.529,7.249Zm-1.285,1.108L14.548,19.326a.921.921,0,0,0-1.1,0L2.579,28.567Z" transform="translate(1635 782)"/>
  </g>
</svg>
