<svg xmlns="http://www.w3.org/2000/svg" xmlns:xlink="http://www.w3.org/1999/xlink" width="85.869" height="83.654" viewBox="0 0 85.869 83.654">
  <defs>
    <clipPath id="clip-path">
      <rect id="사각형_4740" data-name="사각형 4740" width="70.143" height="66.912" fill="none"/>
    </clipPath>
    <clipPath id="clip-path-3">
      <rect id="사각형_4734" data-name="사각형 4734" width="48.164" height="31.855" fill="none"/>
    </clipPath>
  </defs>
  <g id="그룹_10682" data-name="그룹 10682" transform="translate(18.443) rotate(16)">
    <g id="그룹_10681" data-name="그룹 10681" transform="translate(0 0)" clip-path="url(#clip-path)">
      <g id="그룹_10680" data-name="그룹 10680" transform="translate(0 0)">
        <g id="그룹_10679" data-name="그룹 10679" clip-path="url(#clip-path)">
          <path id="패스_12515" data-name="패스 12515" d="M58.1,17.855a1,1,0,0,1,0-1.417l-.567-.567a1,1,0,0,1-1.418-1.416l-.566-.567a1,1,0,0,1-1.417-1.418l-.567-.566a1,1,0,1,1-1.417-1.418l-.567-.567A1,1,0,0,1,50.165,8.5L49.6,7.936a1,1,0,0,1-1.417-1.417l-.567-.567A1,1,0,0,1,46.2,4.536l-.567-.568a1,1,0,0,1-1.417-1.417l-.567-.567A1,1,0,1,1,42.229.567L41.664,0a6.014,6.014,0,0,1-8.5,0L0,33.161a6.012,6.012,0,0,1,0,8.5l.568.567a1,1,0,0,1,1.417,1.417l.566.567A1,1,0,0,1,3.969,45.63l.565.568a1,1,0,0,1,1.418,1.417l.567.567A1,1,0,0,1,7.936,49.6l.567.567a1,1,0,0,1,1.416,1.417l.568.567A1,1,0,0,1,11.9,53.567l.567.567a1,1,0,0,1,1.417,1.417l.567.567a1,1,0,0,1,1.417,1.417l.568.567a1,1,0,1,1,1.417,1.417l.566.566a6.012,6.012,0,0,1,8.5,0l33.162-33.16a6.011,6.011,0,0,1,0-8.5l-.567-.567a1,1,0,0,1-1.417,0" transform="translate(0 0)" fill="#ef684e"/>
          <path id="패스_12516" data-name="패스 12516" d="M50.871,21.823,21.824,50.871l-.244-.1a9.742,9.742,0,0,0-6.091-.311l-.224.063L.344,35.606l.065-.225A9.735,9.735,0,0,0,.1,29.291L0,29.048,29.048,0l.242.095a9.723,9.723,0,0,0,6.092.313l.224-.063,14.92,14.92-.063.224a9.728,9.728,0,0,0,.312,6.091ZM21.625,49.936l28.31-28.31a10.519,10.519,0,0,1-.3-6.121L35.368,1.241A10.54,10.54,0,0,1,29.245.935L.934,29.246a10.527,10.527,0,0,1,.306,6.121L15.5,49.631a10.531,10.531,0,0,1,6.122.305" transform="translate(4.607 4.607)" fill="#c4523b"/>
          <path id="패스_12517" data-name="패스 12517" d="M5.792,3.813a3.52,3.52,0,0,1,.511.234,3.566,3.566,0,0,1,.47.305,4.453,4.453,0,0,1-.445.768,5.887,5.887,0,0,1-.542.619,3.409,3.409,0,0,1-1.144.788,2.706,2.706,0,0,1-1.2.2,2.986,2.986,0,0,1-1.186-.338,4.321,4.321,0,0,1-1.1-.816A4.3,4.3,0,0,1,.344,4.458a3.223,3.223,0,0,1-.338-1.2A2.783,2.783,0,0,1,.2,2.059,3.251,3.251,0,0,1,.949.941,5.571,5.571,0,0,1,1.563.407,3.521,3.521,0,0,1,2.293,0a2.017,2.017,0,0,1,.3.458c.079.167.156.339.229.516a4.274,4.274,0,0,0-.513.29,3.465,3.465,0,0,0-.445.382,1.658,1.658,0,0,0-.552,1.362,2.619,2.619,0,0,0,.868,1.537q1.584,1.583,2.925.24a3.346,3.346,0,0,0,.388-.453,4,4,0,0,0,.3-.519" transform="translate(17.717 35.66)" fill="#b8442d"/>
          <path id="패스_12518" data-name="패스 12518" d="M0,.954A4.21,4.21,0,0,1,.434.442,4.385,4.385,0,0,1,.953,0L5.615,4.661a4.46,4.46,0,0,1-.435.514,4.255,4.255,0,0,1-.519.44Z" transform="translate(20.658 33.813)" fill="#b8442d"/>
          <path id="패스_12519" data-name="패스 12519" d="M0,3.423A2.99,2.99,0,0,1,.343,3a3.162,3.162,0,0,1,.442-.363l4.77,1.167L2.587.837A3.808,3.808,0,0,1,3,.35,2.664,2.664,0,0,1,3.423,0L8.085,4.662a2.922,2.922,0,0,1-.337.414,3.19,3.19,0,0,1-.435.357L2.536,4.286,5.5,7.249a3.391,3.391,0,0,1-.384.461,3.229,3.229,0,0,1-.453.376Z" transform="translate(22.517 29.482)" fill="#b8442d"/>
          <path id="패스_12520" data-name="패스 12520" d="M0,2.646,2.646,0a2.873,2.873,0,0,1,.435.358A3.027,3.027,0,0,1,3.45.8L1.75,2.5,2.761,3.514l1.35-1.349a3.031,3.031,0,0,1,.81.811L3.572,4.325,4.8,5.557,6.548,3.813a2.856,2.856,0,0,1,.435.357,2.892,2.892,0,0,1,.368.447L4.663,7.307Z" transform="translate(26.848 25.928)" fill="#c4523c"/>
          <path id="패스_12521" data-name="패스 12521" d="M0,4.091a4.978,4.978,0,0,1,.46-.538A4.454,4.454,0,0,1,1,3.094l3.741,1.6L3.17.921A3.363,3.363,0,0,1,3.58.434,3.979,3.979,0,0,1,4.092,0L8.973,4.441a4.183,4.183,0,0,1-.426.5,3.5,3.5,0,0,1-.473.4L4.793,2.3,6.036,5.433c-.052.07-.105.14-.164.211s-.121.139-.185.2-.116.11-.176.162a1.487,1.487,0,0,1-.2.149L2.191,4.805,5.31,8.1a2.994,2.994,0,0,1-.364.442,3.48,3.48,0,0,1-.466.388Z" transform="translate(30.421 20.911)" fill="#c4523c"/>
          <path id="패스_12522" data-name="패스 12522" d="M0,1.057C.078.952.154.856.229.767S.394.585.494.485.667.317.755.243.943.085,1.057,0L7.178,3.2a5.1,5.1,0,0,1-.48.558,4,4,0,0,1-.52.441L4.986,3.526,3.443,5.069l.669,1.2a3.779,3.779,0,0,1-.409.485,3.919,3.919,0,0,1-.511.434ZM3.982,2.962l-2.5-1.42L2.878,4.064Z" transform="translate(36.671 17.696)" fill="#c4523c"/>
          <path id="패스_12523" data-name="패스 12523" d="M.427.43,1.938,1.2,3.138,0,2.873,1.675l1.51.77-1.675.264L2.443,4.383,1.675,2.873,0,3.138l1.2-1.2Z" transform="translate(11.253 30.705)" fill="#c4523c"/>
          <path id="패스_12524" data-name="패스 12524" d="M.429.429,1.941,1.2,3.138,0,2.873,1.675l1.511.769L2.711,2.71,2.445,4.382l-.77-1.51L0,3.138l1.2-1.2Z" transform="translate(16.115 25.842)" fill="#c4523c"/>
          <path id="패스_12525" data-name="패스 12525" d="M.43.429,1.94,1.2,3.138,0,2.874,1.675l1.512.768L2.71,2.709,2.445,4.382l-.769-1.51L0,3.137l1.2-1.2Z" transform="translate(20.978 20.979)" fill="#c4523c"/>
          <path id="패스_12526" data-name="패스 12526" d="M.429.428,1.94,1.2,3.137,0,2.872,1.674l1.511.769-1.675.265L2.443,4.383,1.675,2.872,0,3.138l1.2-1.2Z" transform="translate(25.843 16.116)" fill="#c4523c"/>
          <path id="패스_12527" data-name="패스 12527" d="M.429.428,1.94,1.2,3.138,0,2.874,1.674l1.51.77L2.71,2.709,2.445,4.383,1.674,2.873,0,3.138l1.2-1.2Z" transform="translate(30.706 11.252)" fill="#c4523c"/>
          <path id="패스_12528" data-name="패스 12528" d="M.428.43,1.939,1.2,3.138,0,2.872,1.675l1.512.77L2.708,2.71,2.443,4.383l-.769-1.51L0,3.139l1.2-1.2Z" transform="translate(25.538 44.99)" fill="#b8442d"/>
          <path id="패스_12529" data-name="패스 12529" d="M.429.429l1.51.767L3.138,0,2.873,1.675l1.511.768-1.675.266L2.444,4.383,1.675,2.872,0,3.137l1.2-1.2Z" transform="translate(30.401 40.128)" fill="#b8442d"/>
          <path id="패스_12530" data-name="패스 12530" d="M.428.429,1.94,1.2,3.137,0,2.872,1.675l1.511.769-1.674.265L2.443,4.383,1.674,2.872,0,3.138l1.2-1.2Z" transform="translate(35.265 35.264)" fill="#b8442d"/>
          <path id="패스_12531" data-name="패스 12531" d="M.428.429l1.51.769L3.138,0,2.873,1.675l1.511.768-1.675.265L2.444,4.382l-.771-1.51L0,3.137l1.2-1.2Z" transform="translate(40.128 30.401)" fill="#b8442d"/>
          <path id="패스_12532" data-name="패스 12532" d="M.429.43,1.94,1.2,3.138,0,2.873,1.675l1.511.768-1.675.266L2.445,4.383l-.77-1.512L0,3.138l1.2-1.2Z" transform="translate(44.991 25.537)" fill="#c4523c"/>
          <rect id="사각형_4732" data-name="사각형 4732" width="0.802" height="16.103" transform="matrix(0.706, -0.708, 0.708, 0.706, 9.548, 39.151)" fill="#b8442d"/>
          <rect id="사각형_4733" data-name="사각형 4733" width="0.803" height="16.104" transform="matrix(0.708, -0.706, 0.706, 0.708, 38.583, 10.114)" fill="#c4523c"/>
          <g id="그룹_10678" data-name="그룹 10678" transform="translate(10.617 28.229)" opacity="0.2">
            <g id="그룹_10677" data-name="그룹 10677">
              <g id="그룹_10676" data-name="그룹 10676" clip-path="url(#clip-path-3)">
                <path id="패스_12533" data-name="패스 12533" d="M6.013,0V.6A5.415,5.415,0,0,1,.6,6.014H0v2.01H.6a.4.4,0,0,1,0,.8H0v2.011H.6a.4.4,0,1,1,0,.794H0v2.01H.6a.4.4,0,0,1,0,.8H0V16.44H.6a.4.4,0,0,1,0,.8H0v2.01H.6a.4.4,0,0,1,0,.8H0v2.01H.6a.4.4,0,1,1,0,.794H0v.968a1,1,0,0,1,1.288,1.523l.567.567a1,1,0,0,1,1.417,1.417l.567.567A1,1,0,1,1,5.254,29.3l.568.568A1,1,0,0,1,7.24,31.289l.566.566a6.012,6.012,0,0,1,8.5,0L48.164,0Z" transform="translate(0 0)"/>
              </g>
            </g>
          </g>
          <path id="패스_12534" data-name="패스 12534" d="M57.92,30.263a1,1,0,0,1,1-1v-.8a1,1,0,1,1,0-2v-.8a1,1,0,1,1,0-2v-.8a1,1,0,1,1,0-2v-.8a1,1,0,1,1,0-2v-.8a1,1,0,1,1,0-2v-.8a1,1,0,1,1,0-2v-.8a1,1,0,1,1,0-2v-.8a1,1,0,1,1,0-2v-.8A6.013,6.013,0,0,1,52.908,0H6.012A6.011,6.011,0,0,1,0,6.013v.8a1,1,0,0,1,1,1,1,1,0,0,1-1,1v.8a1,1,0,0,1,1,1,1,1,0,0,1-1,1v.8a1,1,0,0,1,1,1,1,1,0,0,1-1,1v.8a1,1,0,0,1,1,1,1,1,0,0,1-1,1v.8a1,1,0,0,1,1,1,1,1,0,0,1-1,1v.8a1,1,0,0,1,0,2v.8a1,1,0,0,1,1,1,1,1,0,0,1-1,1v.8a1,1,0,0,1,1,1,1,1,0,0,1-1,1v.8a1,1,0,0,1,1,1,1,1,0,0,1-1,1v.8a6.011,6.011,0,0,1,6.012,6.013h46.9a6.013,6.013,0,0,1,6.014-6.013v-.8a1,1,0,0,1-1-1" transform="translate(11.221 28.834)" fill="#3382e2"/>
          <path id="패스_12535" data-name="패스 12535" d="M45.472,30.863H4.394l-.1-.24A9.717,9.717,0,0,0,.2,26.1L0,25.98V4.882l.2-.115A9.727,9.727,0,0,0,4.29.239L4.394,0H45.472l.105.239a9.729,9.729,0,0,0,4.086,4.529l.2.115v21.1l-.2.117a9.709,9.709,0,0,0-4.086,4.526Zm-40.558-.8H44.951a10.546,10.546,0,0,1,4.115-4.544V5.346A10.546,10.546,0,0,1,44.951.8H4.915A10.541,10.541,0,0,1,.8,5.346V25.516a10.541,10.541,0,0,1,4.113,4.544" transform="translate(15.748 32.442)" fill="#0864bf"/>
          <path id="패스_12536" data-name="패스 12536" d="M2.218,0l.525,1.612H4.438l-1.371,1L3.59,4.22l-1.372-1-1.37,1,.523-1.612L0,1.612H1.7Z" transform="translate(24.706 35.661)" fill="#0864bf"/>
          <path id="패스_12537" data-name="패스 12537" d="M2.218,0l.523,1.612h1.7l-1.372,1L3.588,4.22l-1.37-1-1.373,1L1.37,2.609,0,1.612H1.694Z" transform="translate(31.586 35.661)" fill="#0864bf"/>
          <path id="패스_12538" data-name="패스 12538" d="M2.218,0l.523,1.612h1.7l-1.371,1L3.591,4.22l-1.373-1-1.373,1,.526-1.612L0,1.612H1.695Z" transform="translate(38.463 35.661)" fill="#0864bf"/>
          <path id="패스_12539" data-name="패스 12539" d="M2.217,0l.524,1.612h1.7l-1.372,1L3.59,4.22l-1.373-1-1.372,1,.523-1.612L0,1.612H1.694Z" transform="translate(45.342 35.661)" fill="#0864bf"/>
          <path id="패스_12540" data-name="패스 12540" d="M2.219,0l.523,1.612H4.436l-1.37,1L3.59,4.22l-1.372-1-1.372,1,.524-1.612L0,1.612H1.694Z" transform="translate(52.219 35.661)" fill="#0864bf"/>
          <path id="패스_12541" data-name="패스 12541" d="M2.218,0l.525,1.612H4.438l-1.371,1L3.59,4.22l-1.372-1-1.37,1,.523-1.612L0,1.612H1.7Z" transform="translate(24.706 55.864)" fill="#0864bf"/>
          <path id="패스_12542" data-name="패스 12542" d="M2.218,0l.523,1.612h1.7l-1.372,1L3.588,4.22l-1.37-1-1.373,1L1.37,2.609,0,1.612H1.694Z" transform="translate(31.586 55.864)" fill="#0864bf"/>
          <path id="패스_12543" data-name="패스 12543" d="M2.218,0l.523,1.612h1.7l-1.371,1L3.591,4.22l-1.373-1-1.373,1,.526-1.612L0,1.612H1.695Z" transform="translate(38.463 55.864)" fill="#0864bf"/>
          <path id="패스_12544" data-name="패스 12544" d="M2.217,0l.524,1.612h1.7l-1.372,1L3.59,4.22l-1.373-1-1.372,1,.523-1.612L0,1.612H1.694Z" transform="translate(45.342 55.864)" fill="#0864bf"/>
          <path id="패스_12545" data-name="패스 12545" d="M2.219,0l.523,1.612H4.436l-1.37,1L3.59,4.22l-1.372-1-1.372,1,.524-1.612L0,1.612H1.694Z" transform="translate(52.219 55.864)" fill="#0864bf"/>
          <rect id="사각형_4735" data-name="사각형 4735" width="0.801" height="16.104" transform="translate(19.757 39.821)" fill="#0864bf"/>
          <rect id="사각형_4736" data-name="사각형 4736" width="0.802" height="16.104" transform="translate(60.804 39.821)" fill="#0864bf"/>
          <path id="패스_12546" data-name="패스 12546" d="M2.135.84H0V0H5.27V.84H3.134V6.689h-1Z" transform="translate(24.787 43.843)" fill="#0864bf"/>
          <path id="패스_12547" data-name="패스 12547" d="M2.135.84H0V0H5.27V.84H3.134V6.689h-1Z" transform="translate(24.787 43.843)" fill="none" stroke="#0864bf" stroke-miterlimit="10" stroke-width="0.5"/>
          <rect id="사각형_4737" data-name="사각형 4737" width="0.992" height="6.689" transform="translate(31.006 43.843)" fill="#0864bf"/>
          <rect id="사각형_4738" data-name="사각형 4738" width="0.992" height="6.689" transform="translate(31.006 43.843)" fill="none" stroke="#0864bf" stroke-miterlimit="10" stroke-width="0.5"/>
          <path id="패스_12548" data-name="패스 12548" d="M5.734,4.858a2.564,2.564,0,0,1-2.7,2.013C1.008,6.871,0,5.356,0,3.464,0,1.643,1.014,0,3.071,0A2.457,2.457,0,0,1,5.735,2.046H4.742A1.617,1.617,0,0,0,3.034.814c-1.422,0-2,1.291-2,2.618,0,1.278.541,2.625,2.037,2.625a1.646,1.646,0,0,0,1.665-1.2Z" transform="translate(33.369 43.747)" fill="#0864bf"/>
          <path id="패스_12549" data-name="패스 12549" d="M5.734,4.858a2.564,2.564,0,0,1-2.7,2.013C1.008,6.871,0,5.356,0,3.464,0,1.643,1.014,0,3.071,0A2.457,2.457,0,0,1,5.735,2.046H4.742A1.617,1.617,0,0,0,3.034.814c-1.422,0-2,1.291-2,2.618,0,1.278.541,2.625,2.037,2.625a1.646,1.646,0,0,0,1.665-1.2Z" transform="translate(33.369 43.747)" fill="none" stroke="#0864bf" stroke-miterlimit="10" stroke-width="0.5"/>
          <path id="패스_12550" data-name="패스 12550" d="M0,0H.985V3.225C1.471,2.71,3.108,1.061,4.124,0H5.347L2.507,2.813,5.48,6.689h-1.2L1.811,3.457l-.827.755V6.689H0Z" transform="translate(40.383 43.843)" fill="#0864bf"/>
          <path id="패스_12551" data-name="패스 12551" d="M0,0H.985V3.225C1.471,2.71,3.108,1.061,4.124,0H5.347L2.507,2.813,5.48,6.689h-1.2L1.811,3.457l-.827.755V6.689H0Z" transform="translate(40.383 43.843)" fill="none" stroke="#0864bf" stroke-miterlimit="10" stroke-width="0.5"/>
          <path id="패스_12552" data-name="패스 12552" d="M4.273,3.608H.97V5.849H4.6l-.126.84H0V0H4.429V.84H.97V2.768h3.3Z" transform="translate(46.695 43.843)" fill="#0864bf"/>
          <path id="패스_12553" data-name="패스 12553" d="M4.273,3.608H.97V5.849H4.6l-.126.84H0V0H4.429V.84H.97V2.768h3.3Z" transform="translate(46.695 43.843)" fill="none" stroke="#0864bf" stroke-miterlimit="10" stroke-width="0.5"/>
          <path id="패스_12554" data-name="패스 12554" d="M2.135.84H0V0H5.27V.84H3.134V6.689h-1Z" transform="translate(51.972 43.843)" fill="#0864bf"/>
          <path id="패스_12555" data-name="패스 12555" d="M2.135.84H0V0H5.27V.84H3.134V6.689h-1Z" transform="translate(51.972 43.843)" fill="none" stroke="#0864bf" stroke-miterlimit="10" stroke-width="0.5"/>
        </g>
      </g>
    </g>
  </g>
</svg>
