<svg xmlns="http://www.w3.org/2000/svg" width="24.143" height="20.132" viewBox="0 0 24.143 20.132">
  <g id="그룹_11089" data-name="그룹 11089" transform="translate(-87.433 -280.444)">
    <path id="Icon_material-question-answer" data-name="Icon material-question-answer" d="M25.114,7.182H22.857V17.341H8.182V18.6a1.132,1.132,0,0,0,1.129,1.129H21.728l4.515,4.515V8.311a1.132,1.132,0,0,0-1.129-1.129ZM21.032,14.4V5.24A1.132,1.132,0,0,0,19.9,4.111H3.229A1.132,1.132,0,0,0,2.1,5.24v14.8l4.515-4.515H19.9A1.132,1.132,0,0,0,21.032,14.4Z" transform="translate(85.333 276.333)" fill="#fff"/>
    <circle id="타원_972" data-name="타원 972" cx="1.25" cy="1.25" r="1.25" transform="translate(92 285)" fill="#44aafb"/>
    <circle id="타원_973" data-name="타원 973" cx="1.25" cy="1.25" r="1.25" transform="translate(96 285)" fill="#44aafb"/>
    <circle id="타원_974" data-name="타원 974" cx="1.25" cy="1.25" r="1.25" transform="translate(100 285)" fill="#44aafb"/>
  </g>
</svg>
