<svg xmlns="http://www.w3.org/2000/svg" width="24" height="24" viewBox="0 0 24 24">
  <g id="그룹_13224" data-name="그룹 13224" transform="translate(-7.85 -8)">
    <circle id="타원_953" data-name="타원 953" cx="12" cy="12" r="12" transform="translate(7.85 8)" fill="#fff"/>
    <path id="타원_953_-_윤곽선" data-name="타원 953 - 윤곽선" d="M12,2A10,10,0,1,0,22,12,10.011,10.011,0,0,0,12,2m0-2A12,12,0,1,1,0,12,12,12,0,0,1,12,0Z" transform="translate(7.85 8)"/>
    <path id="패스_225" data-name="패스 225" d="M29.129,13.954a3.958,3.958,0,0,0-3.575-.271,3.356,3.356,0,0,0-2.133,3.138v.005a.921.921,0,0,0,1.839-.005,1.66,1.66,0,0,1,1.01-1.552,2,2,0,0,1,1.843.12,1.659,1.659,0,0,1,.135,2.78,4.836,4.836,0,0,0-2.069,3.821.921.921,0,0,0,1.839-.006A3.162,3.162,0,0,1,29.4,19.512a3.351,3.351,0,0,0,1.378-2.687,3.386,3.386,0,0,0-1.648-2.871" transform="translate(-7.421 0.026)"/>
    <path id="패스_225_-_윤곽선" data-name="패스 225 - 윤곽선" d="M27.1,23.1a1.141,1.141,0,0,1-1.169-1.108A5.085,5.085,0,0,1,28.1,17.969a1.429,1.429,0,0,0,.59-1.144,1.446,1.446,0,0,0-.707-1.224,1.674,1.674,0,0,0-.884-.249,2,2,0,0,0-.736.148,1.409,1.409,0,0,0-.852,1.319,1.171,1.171,0,0,1-2.339.005V16.82a3.605,3.605,0,0,1,2.291-3.37,4.455,4.455,0,0,1,1.642-.319,4.084,4.084,0,0,1,2.157.61,3.635,3.635,0,0,1,1.766,3.084,3.6,3.6,0,0,1-1.477,2.887,2.916,2.916,0,0,0-1.281,2.272A1.144,1.144,0,0,1,27.1,23.1Zm0-8.246a2.174,2.174,0,0,1,1.147.324,1.909,1.909,0,0,1,.154,3.193,4.591,4.591,0,0,0-1.969,3.621.672.672,0,0,0,1.339-.006,3.408,3.408,0,0,1,1.481-2.672,3.1,3.1,0,0,0,1.278-2.487A3.138,3.138,0,0,0,29,14.166a3.584,3.584,0,0,0-1.893-.535,3.957,3.957,0,0,0-1.458.284,3.108,3.108,0,0,0-1.975,2.905v.005a.672.672,0,0,0,1.339-.005,1.912,1.912,0,0,1,1.168-1.784A2.5,2.5,0,0,1,27.1,14.852Z" transform="translate(-7.421 0.026)"/>
    <path id="패스_226" data-name="패스 226" d="M34.958,53.533a1.5,1.5,0,1,0,1.5,1.5,1.5,1.5,0,0,0-1.5-1.5" transform="translate(-15.146 -29.985)"/>
  </g>
</svg>
