<svg xmlns="http://www.w3.org/2000/svg" width="25.459" height="25.971" viewBox="0 0 25.459 25.971">
  <g id="그룹_11108" data-name="그룹 11108" transform="translate(-95.529 -280.828)">
    <g id="그룹_11090" data-name="그룹 11090">
      <path id="Icon_ionic-ios-send" data-name="Icon ionic-ios-send" d="M27.244,4.056,5.113,10.9a.526.526,0,0,0,.019.956l6.76,4.232a1,1,0,0,0,1.144-.112L23.906,7.856c.081-.069.275-.2.35-.125s-.044.269-.112.35L15.488,18.207a1,1,0,0,0-.1,1.194l5.029,6.892a.528.528,0,0,0,.95-.013L27.95,4.75A.526.526,0,0,0,27.244,4.056Z" transform="translate(92.988 276.826)" fill="#fff"/>
    </g>
    <path id="패스_12668" data-name="패스 12668" d="M92.917,301.766h3.8" transform="translate(-171.162 133.628) rotate(-41)" fill="none" stroke="#fff" stroke-linecap="round" stroke-width="2"/>
    <path id="패스_12670" data-name="패스 12670" d="M92.917,301.766h8.506" transform="translate(-170.43 138.601) rotate(-41)" fill="none" stroke="#fff" stroke-linecap="round" stroke-width="2"/>
    <path id="패스_12669" data-name="패스 12669" d="M92.917,301.766h1.142" transform="translate(-166.187 129.302) rotate(-41)" fill="none" stroke="#fff" stroke-linecap="round" stroke-width="2"/>
  </g>
</svg>
