<svg xmlns="http://www.w3.org/2000/svg" width="34.562" height="24" viewBox="0 0 34.562 24">
  <defs>
    <style>
      .cls-1 {
        fill: #fff;
      }
    </style>
  </defs>
  <path id="패스_12948" data-name="패스 12948" class="cls-1" d="M32.494,10.564V2.337A2.4,2.4,0,0,0,30.048,0H4.515A2.4,2.4,0,0,0,2.068,2.337v8.228H0V24H34.562V10.564ZM4.126,1.921h26.31v8.643h-2a4.037,4.037,0,0,1-.82,2.142H6.943a4.04,4.04,0,0,1-.82-2.142h-2Zm21.008,18.45H9.428c-.5,0-.909-.609-.909-1.363s.407-1.363.909-1.363H25.134c.5,0,.91.61.91,1.363s-.407,1.363-.91,1.363"/>
</svg>
