<svg xmlns="http://www.w3.org/2000/svg" width="17.618" height="18.419" viewBox="0 0 17.618 18.419">
  <g id="그룹_10720" data-name="그룹 10720" transform="translate(-142.582 3.553)">
    <path id="Icon_feather-paperclip" data-name="Icon feather-paperclip" d="M6.98,19.059A5.735,5.735,0,0,1,2.932,17.4a5.646,5.646,0,0,1,0-8.037l7.62-7.546a4.1,4.1,0,0,1,5.749,0,4.014,4.014,0,0,1,0,5.714L8.672,15.078a2.425,2.425,0,0,1-3.4,0,2.382,2.382,0,0,1,0-3.39l7.04-6.964A.75.75,0,0,1,13.365,5.79l-7.04,6.963a.882.882,0,0,0,0,1.258.92.92,0,0,0,1.291,0l7.629-7.547a2.514,2.514,0,0,0,0-3.582,2.593,2.593,0,0,0-3.638,0L3.987,10.43a4.146,4.146,0,0,0,0,5.906,4.266,4.266,0,0,0,5.984,0l7.62-7.546a.75.75,0,1,1,1.055,1.066L11.027,17.4A5.735,5.735,0,0,1,6.98,19.059Z" transform="translate(141.331 -4.193)"/>
  </g>
</svg>
