<svg xmlns="http://www.w3.org/2000/svg" xmlns:xlink="http://www.w3.org/1999/xlink" width="40" height="40" viewBox="0 0 40 40">
  <defs>
    <clipPath id="clip-path">
      <circle id="타원_970" data-name="타원 970" cx="20" cy="20" r="20" transform="translate(0 -4)" fill="#fff" stroke="#707070" stroke-width="1"/>
    </clipPath>
  </defs>
  <g id="그룹_11163" data-name="그룹 11163" transform="translate(-199 4)">
    <circle id="타원_971" data-name="타원 971" cx="20" cy="20" r="20" transform="translate(199 -4)" fill="#fff"/>
    <g id="마스크_그룹_19" data-name="마스크 그룹 19" transform="translate(199)" clip-path="url(#clip-path)">
      <path id="Icon_ionic-ios-person" data-name="Icon ionic-ios-person" d="M34.286,33.9c-.587-2.625-3.937-3.9-5.095-4.317a37.564,37.564,0,0,0-4.247-.825,4.292,4.292,0,0,1-1.965-.916c-.326-.4-.13-4.069-.13-4.069a12.3,12.3,0,0,0,.929-1.791,23.356,23.356,0,0,0,.685-3.128s.668,0,.9-1.189c.253-1.3.652-1.8.6-2.765-.049-.949-.562-.925-.562-.925a14.64,14.64,0,0,0,.554-4.235C26.037,6.343,23.412,3,18.659,3c-4.818,0-7.386,3.343-7.312,6.736a15.271,15.271,0,0,0,.546,4.235s-.514-.025-.562.925c-.049.966.351,1.469.6,2.765.228,1.189.9,1.189.9,1.189a23.356,23.356,0,0,0,.685,3.128,12.3,12.3,0,0,0,.929,1.791s.2,3.673-.13,4.069a4.292,4.292,0,0,1-1.965.916,37.564,37.564,0,0,0-4.247.825C6.953,29.992,3.6,31.272,3.016,33.9c-.09.413,10.883,3.622,11.307,3.622H25.963C26.379,37.519,34.376,34.31,34.286,33.9Z" transform="translate(1.349 -1.198)"/>
    </g>
  </g>
</svg>
