<svg xmlns="http://www.w3.org/2000/svg" width="9.673" height="12.5" viewBox="0 0 9.673 12.5">
  <g id="그룹_10744" data-name="그룹 10744" transform="translate(-492.72 -617.851)">
    <path id="패스_12581" data-name="패스 12581" d="M494.229,631a1,1,0,0,1-.722-.308l-3.836-4a1,1,0,0,1,1.443-1.384l3.115,3.247,3.115-3.247a1,1,0,0,1,1.443,1.384l-3.836,4A1,1,0,0,1,494.229,631Z" transform="translate(3.327 -0.649)" fill="#fff"/>
    <path id="패스_12582" data-name="패스 12582" d="M497.326,632.645a1,1,0,0,1-1-1V621.351a1,1,0,0,1,2,0v10.294A1,1,0,0,1,497.326,632.645Z" transform="translate(0.311 -2.5)" fill="#fff"/>
  </g>
</svg>
