<svg xmlns="http://www.w3.org/2000/svg" width="20" height="38" viewBox="0 0 20 38">
  <g id="그룹_11063" data-name="그룹 11063" transform="translate(-600 -726)">
    <g id="다각형_16" data-name="다각형 16" transform="translate(600 726)" fill="#ffe30a">
      <path d="M 14.85789966583252 17.68292045593262 C 14.77910041809082 17.68292045593262 14.70112037658691 17.66306114196777 14.62615013122559 17.6239013671875 L 10.69458961486816 15.56988143920898 C 10.48108005523682 15.45833110809326 10.24090003967285 15.39937114715576 10 15.39937114715576 C 9.759110450744629 15.39937114715576 9.518930435180664 15.45833110809326 9.305419921875 15.5698709487915 L 5.373849868774414 17.6239013671875 C 5.298880100250244 17.66306114196777 5.220900058746338 17.68292045593262 5.14208984375 17.68292045593262 C 4.997439861297607 17.68292045593262 4.853310108184814 17.61453056335449 4.756539821624756 17.49998092651367 C 4.68986988067627 17.42106056213379 4.617159843444824 17.28711128234863 4.649360179901123 17.09717178344727 L 5.389570236206055 12.73060131072998 C 5.471739768981934 12.24581146240234 5.310919761657715 11.75116062164307 4.959370136260986 11.4074010848999 L 1.791880011558533 8.3101806640625 C 1.652999997138977 8.17439079284668 1.605900049209595 7.983020782470703 1.665889978408813 7.798271179199219 C 1.725880026817322 7.613531112670898 1.876420021057129 7.486330986022949 2.068579912185669 7.45802116394043 L 6.455609798431396 6.811760902404785 C 6.941460132598877 6.740180969238281 7.361929893493652 6.434871196746826 7.580389976501465 5.995070934295654 L 9.552200317382812 2.02544093132019 C 9.638525009155273 1.851651668548584 9.805916786193848 1.747881054878235 9.999972343444824 1.747881054878235 C 9.999983787536621 1.747881054878235 9.999988555908203 1.747881054878235 10 1.747881054878235 C 10.19406986236572 1.747871041297913 10.36147022247314 1.851641058921814 10.44779968261719 2.02544093132019 L 12.41961002349854 5.995070934295654 C 12.63807010650635 6.434871196746826 13.05854034423828 6.740180969238281 13.54438018798828 6.811760902404785 L 17.93141937255859 7.45802116394043 C 18.12359046936035 7.486330986022949 18.27412986755371 7.613531112670898 18.33411026000977 7.798271179199219 C 18.39410018920898 7.983011245727539 18.34700012207031 8.17439079284668 18.20812034606934 8.31019115447998 L 15.04063034057617 11.4074010848999 C 14.68908023834229 11.75116062164307 14.52826023101807 12.24581146240234 14.61042976379395 12.7305908203125 L 15.35064029693604 17.09717178344727 C 15.38284015655518 17.28707122802734 15.31011009216309 17.4210319519043 15.24343967437744 17.49996185302734 C 15.14665985107422 17.61452102661133 15.00253009796143 17.68292045593262 14.85789966583252 17.68292045593262 Z" stroke="none"/>
      <path d="M 10 2.247871398925781 L 8.028189659118652 6.217491149902344 C 7.736920356750488 6.803911209106445 7.17628002166748 7.210981369018555 6.52847957611084 7.306421279907227 L 2.141454696655273 7.952680587768555 C 2.141452789306641 7.95268726348877 2.141450881958008 7.952692985534668 2.141439437866211 7.952691078186035 L 5.308930397033691 11.04991054534912 C 5.777669906616211 11.50825119018555 5.992099761962891 12.16778087615967 5.882530212402344 12.81416130065918 L 5.142319679260254 17.18073081970215 L 9.07388973236084 15.12671089172363 C 9.358559608459473 14.97798156738281 9.678810119628906 14.89937114715576 10 14.89937114715576 C 10.32118988037109 14.89937114715576 10.64144039154053 14.97798156738281 10.92611980438232 15.12671089172363 L 14.85765838623047 17.18072509765625 C 14.85766410827637 17.18071937561035 14.85767078399658 17.18071556091309 14.85767936706543 17.18073081970215 L 14.11746025085449 12.81416130065918 C 14.00790023803711 12.16778087615967 14.22233009338379 11.50825119018555 14.69107055664062 11.04991054534912 L 17.85854911804199 7.952691078186035 C 17.85854721069336 7.952688217163086 17.85854721069336 7.95268440246582 17.85855102539062 7.952680587768555 L 13.47150039672852 7.306421279907227 C 12.82373046875 7.210981369018555 12.26309967041016 6.803920745849609 11.97179985046387 6.217500686645508 L 10.00000953674316 2.247890472412109 C 10.00000667572021 2.247884750366211 10.00000286102295 2.24787712097168 10 2.247871398925781 M 10 1.247875213623047 C 10.35588264465332 1.247875213623047 10.71176528930664 1.432920455932617 10.89560031890869 1.803010940551758 L 12.86740016937256 5.772641181945801 C 13.01311016082764 6.065971374511719 13.2932300567627 6.269360542297363 13.61725997924805 6.31710147857666 L 18.0042896270752 6.963360786437988 C 18.82266998291016 7.083921432495117 19.14912986755371 8.089350700378418 18.55768966674805 8.667671203613281 L 15.39019966125488 11.76490116119385 C 15.15575981140137 11.994140625 15.04860019683838 12.32375144958496 15.10340023040771 12.6470308303833 L 15.84360980987549 17.01360130310059 C 15.98177909851074 17.82871055603027 15.12738990783691 18.44989013671875 14.39461994171143 18.06706047058105 L 10.46306037902832 16.01304054260254 C 10.17295932769775 15.86148071289062 9.82705020904541 15.86148166656494 9.53693962097168 16.01304054260254 L 5.605380058288574 18.06706047058105 C 4.872612953186035 18.44989013671875 4.018210411071777 17.82872200012207 4.156390190124512 17.01360130310059 L 4.896599769592285 12.6470308303833 C 4.951399803161621 12.32375144958496 4.844240188598633 11.994140625 4.609800338745117 11.76490116119385 L 1.442310333251953 8.667680740356445 C 0.8508701324462891 8.089350700378418 1.177330017089844 7.083921432495117 1.995710372924805 6.963360786437988 L 6.382740020751953 6.31710147857666 C 6.706769943237305 6.269360542297363 6.986889839172363 6.065971374511719 7.132590293884277 5.772641181945801 L 9.104399681091309 1.803010940551758 C 9.288234710693359 1.432920455932617 9.64411735534668 1.247875213623047 10 1.247875213623047 Z" stroke="none" fill="#efb700"/>
    </g>
    <g id="다각형_17" data-name="다각형 17" transform="translate(600 745)" fill="#fff">
      <path d="M 14.85789966583252 17.68292045593262 C 14.77910041809082 17.68292045593262 14.70112037658691 17.66306114196777 14.62615013122559 17.6239013671875 L 10.69458961486816 15.56988143920898 C 10.48108005523682 15.45833110809326 10.24090003967285 15.39937114715576 10 15.39937114715576 C 9.759110450744629 15.39937114715576 9.518930435180664 15.45833110809326 9.305419921875 15.5698709487915 L 5.373849868774414 17.6239013671875 C 5.298880100250244 17.66306114196777 5.220900058746338 17.68292045593262 5.14208984375 17.68292045593262 C 4.997439861297607 17.68292045593262 4.853310108184814 17.61453056335449 4.756539821624756 17.49998092651367 C 4.68986988067627 17.42106056213379 4.617159843444824 17.28711128234863 4.649360179901123 17.09717178344727 L 5.389570236206055 12.73060131072998 C 5.471739768981934 12.24581146240234 5.310919761657715 11.75116062164307 4.959370136260986 11.4074010848999 L 1.791880011558533 8.3101806640625 C 1.652999997138977 8.17439079284668 1.605900049209595 7.983020782470703 1.665889978408813 7.798271179199219 C 1.725880026817322 7.613531112670898 1.876420021057129 7.486330986022949 2.068579912185669 7.45802116394043 L 6.455609798431396 6.811760902404785 C 6.941460132598877 6.740180969238281 7.361929893493652 6.434871196746826 7.580389976501465 5.995070934295654 L 9.552200317382812 2.02544093132019 C 9.638525009155273 1.851651668548584 9.805916786193848 1.747881054878235 9.999972343444824 1.747881054878235 C 9.999983787536621 1.747881054878235 9.999988555908203 1.747881054878235 10 1.747881054878235 C 10.19406986236572 1.747871041297913 10.36147022247314 1.851641058921814 10.44779968261719 2.02544093132019 L 12.41961002349854 5.995070934295654 C 12.63807010650635 6.434871196746826 13.05854034423828 6.740180969238281 13.54438018798828 6.811760902404785 L 17.93141937255859 7.45802116394043 C 18.12359046936035 7.486330986022949 18.27412986755371 7.613531112670898 18.33411026000977 7.798271179199219 C 18.39410018920898 7.983011245727539 18.34700012207031 8.17439079284668 18.20812034606934 8.31019115447998 L 15.04063034057617 11.4074010848999 C 14.68908023834229 11.75116062164307 14.52826023101807 12.24581146240234 14.61042976379395 12.7305908203125 L 15.35064029693604 17.09717178344727 C 15.38284015655518 17.28707122802734 15.31011009216309 17.4210319519043 15.24343967437744 17.49996185302734 C 15.14665985107422 17.61452102661133 15.00253009796143 17.68292045593262 14.85789966583252 17.68292045593262 Z" stroke="none"/>
      <path d="M 10 2.247871398925781 L 8.028189659118652 6.217491149902344 C 7.736920356750488 6.803911209106445 7.17628002166748 7.210981369018555 6.52847957611084 7.306421279907227 L 2.141454696655273 7.952680587768555 C 2.141452789306641 7.95268726348877 2.141450881958008 7.952692985534668 2.141439437866211 7.952691078186035 L 5.308930397033691 11.04991054534912 C 5.777669906616211 11.50825119018555 5.992099761962891 12.16778087615967 5.882530212402344 12.81416130065918 L 5.142319679260254 17.18073081970215 L 9.07388973236084 15.12671089172363 C 9.358559608459473 14.97798156738281 9.678810119628906 14.89937114715576 10 14.89937114715576 C 10.32118988037109 14.89937114715576 10.64144039154053 14.97798156738281 10.92611980438232 15.12671089172363 L 14.85765838623047 17.18072509765625 C 14.85766410827637 17.18071937561035 14.85767078399658 17.18071556091309 14.85767936706543 17.18073081970215 L 14.11746025085449 12.81416130065918 C 14.00790023803711 12.16778087615967 14.22233009338379 11.50825119018555 14.69107055664062 11.04991054534912 L 17.85854911804199 7.952691078186035 C 17.85854721069336 7.952688217163086 17.85854721069336 7.95268440246582 17.85855102539062 7.952680587768555 L 13.47150039672852 7.306421279907227 C 12.82373046875 7.210981369018555 12.26309967041016 6.803920745849609 11.97179985046387 6.217500686645508 L 10.00000953674316 2.247890472412109 C 10.00000667572021 2.247884750366211 10.00000286102295 2.24787712097168 10 2.247871398925781 M 10 1.247875213623047 C 10.35588264465332 1.247875213623047 10.71176528930664 1.432920455932617 10.89560031890869 1.803010940551758 L 12.86740016937256 5.772641181945801 C 13.01311016082764 6.065971374511719 13.2932300567627 6.269360542297363 13.61725997924805 6.31710147857666 L 18.0042896270752 6.963360786437988 C 18.82266998291016 7.083921432495117 19.14912986755371 8.089350700378418 18.55768966674805 8.667671203613281 L 15.39019966125488 11.76490116119385 C 15.15575981140137 11.994140625 15.04860019683838 12.32375144958496 15.10340023040771 12.6470308303833 L 15.84360980987549 17.01360130310059 C 15.98177909851074 17.82871055603027 15.12738990783691 18.44989013671875 14.39461994171143 18.06706047058105 L 10.46306037902832 16.01304054260254 C 10.17295932769775 15.86148071289062 9.82705020904541 15.86148166656494 9.53693962097168 16.01304054260254 L 5.605380058288574 18.06706047058105 C 4.872612953186035 18.44989013671875 4.018210411071777 17.82872200012207 4.156390190124512 17.01360130310059 L 4.896599769592285 12.6470308303833 C 4.951399803161621 12.32375144958496 4.844240188598633 11.994140625 4.609800338745117 11.76490116119385 L 1.442310333251953 8.667680740356445 C 0.8508701324462891 8.089350700378418 1.177330017089844 7.083921432495117 1.995710372924805 6.963360786437988 L 6.382740020751953 6.31710147857666 C 6.706769943237305 6.269360542297363 6.986889839172363 6.065971374511719 7.132590293884277 5.772641181945801 L 9.104399681091309 1.803010940551758 C 9.288234710693359 1.432920455932617 9.64411735534668 1.247875213623047 10 1.247875213623047 Z" stroke="none" fill="#e0e0e0"/>
    </g>
  </g>
</svg>
