<svg xmlns="http://www.w3.org/2000/svg" width="16.499" height="16.501" viewBox="0 0 16.499 16.501">
  <defs>
    <style>
      .cls-1 {
        fill: #fff;
      }
    </style>
  </defs>
  <g id="그룹_10741" data-name="그룹 10741" transform="translate(0.25 0.25)">
    <path id="패스_12578" data-name="패스 12578" class="cls-1" d="M15.846,15.081l-1.407-1.408-2.245-2.246-.153-.153a6.936,6.936,0,0,0,.518-.684,6.843,6.843,0,0,0-.174-7.76A7.343,7.343,0,0,0,11.678,2,6.818,6.818,0,0,0,8.027.1a6.982,6.982,0,0,0-4.108.55A6.829,6.829,0,0,0,.03,7.444,6.942,6.942,0,0,0,1.667,11.31a6.829,6.829,0,0,0,7.544,1.944,6.993,6.993,0,0,0,2.065-1.218l1.045,1.046,2.244,2.245.517.517a.54.54,0,0,0,.763-.764M10.367,11.4l-.007.005h0l-.005,0-.01.007-.009.006-.026.02q-.084.062-.169.121-.164.113-.335.216a6.215,6.215,0,0,1-.7.362l-.017.007.021-.009a.635.635,0,0,1-.067.029l.025-.011.021-.009-.078.032q-.1.039-.2.075-.208.074-.421.133a6.468,6.468,0,0,1-.779.164l.063-.008-.143.019.08-.011a6.428,6.428,0,0,1-1.535,0l.075.011-.144-.019.068.009a6.34,6.34,0,0,1-1.419-.378L4.6,12.149l.029.013.011.005-.078-.033.012,0,.026.01-.009,0q-.093-.041-.184-.084c-.118-.056-.235-.117-.35-.18a6.241,6.241,0,0,1-.67-.431c-.013-.009-.086-.052-.089-.067l0,0q-.079-.063-.156-.128-.156-.133-.3-.276a6.36,6.36,0,0,1-.551-.607l-.01-.013,0,0-.005-.007h0l0-.005-.007-.01-.006-.008-.02-.027c-.041-.055-.082-.112-.121-.169-.075-.109-.147-.221-.215-.335a6.247,6.247,0,0,1-.361-.7l-.007-.015.008.02a.636.636,0,0,1-.029-.067l.011.025.009.022L1.5,9.007q-.039-.1-.075-.2-.074-.208-.133-.421A6.429,6.429,0,0,1,1.127,7.6c0,.022.005.043.008.064l-.019-.144.011.079a6.44,6.44,0,0,1,0-1.536c0,.026-.008.051-.011.076L1.135,6c0,.022-.006.045-.008.067A6.347,6.347,0,0,1,1.5,4.651l.025-.062-.013.029,0,.011c0-.013.048-.114.028-.066l-.007.017c.027-.062.055-.123.084-.184q.085-.178.18-.35a6.341,6.341,0,0,1,.43-.67c.009-.013.052-.086.067-.089l0,0q.063-.079.128-.156.133-.156.276-.3A6.4,6.4,0,0,1,3.3,2.28l.006,0-.007,0,.007-.005.061-.046c.056-.041.112-.081.169-.121q.164-.113.335-.216a6.263,6.263,0,0,1,.7-.362l.018-.008-.023.009-.011,0L4.636,1.5l-.025.011-.019.008.077-.031c.066-.026.133-.051.2-.075.139-.049.279-.094.421-.133a6.276,6.276,0,0,1,.777-.164l-.061.007.1-.014-.042.006a6.436,6.436,0,0,1,1.546,0L7.53,1.108l.143.019-.06-.007a6.339,6.339,0,0,1,1.41.377l.031.012L9.045,1.5c-.006,0,.075.031.079.033l-.013-.005-.017-.007c.062.027.123.055.184.084q.178.085.35.18a6.339,6.339,0,0,1,.67.431c.013.01.087.051.089.067l-.061-.047.018.014.044.035q.088.07.173.143.183.157.353.328.146.146.282.3c.043.05.086.1.128.15l.062.076.035.044.014.018-.041-.053a4.489,4.489,0,0,1,.437.656q.1.171.187.348.042.085.082.171l.039.086.022.049.008.017c0-.013-.021-.051-.028-.066a4.311,4.311,0,0,1,.251.729,6.375,6.375,0,0,1,.164.78q0-.032-.008-.063.01.072.019.143c0-.027-.007-.054-.011-.08a6.426,6.426,0,0,1,0,1.542c0-.027.008-.055.012-.082q-.01.072-.019.144c0-.021.005-.041.008-.061a6.321,6.321,0,0,1-.377,1.412l-.026.065.014-.032.005-.012c0,.007-.027.065-.032.077l0-.011.007-.017c-.027.062-.055.123-.084.184-.056.118-.116.235-.18.35a6.289,6.289,0,0,1-.431.67c-.009.013-.052.086-.067.089l0,0c-.042.053-.084.1-.128.156q-.133.156-.276.3l-.049.05-.022.022,0,0a6.414,6.414,0,0,1-.535.478l-.013.01,0,0" transform="translate(0 0)"/>
    <path id="패스_12578_-_윤곽선" data-name="패스 12578 - 윤곽선" class="cls-1" d="M15.473,16.251h0a.8.8,0,0,1-.567-.229l-.517-.517-2.244-2.246-.885-.885A7.229,7.229,0,0,1,9.3,13.488a6.91,6.91,0,0,1-2.45.439,7.217,7.217,0,0,1-1.724-.208,7.06,7.06,0,0,1-3.648-2.247,7.189,7.189,0,0,1-1.7-4A7.079,7.079,0,0,1,3.814.421,7.181,7.181,0,0,1,6.854-.25a7.383,7.383,0,0,1,1.214.1,7.076,7.076,0,0,1,3.786,1.968,7.546,7.546,0,0,1,.733.863,7.093,7.093,0,0,1,.181,8.046c-.121.182-.251.36-.388.531L14.615,13.5l.938.939.469.469a.8.8,0,0,1,.007,1.11A.754.754,0,0,1,15.473,16.251ZM11.29,11.7l.231.231.978.978,2.244,2.246.517.517a.306.306,0,0,0,.214.083.255.255,0,0,0,.188-.075.3.3,0,0,0,.007-.418l-.469-.469-.938-.938L11.7,11.288l.151-.176a6.713,6.713,0,0,0,.5-.66,6.593,6.593,0,0,0-.167-7.473,7.051,7.051,0,0,0-.684-.806A6.572,6.572,0,0,0,7.986.344,6.883,6.883,0,0,0,6.854.25a6.684,6.684,0,0,0-2.83.625A6.579,6.579,0,0,0,.279,7.42a6.691,6.691,0,0,0,1.578,3.727,6.555,6.555,0,0,0,3.388,2.086,6.716,6.716,0,0,0,1.6.194,6.412,6.412,0,0,0,2.274-.407,6.727,6.727,0,0,0,1.991-1.174ZM6.842,12.848a6.723,6.723,0,0,1-.722-.039v0l-.146-.02v0a6.591,6.591,0,0,1-1.408-.383L4.55,12.4h0c-.018-.007-.084-.035-.1-.043h0L4.3,12.287c-.124-.059-.246-.122-.364-.188a6.511,6.511,0,0,1-.693-.445l-.008-.005a.561.561,0,0,1-.118-.092c-.044-.035-.088-.072-.132-.11-.106-.09-.212-.187-.315-.286a6.631,6.631,0,0,1-.571-.63l-.011-.014h0l0,0-.056-.065v-.011c-.036-.048-.074-.1-.114-.16-.08-.116-.155-.233-.224-.349a6.526,6.526,0,0,1-.363-.7.678.678,0,0,1-.046-.105h0L1.267,9.1c-.026-.067-.052-.135-.078-.209-.052-.146-.1-.293-.138-.438A6.686,6.686,0,0,1,.889,7.7h0l-.02-.144h0a6.7,6.7,0,0,1,0-1.446h0l.019-.143h0a6.6,6.6,0,0,1,.383-1.411l.006-.015h0a.721.721,0,0,1,.046-.105c.022-.05.045-.1.069-.149.058-.122.121-.244.187-.364a6.616,6.616,0,0,1,.445-.694l.005-.008A.56.56,0,0,1,2.121,3.1c.036-.044.073-.089.11-.132.089-.1.185-.211.286-.315a6.67,6.67,0,0,1,.632-.573l0,0,.045.054-.042-.057.067-.051c.054-.04.109-.08.177-.126.111-.077.228-.152.348-.224a6.544,6.544,0,0,1,.69-.36h0c.024-.013.1-.047.121-.052h0l.021-.008c.072-.028.142-.055.209-.078.149-.053.3-.1.438-.138a6.537,6.537,0,0,1,.75-.162v0l.1-.014h0a6.714,6.714,0,0,1,1.486,0v0h0L7.7.878h0v0a6.591,6.591,0,0,1,1.41.384h0a.643.643,0,0,1,.126.053l.143.066c.123.059.245.122.363.187a6.611,6.611,0,0,1,.693.445l.008,0a.52.52,0,0,1,.122.095c.05.041.1.083.151.126.126.109.249.223.368.342.1.1.2.2.293.312.046.052.09.1.133.157l.006.007.058.071,0,0h0a4.69,4.69,0,0,1,.463.693c.067.115.132.237.194.362.03.061.059.121.085.178l.037.081h0a4.573,4.573,0,0,1,.268.772,6.631,6.631,0,0,1,.161.749h0v.008l.018.136h0a6.687,6.687,0,0,1,0,1.446h0l-.017.128v0l0,.014h0a6.574,6.574,0,0,1-.383,1.408l0,.012h0c-.007.021-.038.092-.04.1h0c-.026.059-.051.113-.075.163-.06.126-.123.248-.187.363a6.562,6.562,0,0,1-.445.694l-.005.008a.558.558,0,0,1-.092.118c-.034.043-.07.086-.11.132-.09.106-.187.212-.286.315l-.017.018-.034.035-.018.019,0,.005a6.686,6.686,0,0,1-.555.5l-.014.011-.013-.016.012.017-.076.057c-.051.038-.105.076-.16.114-.116.079-.233.155-.349.224a6.488,6.488,0,0,1-.708.368.668.668,0,0,1-.1.042h0l-.027.011q-.1.041-.208.078c-.147.052-.294.1-.438.139a6.725,6.725,0,0,1-.749.161v0l-.146.02v0A6.693,6.693,0,0,1,6.842,12.848ZM6.109,12.3a6.206,6.206,0,0,0,1.469,0,6.24,6.24,0,0,0,.746-.157c.133-.037.269-.08.4-.128.064-.023.129-.047.193-.072l.048-.02.038-.016a5.98,5.98,0,0,0,.67-.347c.107-.064.216-.134.322-.207.054-.038.109-.077.161-.116l.021-.016.029-.022h0l.011-.008a6.184,6.184,0,0,0,.508-.453l.012-.012.015-.015.051-.052c.091-.094.18-.192.264-.291.045-.052.084-.1.122-.149l.189.13-.043-.216a.225.225,0,0,0-.129.073c.008-.01.016-.024.022-.034l.022-.033a6.051,6.051,0,0,0,.413-.643c.059-.106.117-.219.173-.336.026-.054.052-.112.081-.176h0l.025-.062a6.079,6.079,0,0,0,.362-1.354,6.184,6.184,0,0,0,0-1.476,6.147,6.147,0,0,0-.157-.746,4.474,4.474,0,0,0-.214-.641h0l0,.008L11.929,4.7l-.019-.045-.038-.085q-.038-.082-.078-.163c-.058-.116-.118-.228-.179-.334a4.715,4.715,0,0,0-.365-.564h0l-.024-.029-.033-.042-.054-.066-.006-.007c-.04-.049-.081-.1-.123-.145-.086-.1-.177-.2-.27-.287-.11-.11-.224-.216-.34-.316-.055-.047-.111-.093-.166-.137l-.044-.035-.017-.013-.021-.014h0a6.109,6.109,0,0,0-.644-.414c-.108-.06-.221-.118-.336-.173-.057-.028-.115-.054-.177-.081h0l-.034-.014h0l-.026-.01A6.1,6.1,0,0,0,7.58,1.367a6.215,6.215,0,0,0-1.479,0,6.051,6.051,0,0,0-.743.157c-.131.036-.267.079-.4.128-.061.022-.126.046-.193.072l-.043.017-.033.013h0l-.009,0A6.039,6.039,0,0,0,4,2.106c-.11.067-.219.136-.321.207-.063.043-.114.08-.162.116l-.058.044a6.181,6.181,0,0,0-.586.532c-.093.1-.182.194-.265.292-.042.049-.084.1-.123.149L2.3,3.308l.042.225a.226.226,0,0,0,.132-.074c-.008.01-.016.024-.023.034l-.022.032a6.105,6.105,0,0,0-.413.643c-.061.111-.12.224-.173.336-.028.059-.055.117-.081.177h0v0h0l-.023.057A6.1,6.1,0,0,0,1.375,6.1a6.2,6.2,0,0,0,0,1.47,6.2,6.2,0,0,0,.157.747c.037.134.08.27.128.4.023.064.047.129.072.193l.02.048L1.766,9a6.036,6.036,0,0,0,.348.675c.064.107.134.215.207.322.041.059.078.112.115.161l.018.024.02.027h0l.008.011a6.129,6.129,0,0,0,.529.583c.1.092.194.182.292.265.05.043.1.084.149.123l-.114.185.2-.041a.226.226,0,0,0-.073-.128c.01.008.024.016.034.023l.032.022a6,6,0,0,0,.642.413c.109.06.222.119.336.173.058.027.116.054.174.08l.005,0h0l.058.024A6.1,6.1,0,0,0,6.109,12.3Z" transform="translate(0 0)"/>
    <path id="패스_12579" data-name="패스 12579" class="cls-1" d="M4.066,8.53l-.044,0a.5.5,0,0,1-.455-.542,4.9,4.9,0,0,1,2.3-3.79,6.419,6.419,0,0,1,2.107-.88.5.5,0,0,1,.255.966A.562.562,0,0,1,8.17,4.3a5.43,5.43,0,0,0-1.759.738A3.878,3.878,0,0,0,4.564,8.073.5.5,0,0,1,4.066,8.53Z" transform="translate(-1.027 -0.944)"/>
  </g>
</svg>
