<svg xmlns="http://www.w3.org/2000/svg" width="18.5" height="16.5" viewBox="0 0 18.5 16.5">
  <g id="그룹_10729" data-name="그룹 10729" transform="translate(0.054 1.094)">
    <path id="패스_12575" data-name="패스 12575" d="M9.5,1,1,6.959H3.835V15H7.671V11.287A1.769,1.769,0,0,1,9.5,9.585a1.769,1.769,0,0,1,1.829,1.7V15h3.836V6.959H18Z" transform="translate(-0.304 -0.344)" fill="#fff"/>
    <path id="패스_12576" data-name="패스 12576" d="M9.5-.75a.749.749,0,0,1,.475.17l8.5,6.959A.75.75,0,0,1,18,7.709H15.915V15a.75.75,0,0,1-.75.75H11.329a.75.75,0,0,1-.75-.75V11.287A1.023,1.023,0,0,0,9.5,10.335a1.023,1.023,0,0,0-1.079.952V15a.75.75,0,0,1-.75.75H3.835a.75.75,0,0,1-.75-.75V7.709H1a.75.75,0,0,1-.475-1.33L9.025-.58A.749.749,0,0,1,9.5-.75Zm6.4,6.959L9.5.969,3.1,6.209h.735a.75.75,0,0,1,.75.75V14.25H6.921V11.287A2.521,2.521,0,0,1,9.5,8.835a2.521,2.521,0,0,1,2.579,2.452V14.25h2.336V6.959a.75.75,0,0,1,.75-.75Z" transform="translate(-0.304 -0.344)" fill="#1d1d1b"/>
  </g>
</svg>
