<svg xmlns="http://www.w3.org/2000/svg" width="29.001" height="26.088" viewBox="0 0 29.001 26.088">
  <path id="Icon_ionic-ios-bookmarks" data-name="Icon ionic-ios-bookmarks" d="M26.876,2V9.994l-1.485-.906-.59-.4-.59.4-1.485.906V2H19.043c-1.459.013-1.632,1.175-1.632,2.588V22.163a.91.91,0,0,1-.862.9.9.9,0,0,1-.953-.875V4.588A2.626,2.626,0,0,0,12.964,2H5.072C3.108,2,2.5,3.55,2.5,5.444V21.556C2.5,23.45,3.108,25,5.072,25l8-.006a4.634,4.634,0,0,1,.791.087,2.08,2.08,0,0,1,1.724,2.013.908.908,0,0,0,1.815.019,2.094,2.094,0,0,1,1.744-2.031A4.486,4.486,0,0,1,19.926,25l8,.006A3.52,3.52,0,0,0,31.5,21.563V5.444c0-1.237.069-2.713-1.557-3.444A15.667,15.667,0,0,0,26.876,2Z" transform="translate(-2.5 -1.911)" fill="#fff"/>
</svg>
