<svg xmlns="http://www.w3.org/2000/svg" width="94" height="42" viewBox="0 0 94 42">
  <g id="그룹_11022" data-name="그룹 11022" transform="translate(-1557 -801)">
    <g id="Favorite_On" transform="translate(1609 801)">
      <circle id="타원_958" data-name="타원 958" cx="21" cy="21" r="21" fill="#ffc400"/>
      <path id="다각형_13" data-name="다각형 13" d="M11.61,1.74a1,1,0,0,1,1.78,0l2.95,5.765a1,1,0,0,0,.7.527l6.2,1.183A1,1,0,0,1,23.8,10.87l-4.414,4.853a1,1,0,0,0-.252.8l.851,6.6a1,1,0,0,1-1.444,1.02l-5.588-2.831a1,1,0,0,0-.9,0L6.46,24.146a1,1,0,0,1-1.444-1.02l.851-6.6a1,1,0,0,0-.252-.8L1.2,10.87a1,1,0,0,1,.552-1.655l6.2-1.183a1,1,0,0,0,.7-.527Z" transform="translate(8.5 8.5)" fill="#fff" stroke="#ffba4b" stroke-linecap="round" stroke-linejoin="round" stroke-width="1"/>
    </g>
    <g id="Favorite_Off" transform="translate(1557 801)">
      <g id="타원_958-2" data-name="타원 958" fill="#fff" stroke="#ffba4b" stroke-width="2">
        <circle cx="21" cy="21" r="21" stroke="none"/>
        <circle cx="21" cy="21" r="20" fill="none"/>
      </g>
      <path id="다각형_13-2" data-name="다각형 13" d="M11.61,1.74a1,1,0,0,1,1.78,0l2.95,5.765a1,1,0,0,0,.7.527l6.2,1.183A1,1,0,0,1,23.8,10.87l-4.414,4.853a1,1,0,0,0-.252.8l.851,6.6a1,1,0,0,1-1.444,1.02l-5.588-2.831a1,1,0,0,0-.9,0L6.46,24.146a1,1,0,0,1-1.444-1.02l.851-6.6a1,1,0,0,0-.252-.8L1.2,10.87a1,1,0,0,1,.552-1.655l6.2-1.183a1,1,0,0,0,.7-.527Z" transform="translate(8.5 8.5)" fill="#fff" stroke="#ffba4b" stroke-linecap="round" stroke-linejoin="round" stroke-width="1.5"/>
    </g>
  </g>
</svg>
