<svg id="그룹_11158" data-name="그룹 11158" xmlns="http://www.w3.org/2000/svg" width="45" height="45" viewBox="0 0 45 45">
  <defs>
    <style>
      .cls-1 {
        fill: #e6ad2b;
      }

      .cls-2 {
        fill: #fdbf00;
      }

      .cls-3 {
        fill: #ffda2d;
      }

      .cls-4 {
        fill: #fff;
      }

      .cls-5 {
        fill: #d8dfe3;
      }
    </style>
  </defs>
  <path id="패스_12699" data-name="패스 12699" class="cls-1" d="M0,92.416l3.326,3.75,6.457,1.779,1.435-7.486-1.435-7.4Z" transform="translate(0 -70.894)"/>
  <path id="패스_12700" data-name="패스 12700" class="cls-1" d="M231.108,90.459l1.37,7.486,5.87-1.257,3.913-4.272-9.783-9.357Z" transform="translate(-197.26 -70.893)"/>
  <path id="패스_12701" data-name="패스 12701" class="cls-2" d="M22.5,221.248l-3.8-2.15-.11.194L8.87,223.824,0,232.009H45l-8.739-8.446-9.848-4.272-.11-.194Z" transform="translate(0 -187.009)"/>
  <path id="패스_12702" data-name="패스 12702" class="cls-3" d="M188.51,152.476l-5.217,1.531-3.7,3.507.11.194,18.587,12.717V146.947Z" transform="translate(-153.293 -125.425)"/>
  <path id="패스_12703" data-name="패스 12703" class="cls-3" d="M0,170.425l18.587-12.717.11-.194-4.479-4.209-4.435-.83L0,146.947Z" transform="translate(0 -125.425)"/>
  <g id="그룹_11157" data-name="그룹 11157">
    <g id="그룹_11159" data-name="그룹 11159">
      <path id="패스_12704" data-name="패스 12704" class="cls-4" d="M97.95,25.014c-.213.1-16.162,9.187-16.176,9.193-.13-.06-14.936-8.352-14.949-8.358L66.794,0H97.84Z" transform="translate(-59.166)"/>
      <path id="패스_12705" data-name="패스 12705" class="cls-5" d="M110.142,55.392H94.49a.978.978,0,0,1,0-1.957h15.652a.978.978,0,0,1,0,1.957" transform="translate(-79.816 -45.609)"/>
      <path id="패스_12706" data-name="패스 12706" class="cls-5" d="M110.142,88.789H94.49a.978.978,0,0,1,0-1.957h15.652a.978.978,0,0,1,0,1.957" transform="translate(-79.816 -74.115)"/>
      <path id="패스_12707" data-name="패스 12707" class="cls-5" d="M110.142,122.186H94.49a.978.978,0,0,1,0-1.957h15.652a.978.978,0,0,1,0,1.957" transform="translate(-79.816 -102.62)"/>
      <path id="패스_12708" data-name="패스 12708" class="cls-5" d="M110.142,155.583H94.49a.978.978,0,0,1,0-1.957h15.652a.978.978,0,0,1,0,1.957" transform="translate(-79.816 -131.126)"/>
    </g>
  </g>
</svg>
