<svg xmlns="http://www.w3.org/2000/svg" width="24" height="25.347" viewBox="0 0 24 25.347">
  <path id="Icon_awesome-clipboard-list" data-name="Icon awesome-clipboard-list" d="M19.624,3.168H13.168a3.168,3.168,0,1,0-6.337,0H.376A2.377,2.377,0,0,0-2,5.545V22.971A2.377,2.377,0,0,0,.376,25.347H19.624A2.377,2.377,0,0,0,22,22.971V5.545A2.377,2.377,0,0,0,19.624,3.168ZM2.753,20.991A1.188,1.188,0,1,1,3.941,19.8,1.185,1.185,0,0,1,2.753,20.991Zm0-4.753A1.188,1.188,0,1,1,3.941,15.05,1.185,1.185,0,0,1,2.753,16.238Zm0-4.753A1.188,1.188,0,1,1,3.941,10.3,1.185,1.185,0,0,1,2.753,11.485ZM10,1.98A1.188,1.188,0,1,1,8.812,3.168,1.185,1.185,0,0,1,10,1.98ZM17.584,20.2a.4.4,0,0,1-.4.4H6.317a.4.4,0,0,1-.4-.4v-.792a.4.4,0,0,1,.4-.4H17.188a.4.4,0,0,1,.4.4Zm0-4.753a.4.4,0,0,1-.4.4H6.317a.4.4,0,0,1-.4-.4v-.792a.4.4,0,0,1,.4-.4H17.188a.4.4,0,0,1,.4.4Zm0-4.753a.4.4,0,0,1-.4.4H6.317a.4.4,0,0,1-.4-.4V9.9a.4.4,0,0,1,.4-.4H17.188a.4.4,0,0,1,.4.4Z" transform="translate(2)" fill="#fdfdfd"/>
</svg>
