<svg xmlns="http://www.w3.org/2000/svg" width="163" height="157" viewBox="0 0 163 157"><g transform="translate(-932 -384)"><g transform="translate(932 384)"><path d="M261.018,75.582A75.591,75.591,0,1,1,185.428,0a75.585,75.585,0,0,1,75.591,75.58" transform="translate(-98.018 -0.002)" fill="#e6e8f2"/><path d="M106.96,464.767a10.538,10.538,0,0,1-7.32,7.694L35.885,490.981A10.546,10.546,0,0,1,22.817,483.8L.422,406.725a10.543,10.543,0,0,1,7.184-13.066l39.873-11.583,23.881-6.937a10.545,10.545,0,0,1,13.068,7.184l22.4,77.072a10.489,10.489,0,0,1,.137,5.373" transform="translate(0 -334.403)" fill="#cacee0"/><path d="M467.991,464.767,414.505,461.7a10.543,10.543,0,0,1-9.924-11.13l3.929-68.494,23.881-6.937a10.545,10.545,0,0,1,13.068,7.184l22.4,77.072a10.489,10.489,0,0,1,.137,5.373" transform="translate(-361.031 -334.403)" fill="#848baa"/><path d="M481.773,332.349H415.382a10.544,10.544,0,0,1-10.545-10.544v-80.26A10.544,10.544,0,0,1,415.382,231h66.391a10.544,10.544,0,0,1,10.545,10.543v80.26a10.544,10.544,0,0,1-10.545,10.544" transform="translate(-361.276 -206.149)" fill="#fff"/><path d="M971.72,888.537l.655.781c-.086.088-.173.177-.263.265q-.878.878-1.85,1.692t-1.986,1.531c-.154.105-.308.212-.462.316-.052.034-.1.07-.156.1l-.63-.752-.36-.429-.359-.428c.154-.1.308-.211.462-.316q1.02-.721,1.986-1.531t1.85-1.692c.135-.132.265-.266.393-.4l.363.431Z" transform="translate(-862.332 -792.174)" fill="#e6e6e6"/><path d="M1036.749,966.231l-.746.626-3.946,3.311-2.43-2.892-.357-.427-.358-.428-3.483-4.151.152-.108c.152-.106.3-.216.454-.325q1-.736,1.973-1.546t1.865-1.677c.089-.085.178-.171.267-.259l3.466,4.13.356.427.359.425,1.8,2.147Z" transform="translate(-915.09 -855.25)" fill="#dadce6"/><path d="M1062.762,1020.507l-21.683-25.837a2.154,2.154,0,0,1,.266-3.034l7.578-6.357a2.154,2.154,0,0,1,3.035.265l21.683,25.837a5.041,5.041,0,0,1-.622,7.1l-3.152,2.644a5.043,5.043,0,0,1-7.1-.622" transform="translate(-928.607 -878.826)" fill="#848baa"/><path d="M989.412,909.889c-.088.088-.177.174-.267.259q-.9.864-1.865,1.677t-1.974,1.546c-.151.109-.3.219-.454.325l-.152.108-1.827-2.176-.359-.428-.36-.429-3.3-3.927c.053-.033.1-.069.156-.1l.462-.316q1.02-.721,1.986-1.531t1.85-1.692c.089-.088.176-.176.262-.265l3.273,3.9.358.428.362.429Z" transform="translate(-873.531 -805.792)" fill="#848baa"/><path d="M537.3,370.016a36.889,36.889,0,1,0-7.432,54.158c.154-.1.307-.211.459-.319s.3-.217.453-.325q1-.736,1.974-1.546t1.864-1.677c.134-.128.268-.256.4-.39s.264-.262.394-.4a36.882,36.882,0,0,0,1.888-49.5m-46.99,1.393a29.135,29.135,0,0,1,40.085,42.134c-.126.136-.254.272-.386.406s-.258.268-.392.4q-.878.878-1.85,1.692t-1.986,1.531c-.154.106-.307.213-.461.317s-.311.207-.467.309a29.136,29.136,0,0,1-34.543-46.79" transform="translate(-421.34 -318.447)" fill="#dadce6"/><path d="M591.493,434.353a29.691,29.691,0,1,0-6.573,43.986c.158-.1.311-.207.467-.311s.307-.209.459-.319q1.017-.715,1.988-1.529t1.852-1.69c.132-.132.264-.266.394-.4s.258-.27.386-.406a29.692,29.692,0,0,0,1.026-39.333m-1.389,38.9c-.126.136-.254.272-.386.406s-.258.268-.392.4q-.878.878-1.85,1.692t-1.986,1.531c-.154.106-.307.213-.461.317s-.311.207-.467.309a29.146,29.146,0,1,1,5.543-4.655" transform="translate(-481.051 -378.159)" fill="#cacee0"/><path d="M594.83,477.98c-.126.136-.254.272-.386.406s-.258.268-.392.4q-.878.878-1.85,1.692t-1.986,1.531c-.154.106-.307.213-.461.317s-.311.207-.467.309a29.146,29.146,0,1,1,5.543-4.655" transform="translate(-485.777 -382.884)" fill="#fff"/><path d="M1140.207,1044.845a.972.972,0,0,1-.737-.336l-17.66-20.394a.974.974,0,0,1,1.473-1.276l17.66,20.394a.974.974,0,0,1-.736,1.612" transform="translate(-1000.888 -912.495)" fill="#fff"/><path d="M560.815,391.893a.712.712,0,0,1-.56-1.151,34.682,34.682,0,0,1,40.166-10.788.712.712,0,1,1-.529,1.322,33.409,33.409,0,0,0-38.515,10.344.711.711,0,0,1-.561.273" transform="translate(-499.835 -336.845)" fill="#fff"/><path d="M516.247,534.031a.713.713,0,0,1-.661-.977,35,35,0,0,1,2.68-5.33.712.712,0,0,1,1.213.747,33.58,33.58,0,0,0-2.571,5.112.712.712,0,0,1-.661.448" transform="translate(-460.062 -470.646)" fill="#fff"/><path d="M693.622,569.786q-1.731,1.193-3.553-.935l-2.738-3.455a2.81,2.81,0,0,1-.744-2.069,3.813,3.813,0,0,1,1.006-2.029,6.863,6.863,0,0,0,1.752-3.315,4.31,4.31,0,0,0-.823-3.261,4.822,4.822,0,0,0-2.874-2.145,4.781,4.781,0,0,0-5.426,4.659,5.436,5.436,0,0,1-.37,2.392,3.093,3.093,0,0,1-1.5,1.27,3.241,3.241,0,0,1-2.362.233,1.982,1.982,0,0,1-1.323-1.789,9.686,9.686,0,0,1,.789-5.53,11.106,11.106,0,0,1,3.949-4.562,11.928,11.928,0,0,1,5.059-2.091,8.666,8.666,0,0,1,4.885.67,9.847,9.847,0,0,1,4.041,3.537,7.648,7.648,0,0,1,1.439,5.834,11.731,11.731,0,0,1-2.929,5.7l2.031,3.29q1.379,2.433-.31,3.6m5.924,8.679a3.614,3.614,0,0,1-2.763.6,3.49,3.49,0,0,1-2.376-1.509,3.548,3.548,0,0,1-.592-2.8,3.613,3.613,0,0,1,1.543-2.369,3.673,3.673,0,0,1,2.8-.626,3.549,3.549,0,0,1,2.4,1.549,3.49,3.49,0,0,1,.565,2.757,3.672,3.672,0,0,1-1.583,2.4" transform="translate(-601.974 -488.206)" fill="#848baa"/></g></g></svg>