<svg xmlns="http://www.w3.org/2000/svg" width="15.716" height="14.001" viewBox="0 0 15.716 14.001">
  <g id="그룹_10720" data-name="그룹 10720" transform="translate(1 1)">
    <path id="패스_405" data-name="패스 405" d="M124.388,1548.268a1,1,0,0,1-.647-1.763l6.184-5.238-6.184-5.238a1,1,0,1,1,1.293-1.526l7.085,6a1,1,0,0,1,0,1.526l-7.085,6A1,1,0,0,1,124.388,1548.268Z" transform="translate(-117.757 -1535.267)"/>
    <path id="패스_406" data-name="패스 406" d="M123.857,1542H111.076a1,1,0,0,1,0-2h12.781a1,1,0,1,1,0,2Z" transform="translate(-111.076 -1534.999)"/>
  </g>
</svg>
