<svg xmlns="http://www.w3.org/2000/svg" width="19.499" height="19.501" viewBox="0 0 19.499 19.501">
  <g id="그룹_10970" data-name="그룹 10970" transform="translate(0.25 0.25)">
    <path id="패스_12578" data-name="패스 12578" d="M18.817,17.909l-1.671-1.672L14.48,13.57l-.181-.181a8.236,8.236,0,0,0,.615-.813,8.126,8.126,0,0,0-.207-9.215,8.72,8.72,0,0,0-.84-.991A8.1,8.1,0,0,0,9.532.116,8.291,8.291,0,0,0,4.654.769,8.109,8.109,0,0,0,.036,8.84,8.244,8.244,0,0,0,1.98,13.431a8.109,8.109,0,0,0,8.959,2.309,8.3,8.3,0,0,0,2.452-1.446l1.241,1.242L17.3,18.2l.614.614a.641.641,0,0,0,.906-.907M12.31,13.536l-.008.006h0l-.006,0-.012.009-.01.008-.031.024q-.1.074-.2.144-.2.134-.4.256a7.38,7.38,0,0,1-.83.429l-.02.009.025-.01a.754.754,0,0,1-.079.034l.029-.013.024-.011-.093.038q-.119.047-.239.09-.247.087-.5.158a7.681,7.681,0,0,1-.925.195l.075-.009-.17.023.1-.013a7.633,7.633,0,0,1-1.823,0l.09.013-.17-.023.081.01a7.529,7.529,0,0,1-1.685-.449l-.073-.03.034.015.013.006-.092-.039.015.006.031.012-.01,0q-.11-.048-.219-.1c-.14-.067-.279-.139-.415-.214a7.412,7.412,0,0,1-.8-.511c-.015-.011-.1-.062-.106-.079l0,0q-.094-.075-.185-.153-.186-.158-.361-.328a7.553,7.553,0,0,1-.654-.721L2.7,12.3l0,0L2.7,12.3h0l0-.006-.009-.012-.008-.01-.024-.032c-.049-.066-.1-.133-.144-.2-.089-.13-.175-.263-.256-.4a7.418,7.418,0,0,1-.429-.831l-.008-.018.01.024a.754.754,0,0,1-.034-.079l.013.029.011.026L1.781,10.7q-.046-.118-.09-.239-.087-.247-.158-.5a7.635,7.635,0,0,1-.2-.927c0,.026.006.051.01.076l-.023-.171.013.094a7.647,7.647,0,0,1,0-1.824c0,.03-.009.061-.013.091l.023-.17c0,.027-.007.053-.01.079a7.537,7.537,0,0,1,.449-1.684l.03-.074L1.8,5.484,1.8,5.5c.006-.016.057-.135.033-.078L1.82,5.44c.032-.074.065-.147.1-.219q.1-.211.214-.416a7.53,7.53,0,0,1,.511-.8c.011-.015.062-.1.079-.105l0,0q.074-.094.152-.185.158-.186.327-.361a7.594,7.594,0,0,1,.721-.654L3.931,2.7l-.008.006L3.931,2.7,4,2.647c.066-.049.133-.1.2-.143q.195-.134.4-.256a7.437,7.437,0,0,1,.83-.429l.022-.009-.028.011-.013.005.092-.039L5.477,1.8l-.022.009.091-.037c.079-.031.158-.061.239-.09.164-.058.331-.111.5-.158a7.453,7.453,0,0,1,.922-.195l-.072.009.121-.016-.049.007a7.643,7.643,0,0,1,1.836,0l-.1-.014.17.023-.071-.009a7.527,7.527,0,0,1,1.675.448l.036.015-.012-.006c-.008,0,.089.036.094.04l-.015-.006L10.8,1.811c.074.032.146.066.219.1q.211.1.416.214a7.528,7.528,0,0,1,.8.512c.015.011.1.06.105.079l-.072-.056.021.017.052.041q.1.084.205.17.217.187.419.39.173.173.335.356c.051.059.1.118.152.178l.073.09.041.052.017.021-.048-.063a5.33,5.33,0,0,1,.519.779q.118.2.222.413.05.1.1.2c.016.034.031.068.046.1l.026.059.009.021c-.006-.015-.025-.061-.033-.079a5.119,5.119,0,0,1,.3.866,7.571,7.571,0,0,1,.195.926q0-.037-.009-.075.012.085.023.17c0-.032-.009-.064-.014-.1a7.631,7.631,0,0,1,0,1.832c.005-.032.009-.065.014-.1q-.011.085-.023.171c0-.024.006-.048.009-.073a7.507,7.507,0,0,1-.448,1.677l-.031.077.016-.038.006-.014c0,.009-.032.077-.039.092l.005-.013.008-.021c-.032.073-.065.147-.1.219-.067.141-.138.279-.214.416a7.468,7.468,0,0,1-.511.8c-.011.015-.062.1-.079.106,0,0,0,0,0,0-.049.063-.1.124-.152.185q-.158.186-.328.361l-.058.059-.026.026,0,0a7.617,7.617,0,0,1-.636.568l-.015.012,0,0" transform="translate(0 0)"/>
    <path id="패스_12578_-_윤곽선" data-name="패스 12578 - 윤곽선" d="M18.374,19.251h0a.908.908,0,0,1-.64-.258l-.614-.614-2.664-2.665-1.082-1.082a8.537,8.537,0,0,1-2.348,1.342,8.159,8.159,0,0,1-2.893.519A8.523,8.523,0,0,1,6.1,16.246,8.336,8.336,0,0,1,1.79,13.593a8.49,8.49,0,0,1-2-4.729A8.359,8.359,0,0,1,4.549.543,8.48,8.48,0,0,1,8.139-.25a8.721,8.721,0,0,1,1.434.12,8.356,8.356,0,0,1,4.47,2.324,8.916,8.916,0,0,1,.865,1.02,8.376,8.376,0,0,1,.214,9.5c-.15.226-.313.447-.485.659l2.685,2.686,1.108,1.109.563.563A.9.9,0,0,1,19,18.985.848.848,0,0,1,18.374,19.251Zm-4.97-5.3.163.163,1.241,1.242,2.665,2.667.614.614a.411.411,0,0,0,.287.112h0a.349.349,0,0,0,.258-.1.407.407,0,0,0,.007-.561l-.563-.563-1.108-1.109L13.959,13.4l.151-.176a8.019,8.019,0,0,0,.6-.788,7.876,7.876,0,0,0-.2-8.928,8.42,8.42,0,0,0-.816-.963A7.851,7.851,0,0,0,9.491.362,8.219,8.219,0,0,0,8.139.25,7.984,7.984,0,0,0,4.759,1,7.859,7.859,0,0,0,.284,8.816,7.992,7.992,0,0,0,2.17,13.268a7.832,7.832,0,0,0,4.048,2.492,8.023,8.023,0,0,0,1.916.232,7.661,7.661,0,0,0,2.716-.486,8.035,8.035,0,0,0,2.378-1.4ZM8.124,15.21a7.934,7.934,0,0,1-.851-.046v0L7.1,15.143v0a7.78,7.78,0,0,1-1.662-.452l-.019-.008h0c-.02-.007-.1-.04-.115-.049h0l-.183-.084c-.147-.07-.291-.144-.429-.221a7.684,7.684,0,0,1-.819-.526l-.011-.007a.605.605,0,0,1-.134-.105c-.052-.042-.1-.086-.157-.131-.125-.106-.25-.22-.372-.338a7.83,7.83,0,0,1-.675-.744L2.51,12.46h0l0,0-.057-.065v-.011c-.045-.061-.093-.127-.144-.2-.094-.136-.183-.275-.265-.411a7.7,7.7,0,0,1-.427-.822.756.756,0,0,1-.055-.125h0l-.013-.033c-.031-.078-.061-.159-.092-.247-.061-.173-.116-.346-.163-.517A7.9,7.9,0,0,1,1.1,9.14h0l-.023-.171h0a7.909,7.909,0,0,1,0-1.7h0L1.1,7.094h0A7.784,7.784,0,0,1,1.554,5.43l.008-.019h0a.807.807,0,0,1,.054-.124c.026-.058.053-.117.08-.174.068-.144.143-.288.221-.43a7.808,7.808,0,0,1,.526-.82l.007-.011a.61.61,0,0,1,.1-.133c.043-.053.087-.107.132-.159.106-.124.219-.249.338-.372a7.872,7.872,0,0,1,.745-.676l0,0,.028.034-.027-.036.08-.06c.063-.047.129-.094.209-.149.131-.091.269-.18.411-.265a7.725,7.725,0,0,1,.818-.426h0c.025-.014.118-.052.135-.058h0l.027-.011c.086-.034.167-.064.247-.092.176-.062.35-.117.517-.163A7.714,7.714,0,0,1,7.1,1.092v0l.121-.016h0A7.925,7.925,0,0,1,8.975,1.07v0l.166.022h0v0a7.779,7.779,0,0,1,1.663.453h0a.72.72,0,0,1,.144.061l.17.079c.145.069.29.144.429.221a7.805,7.805,0,0,1,.819.526l.011.007a.563.563,0,0,1,.136.107c.06.049.121.1.182.152.149.128.294.264.434.4.118.117.234.241.345.368.062.071.111.129.157.185l.005.006.07.086,0,.005h0a5.531,5.531,0,0,1,.544.816c.079.136.156.279.229.427.036.071.07.142.1.21l.044.1h0a5.312,5.312,0,0,1,.315.908,7.828,7.828,0,0,1,.19.884h0V7.1q.012.083.023.166h0a7.894,7.894,0,0,1,0,1.7h0l0,.019-.018.137h0l0,.016h0a7.759,7.759,0,0,1-.452,1.662l-.006.016h0c-.008.021-.042.1-.046.11h0c-.031.069-.06.133-.089.192-.071.148-.145.293-.221.429a7.742,7.742,0,0,1-.526.82l-.007.011a.606.606,0,0,1-.1.133c-.041.052-.085.1-.132.159-.106.125-.22.25-.338.372l-.02.02-.041.041-.022.023-.005.005a7.9,7.9,0,0,1-.655.585l-.016.013-.024-.03.023.031-.077.058c-.064.048-.133.1-.2.144-.136.094-.274.182-.411.265a7.658,7.658,0,0,1-.831.432.757.757,0,0,1-.115.051h0l-.033.013c-.078.031-.158.061-.246.092-.173.061-.347.116-.517.164a7.94,7.94,0,0,1-.883.19v0l-.172.023h0v0A7.9,7.9,0,0,1,8.124,15.21Zm-.876-.552a7.417,7.417,0,0,0,1.756,0,7.457,7.457,0,0,0,.892-.188c.159-.044.322-.1.483-.153.082-.029.158-.058.231-.087l.058-.023.046-.02a7.15,7.15,0,0,0,.8-.415c.128-.077.258-.16.385-.248.065-.045.13-.092.193-.138l.026-.019.035-.026h0l.01-.007,0,0,.006,0a7.4,7.4,0,0,0,.608-.542l.012-.012.019-.019.04-.041.02-.02c.109-.113.216-.23.316-.348.053-.062.1-.12.146-.178l.174.12-.093-.183a.2.2,0,0,0-.062.048c.007-.008.022-.033.029-.044l.024-.036a7.234,7.234,0,0,0,.494-.768c.071-.127.14-.262.207-.4.031-.065.063-.134.1-.212h0l.03-.074A7.266,7.266,0,0,0,14.66,9a7.391,7.391,0,0,0,0-1.765,7.346,7.346,0,0,0-.188-.892,5.37,5.37,0,0,0-.255-.765h0l0,.007-.008-.019-.023-.054c-.016-.036-.03-.069-.045-.1-.029-.063-.06-.129-.094-.2-.069-.138-.141-.272-.214-.4a5.614,5.614,0,0,0-.439-.678h0l-.027-.033-.04-.05-.066-.082,0-.006c-.042-.052-.089-.107-.147-.173-.1-.117-.212-.233-.323-.343-.131-.131-.268-.258-.406-.378-.066-.056-.133-.112-.2-.164l-.052-.041-.021-.017-.025-.017h0a7.3,7.3,0,0,0-.769-.495c-.13-.072-.265-.141-.4-.207-.068-.033-.137-.064-.212-.1h0l-.041-.017v0l-.031-.013a7.29,7.29,0,0,0-1.618-.434,7.426,7.426,0,0,0-1.769,0,7.231,7.231,0,0,0-.888.188c-.157.043-.319.095-.483.153-.074.026-.149.054-.231.087l-.053.021-.051.021a7.219,7.219,0,0,0-.8.415c-.132.08-.261.163-.384.248-.075.052-.136.1-.194.138L4.082,2.9a7.383,7.383,0,0,0-.7.635c-.111.115-.217.232-.316.349-.05.059-.1.119-.147.179l-.178-.13.1.192A.2.2,0,0,0,2.9,4.078c-.007.008-.023.033-.03.044l-.024.036a7.3,7.3,0,0,0-.493.768c-.073.132-.143.267-.207.4-.033.069-.065.141-.1.212h0l0,0h0l-.028.069A7.294,7.294,0,0,0,1.586,7.24,7.408,7.408,0,0,0,1.586,9a7.416,7.416,0,0,0,.188.893c.044.16.1.323.153.483.029.082.058.158.086.231l.024.058.018.042a7.21,7.21,0,0,0,.416.806c.077.128.16.257.247.385.049.07.094.134.138.193l.022.029.024.032h0l.008.01,0,0,0,.006a7.327,7.327,0,0,0,.632.7c.114.111.232.217.349.317.06.051.12.1.178.147l-.114.184.2-.04a.223.223,0,0,0-.07-.125c.008.007.034.023.044.03l.036.024a7.177,7.177,0,0,0,.768.493c.13.072.265.142.4.207.065.031.134.062.208.1l.007,0h0l.069.028A7.287,7.287,0,0,0,7.248,14.658Z" transform="translate(0 0)"/>
    <path id="패스_12579" data-name="패스 12579" d="M4.067,7.138,4,7.135a.75.75,0,0,1-.682-.813A3.723,3.723,0,0,1,6.362,3.071.75.75,0,0,1,6.745,4.52a.786.786,0,0,1-.085.022,2.886,2.886,0,0,0-.919.388,1.922,1.922,0,0,0-.928,1.524A.75.75,0,0,1,4.067,7.138Z" transform="translate(-0.029 0.158)"/>
  </g>
</svg>
