<svg xmlns="http://www.w3.org/2000/svg" width="19.999" height="24.75" viewBox="0 0 19.999 24.75">
  <defs>
    <style>
      .cls-1 {
        fill: #fff;
      }

      .cls-2 {
        fill: rgba(0,0,0,0);
      }
    </style>
  </defs>
  <g transform="translate(3.496 -4.5)">
    <path id="제외_3" data-name="제외 3" class="cls-1" d="M9.5,23.75a.793.793,0,0,1-.584-.235l-.067-.073c-.441-.476-.9-.98-1.435-1.59-.914-1.032-1.744-2.005-2.536-2.975-.77-.942-1.772-2.195-2.693-3.535A13.155,13.155,0,0,1,.469,12.208a9.193,9.193,0,0,1,3-10.087A9.391,9.391,0,0,1,5.679.79,10.148,10.148,0,0,1,8.434.064,9.089,9.089,0,0,1,9.511,0a9.819,9.819,0,0,1,4.183.957A9.548,9.548,0,0,1,17.52,4.32,9.264,9.264,0,0,1,19,9.291v.023c0,.26-.012.515-.034.76a8.452,8.452,0,0,1-.6,2.572,12.056,12.056,0,0,1-.74,1.447A31.839,31.839,0,0,1,15.532,17.1c-.782,1.019-1.616,2.048-2.55,3.146-.658.774-1.346,1.559-2.044,2.334-.314.349-.579.641-.854.935A.793.793,0,0,1,9.5,23.75ZM9.3,4.908A4.255,4.255,0,0,0,5.005,9.115a4.293,4.293,0,0,0,8.583,0A4.255,4.255,0,0,0,9.3,4.908Z" transform="translate(-2.997 5)"/>
    <path id="제외_3_-_윤곽선" data-name="제외 3 - 윤곽선" class="cls-2" d="M9.5,24.25a1.3,1.3,0,0,1-.946-.39l-.074-.08c-.443-.478-.9-.986-1.441-1.6-.918-1.036-1.752-2.014-2.549-2.99-.776-.949-1.785-2.212-2.718-3.568A13.583,13.583,0,0,1-.005,12.368,9.693,9.693,0,0,1,3.161,1.729,9.881,9.881,0,0,1,5.486.329,10.641,10.641,0,0,1,8.374-.432,9.591,9.591,0,0,1,9.511-.5a10.322,10.322,0,0,1,4.4,1.006,10.054,10.054,0,0,1,4.03,3.541A9.77,9.77,0,0,1,19.5,9.288v.025c0,.275-.013.545-.036.8a8.944,8.944,0,0,1-.64,2.724,12.553,12.553,0,0,1-.771,1.507,32.3,32.3,0,0,1-2.125,3.057c-.786,1.025-1.626,2.06-2.566,3.165-.663.78-1.354,1.569-2.053,2.345-.313.348-.58.642-.861.942A1.293,1.293,0,0,1,9.5,24.25ZM9.511.5A8.586,8.586,0,0,0,8.493.56a9.654,9.654,0,0,0-2.62.691A8.9,8.9,0,0,0,3.782,2.513,8.751,8.751,0,0,0,.993,6.433a8.655,8.655,0,0,0-.051,5.615A12.728,12.728,0,0,0,2.6,15.06c.912,1.325,1.9,2.567,2.668,3.5.789.966,1.614,1.934,2.523,2.96.534.6.987,1.106,1.428,1.581l.061.066.005.006a.353.353,0,0,0,.436,0c.277-.3.539-.584.849-.929.693-.769,1.377-1.55,2.035-2.323.93-1.093,1.759-2.115,2.535-3.126a31.383,31.383,0,0,0,2.06-2.961,11.56,11.56,0,0,0,.71-1.387,7.964,7.964,0,0,0,.564-2.42c.02-.229.031-.471.032-.716V9.291a8.756,8.756,0,0,0-1.4-4.7,9.04,9.04,0,0,0-3.623-3.185A9.316,9.316,0,0,0,9.511.5ZM9.3,13.821A4.755,4.755,0,0,1,4.505,9.115a4.792,4.792,0,0,1,9.583,0A4.755,4.755,0,0,1,9.3,13.821Zm0-8.413A3.754,3.754,0,0,0,5.505,9.115a3.793,3.793,0,0,0,7.583,0A3.755,3.755,0,0,0,9.3,5.408Z" transform="translate(-2.997 5)"/>
  </g>
</svg>
