<svg id="Icon" xmlns="http://www.w3.org/2000/svg" xmlns:xlink="http://www.w3.org/1999/xlink" width="82.353" height="60" viewBox="0 0 82.353 60">
  <defs>
    <clipPath id="clip-path">
      <rect id="사각형_3401" data-name="사각형 3401" width="82.353" height="60" fill="none"/>
    </clipPath>
  </defs>
  <g id="그룹_7919" data-name="그룹 7919" clip-path="url(#clip-path)">
    <path id="패스_5256" data-name="패스 5256" d="M70.875,52.192c-.4-3.435-2.922-6.76-7.113-9.364a31.64,31.64,0,0,0-15.072-4.42c-5.528-.246-10.571.86-14.2,3.114l-1.362.846L25.176,47.31l-1.362.846,9.608,5.969,1.362-.846c2.063-1.282,5.3-1.605,8.586-.722.052.014.1.03.156.046,2.545.826,4.317,2.183,5.029,3.691-.954-.021-1.963-.062-3.023-.1-5.385-.221-12.086-.5-16.88,2.483l-4.991,3.1L19.337,64.46l-.706.439L9.315,70.686,0,76.474l9.608,5.969,9.315-5.788,9.315-5.788.706-.439c1.374-.854,4.411-.73,8.259-.573,5.712.234,13.536.554,19.345-3.055l9.315-5.788c3.628-2.254,5.408-5.388,5.011-8.822" transform="translate(6.528 -25.459)" fill="#8f83af" opacity="0.384" style="mix-blend-mode: multiply;isolation: isolate"/>
    <path id="패스_5257" data-name="패스 5257" d="M94.023,95.115l-9.608-5.969V77.57l9.608,5.969Z" transform="translate(-60.754 -54.172)" fill="#ccc"/>
    <path id="패스_5258" data-name="패스 5258" d="M76.825,107.723,67.51,113.51v11.575l9.315-5.788Z" transform="translate(-48.587 -75.229)" fill="#e6e6e6"/>
    <path id="패스_5259" data-name="패스 5259" d="M42.841,124.665,33.233,118.7V107.12l9.608,5.969Z" transform="translate(-23.918 -74.808)" fill="#ccc"/>
    <path id="패스_5260" data-name="패스 5260" d="M42.841,99.69l-9.608-5.969,9.315-5.788L52.157,93.9Z" transform="translate(-23.918 -61.409)" fill="#f2f2f2"/>
    <path id="패스_5261" data-name="패스 5261" d="M104.853,9.117c2.063-1.282,5.3-1.605,8.586-.722q.079.021.156.046c3.163,1.027,5.133,2.873,5.355,4.81a3.537,3.537,0,0,1-1.941,3.418c-2.392,1.486-6.069,1.335-10.725,1.144-5.385-.221-12.085-.5-16.88,2.483l-4.991,3.1,9.608,5.969,4.99-3.1c1.375-.854,4.412-.73,8.259-.573,5.712.234,13.536.554,19.345-3.055,3.629-2.254,5.408-5.388,5.011-8.822s-2.922-6.76-7.113-9.364A31.639,31.639,0,0,0,109.444.033c-5.528-.246-10.571.86-14.2,3.114l-1.362.846,9.608,5.969Z" transform="translate(-60.754 0)" fill="#f2f2f2"/>
    <path id="패스_5262" data-name="패스 5262" d="M156.352,49.025V60.586c-.007,3.057-1.777,5.823-5.066,7.866-5.809,3.609-13.633,3.289-19.345,3.055-3.847-.157-6.885-.281-8.259.573l-4.991,3.1V63.6l4.991-3.1c1.374-.854,4.411-.73,8.259-.572,5.712.234,13.536.554,19.345-3.055,3.284-2.04,5.053-4.8,5.066-7.852" transform="translate(-85.423 -34.237)" fill="#e6e6e6"/>
    <path id="패스_5263" data-name="패스 5263" d="M165.988,34.955c-2.391,1.486-6.069,1.335-10.724,1.144-.9-.037-1.837-.075-2.8-.1V28.248l1.363-.846c2.063-1.282,5.3-1.605,8.586-.722q.079.021.156.046c3.163,1.027,5.133,2.874,5.356,4.811a3.537,3.537,0,0,1-1.941,3.418" transform="translate(-109.732 -18.284)" fill="#ccc"/>
    <path id="패스_5264" data-name="패스 5264" d="M121.882,27.108l-3.689-2.292V13.241L127.8,19.21v7.751a49.491,49.491,0,0,0-5.919.147" transform="translate(-85.064 -9.247)" fill="#ccc"/>
  </g>
</svg>
