<svg xmlns="http://www.w3.org/2000/svg" xmlns:xlink="http://www.w3.org/1999/xlink" width="64.299" height="70.962" viewBox="0 0 64.299 70.962">
  <defs>
    <clipPath id="clip-path">
      <rect id="사각형_3818" data-name="사각형 3818" width="5.506" height="40.503" fill="none"/>
    </clipPath>
    <clipPath id="clip-path-2">
      <rect id="사각형_3819" data-name="사각형 3819" width="5.506" height="40.605" fill="none"/>
    </clipPath>
    <clipPath id="clip-path-3">
      <rect id="사각형_3820" data-name="사각형 3820" width="5.511" height="39.091" fill="none"/>
    </clipPath>
    <clipPath id="clip-path-4">
      <rect id="사각형_3821" data-name="사각형 3821" width="5.506" height="36.565" fill="none"/>
    </clipPath>
    <clipPath id="clip-path-5">
      <rect id="사각형_3822" data-name="사각형 3822" width="6.525" height="30.251" fill="none"/>
    </clipPath>
    <clipPath id="clip-path-6">
      <rect id="사각형_3823" data-name="사각형 3823" width="37.905" height="50.173" fill="none"/>
    </clipPath>
    <clipPath id="clip-path-7">
      <path id="패스_9793" data-name="패스 9793" d="M104.673,188.386l-.522.3c-.661.381-1.361,5.158-1.6,5.19L83.6,204.815c-.307.093-.531-.8-.758-1.689-.237-.932-.477-1.865-.815-1.67l-19.758,11.4a1.894,1.894,0,0,0-.855,1.48l-.944,29.892-.892,2.333,44.439-25.448a.952.952,0,0,0,.482-.794l1.025-31.438c0-.388-.19-.612-.47-.612a.769.769,0,0,0-.378.116" transform="translate(-59.576 -188.27)" fill="none"/>
    </clipPath>
    <linearGradient id="linear-gradient" x1="-0.161" y1="0.986" x2="-0.157" y2="0.986" gradientUnits="objectBoundingBox">
      <stop offset="0" stop-color="#7e87a8"/>
      <stop offset="0.667" stop-color="#616b8c"/>
      <stop offset="1" stop-color="#616b8c"/>
    </linearGradient>
  </defs>
  <g id="그룹_9051" data-name="그룹 9051" transform="translate(0 0)">
    <path id="패스_12556" data-name="패스 12556" d="M-5.655,103.826s-2.284,2.356-1.421,4.5,2.92,5.124,8.061,3.462C7.615,107.518,47.152,85.9,47.152,85.9s2.743-7.857-6.862-5.175S-5.655,103.826-5.655,103.826Z" transform="translate(7.271 -41.304)" fill="#cc8e45"/>
    <g id="그룹_9044" data-name="그룹 9044" transform="translate(0.624)">
      <g id="그룹_9073" data-name="그룹 9073" transform="translate(0)">
        <path id="패스_9770" data-name="패스 9770" d="M42.332,152.912l1.024-2.741a1.877,1.877,0,0,1,.749-.945l15.426-8.906a.621.621,0,0,1,.567-.076c.071.033.755.649.755.649l.434,1.077c.315.489.922.556,1.583.175l.522-.3a.57.57,0,0,1,.639-.033c.131.1.634.563.634.563l-.528,33.594-43.785,24.1-.32-.529.1-31.726a1.9,1.9,0,0,1,.855-1.48l19.758-11.407a3.984,3.984,0,0,0,1.589-2.006" transform="translate(-20.032 -138.326)" fill="#3d4663"/>
        <path id="패스_9771" data-name="패스 9771" d="M46.3,156.507l1.024-2.742a1.877,1.877,0,0,1,.749-.945L63.5,143.914c.311-.18.6-.148.745.082l1.011,1.567c.315.489.922.556,1.583.175l.522-.3c.47-.272.85-.049.849.5l-.1,33.63L24,204l.1-32.6a1.9,1.9,0,0,1,.855-1.48l19.758-11.409a3.982,3.982,0,0,0,1.589-2.006" transform="translate(-23.368 -141.348)" fill="#616b8c"/>
        <path id="패스_9772" data-name="패스 9772" d="M73.245,366.358,29.651,391.092s-.909,2.311-3.8-.455c-2.541-2.432-2.106-4.756-2.106-4.756L67.9,360.049Z" transform="translate(-23.132 -324.262)" fill="#616b8c"/>
        <g id="그룹_9027" data-name="그룹 9027" transform="translate(20.923 10.231)" style="mix-blend-mode: multiply;isolation: isolate">
          <g id="그룹_9026" data-name="그룹 9026">
            <g id="그룹_9025" data-name="그룹 9025" clip-path="url(#clip-path)">
              <path id="패스_9773" data-name="패스 9773" d="M151.747,235.687l5.506-3.179V195.184l-1.724,1.012a1.9,1.9,0,0,0-.748.961l-1.024,2.788a4.039,4.039,0,0,1-1.589,2.04l-.42.247Z" transform="translate(-151.747 -195.184)" fill="#bfccd9"/>
            </g>
          </g>
        </g>
        <g id="그룹_9030" data-name="그룹 9030" transform="translate(30.302 5.106)" style="mix-blend-mode: multiply;isolation: isolate">
          <g id="그룹_9029" data-name="그룹 9029">
            <g id="그룹_9028" data-name="그룹 9028" clip-path="url(#clip-path-2)">
              <path id="패스_9774" data-name="패스 9774" d="M216.29,160.521l-5.506,3.233v37.372l5.506-3.179Z" transform="translate(-210.785 -160.521)" fill="#bfccd9"/>
            </g>
          </g>
        </g>
        <g id="그룹_9033" data-name="그룹 9033" transform="translate(1.936 26.55)" style="mix-blend-mode: multiply;isolation: isolate">
          <g id="그룹_9032" data-name="그룹 9032">
            <g id="그룹_9031" data-name="그룹 9031" clip-path="url(#clip-path-3)">
              <path id="패스_9775" data-name="패스 9775" d="M37.729,333.234V301.9l-5.506,3.179-.005,31.8c0,1.517.61,2.239,1.815,3.16,1.917,1.464,3,.81,3,.81Z" transform="translate(-32.218 -301.9)" fill="#bfccd9"/>
            </g>
          </g>
        </g>
        <g id="그룹_9036" data-name="그룹 9036" transform="translate(11.407 19.384)" style="mix-blend-mode: multiply;isolation: isolate">
          <g id="그룹_9035" data-name="그룹 9035">
            <g id="그룹_9034" data-name="그룹 9034" clip-path="url(#clip-path-4)">
              <path id="패스_9776" data-name="패스 9776" d="M97.346,254.372,91.84,257.6v33.332l5.506-3.179Z" transform="translate(-91.84 -254.372)" fill="#bfccd9"/>
            </g>
          </g>
        </g>
        <path id="패스_9777" data-name="패스 9777" d="M262.605,149.952l-5.506,3.179v43.233l5.506-3.179Z" transform="translate(-219.441 -146.525)" fill="#e6edf7"/>
        <path id="패스_9778" data-name="패스 9778" d="M225.8,195.047l-5.911-3.427V148.387l5.911,3.427Z" transform="translate(-188.143 -145.208)" fill="#bfccd9"/>
        <path id="패스_9779" data-name="패스 9779" d="M231.308,131.8l-5.911-3.427-5.506,3.179,5.911,3.427Z" transform="translate(-188.143 -128.377)" fill="#f7f9fc"/>
        <path id="패스_9780" data-name="패스 9780" d="M203.567,200.644l-5.506,3.179v40.585l5.506-3.179Z" transform="translate(-169.781 -189.63)" fill="#e6edf7"/>
        <path id="패스_9781" data-name="패스 9781" d="M166.764,243.092l-5.911-3.427V199.08l5.911,3.427Z" transform="translate(-138.483 -188.309)" fill="#bfccd9"/>
        <path id="패스_9782" data-name="패스 9782" d="M172.27,182.5l-5.911-3.427-5.506,3.179,5.911,3.427Z" transform="translate(-138.483 -171.017)" fill="#f7f9fc"/>
        <path id="패스_9783" data-name="패스 9783" d="M143.66,258.989l-5.506,3.179v36.78l5.506-3.179Z" transform="translate(-119.39 -239.255)" fill="#e6edf7"/>
        <path id="패스_9784" data-name="패스 9784" d="M106.857,297.632l-5.911-3.427v-36.78l5.911,3.427Z" transform="translate(-88.092 -237.939)" fill="#bfccd9"/>
        <path id="패스_9785" data-name="패스 9785" d="M112.362,240.841l-5.911-3.427-5.506,3.179,5.911,3.427Z" transform="translate(-88.092 -220.376)" fill="#f7f9fc"/>
        <path id="패스_9786" data-name="패스 9786" d="M84.073,327.882l-5.506,3.179v31.334l5.506-3.179Z" transform="translate(-69.269 -297.204)" fill="#0f98ed"/>
        <path id="패스_9787" data-name="패스 9787" d="M47.27,361.08l-5.911-3.427V326.318l5.911,3.427Z" transform="translate(-37.971 -295.889)" fill="#bfccd9"/>
        <path id="패스_9788" data-name="패스 9788" d="M52.775,309.734l-5.911-3.427-5.506,3.179,5.911,3.427Z" transform="translate(-37.97 -278.504)" fill="#f7f9fc"/>
        <path id="패스_9789" data-name="패스 9789" d="M61.467,436.356a3.027,3.027,0,0,0,1.469-.453l30.775-17.768a6.461,6.461,0,0,0,2.038-1.99Z" transform="translate(-54.885 -371.446)" fill="#f7f9fc"/>
        <g id="그룹_9039" data-name="그룹 9039" transform="translate(41.977 14.404)" style="mix-blend-mode: multiply;isolation: isolate">
          <g id="그룹_9038" data-name="그룹 9038">
            <g id="그룹_9037" data-name="그룹 9037" clip-path="url(#clip-path-5)">
              <path id="패스_9790" data-name="패스 9790" d="M284.28,251.755l6.525-3.834-3.738-4.409-.02.012.067-22.02-1.645.958.072,25.572a6.941,6.941,0,0,1-1.26,3.72" transform="translate(-284.28 -221.505)" fill="#bfccd9"/>
            </g>
          </g>
        </g>
        <g id="그룹_9042" data-name="그룹 9042" transform="translate(5.332 14.737)" style="mix-blend-mode: multiply;isolation: isolate">
          <g id="그룹_9041" data-name="그룹 9041">
            <g id="그룹_9040" data-name="그룹 9040" clip-path="url(#clip-path-6)">
              <path id="패스_9791" data-name="패스 9791" d="M91.506,253.105l-.072-25.572-14.117,8.34c-.627.193-1.813-3.273-2.9-2.764L56.1,244a3.047,3.047,0,0,0-1.625,2.554L53.6,275.7s1.258.713,1.288.74c.172.12-.121,1.264-.038,1.263l35.395-20.88a6.942,6.942,0,0,0,1.26-3.72" transform="translate(-53.601 -227.533)" fill="#e6edf7"/>
            </g>
          </g>
        </g>
        <path id="패스_9792" data-name="패스 9792" d="M83.332,200.3l18.954-10.934c.238-.032.939-4.807,1.6-5.188l.522-.3a.637.637,0,0,1,.541-.087,10.091,10.091,0,0,1,1.067.779l-1.829,31.6L61.142,240.6l-.759-.716.764-30.071A1.893,1.893,0,0,1,62,208.336l19.758-11.4a.167.167,0,0,1,.2.032c.091.077.953.7.953.7.463,1.084,0,2.477.416,2.63" transform="translate(-53.973 -174.961)" fill="#3d4663"/>
      </g>
    </g>
    <g id="그룹_9046" data-name="그룹 9046" transform="translate(6.906 9.514)">
      <g id="그룹_9045" data-name="그룹 9045" clip-path="url(#clip-path-7)">
        <path id="패스_9821" data-name="패스 9821" d="M0,0,49.1.046l.057,60.663-49.1-.046Z" transform="matrix(0.999, -0.054, 0.054, 0.999, -3.218, 0.172)" fill="url(#linear-gradient)"/>
      </g>
    </g>
    <g id="그룹_9048" data-name="그룹 9048" transform="translate(0.624 16.042)">
      <g id="그룹_9052" data-name="그룹 9052" transform="translate(19.293 0)">
        <path id="패스_9795" data-name="패스 9795" d="M237.787,52.37l-1.759-1.022,1.655-7.96,1.759,1.022Z" transform="translate(-198.534 -36.495)" fill="#ed9408"/>
        <path id="패스_9796" data-name="패스 9796" d="M248.2,29.491l-1.759-1.022.7-2.817,1.759,1.022Z" transform="translate(-207.297 -21.576)" fill="#9d9d9d"/>
        <path id="패스_9797" data-name="패스 9797" d="M243.64,27.6l-1.759-1.022,1.422-.928,1.759,1.022Z" transform="translate(-203.458 -21.576)" fill="#dbdbdb"/>
        <path id="패스_9798" data-name="패스 9798" d="M189.391,46.714l-1.759-1.022,8.618-14.2,1.759,1.022Z" transform="translate(-157.826 -26.492)" fill="#ffe852"/>
        <path id="패스_9799" data-name="패스 9799" d="M199.356,44.243,197.6,43.22V40.984l1.759,1.022Z" transform="translate(-166.208 -34.474)" fill="#ec9409"/>
        <path id="패스_9800" data-name="패스 9800" d="M199.356,7.533,197.6,6.511,208.832,0l1.759,1.022Z" transform="translate(-166.208 0)" fill="#ffe852"/>
        <path id="패스_9801" data-name="패스 9801" d="M161.884,118.347l-1.759-1.022-4.862-4.882,1.759,1.022Z" transform="translate(-130.599 -94.581)" fill="#fba317"/>
        <path id="패스_9802" data-name="패스 9802" d="M101.685,104.975l-1.759-1.022,9.241-12.746,1.759,1.023Z" transform="translate(-84.052 -76.718)" fill="#ffe852"/>
        <path id="패스_9803" data-name="패스 9803" d="M75.972,171.731l-1.759-1.022-4.357-4.1,1.759,1.022Z" transform="translate(-58.759 -140.143)" fill="#fba317"/>
        <path id="패스_9804" data-name="패스 9804" d="M2.914,246.88l-1.759-1.022L0,244.7,1.76,245.72Z" transform="translate(0 -205.827)" fill="#fba317"/>
        <path id="패스_9805" data-name="패스 9805" d="M42.464,12.947v2.236L49.5,11.439l-8.618,14.2L36.19,20.925,26.949,33.671l-4.379-4.12L11.075,45.307l1.154,1.16L22.172,32.9,26.529,37l9.21-12.7L40.6,29.18l9.623-15.852-1.655,7.96,1.859-.357L53.7,6.436Z" transform="translate(-9.316 -5.414)" fill="#fbcb21"/>
        <path id="패스_9806" data-name="패스 9806" d="M1.76,162.286,0,161.263l11.494-15.757,1.759,1.023Z" transform="translate(0 -122.392)" fill="#ffe852"/>
      </g>
      <path id="패스_9794" data-name="패스 9794" d="M27.206,524.244c0,5.315-6.931,2.3-7.174-4.236.1.058.518.313.633.357-.015,4.826,5.537,8,5.777,3.357.1.059.663.462.764.521" transform="translate(-20.032 -474.853)" fill="#3d4663"/>
    </g>
  </g>
</svg>
