<svg xmlns="http://www.w3.org/2000/svg" width="1483" height="385" viewBox="0 0 1483 385">
  <g id="그룹_681" data-name="그룹 681" transform="translate(-371 -293)">
    <g id="그룹_672" data-name="그룹 672" transform="translate(702 141)">
      <g id="타원_45" data-name="타원 45" transform="translate(225 152)" fill="rgba(255,255,255,0.38)" stroke="rgba(255,255,255,0.3)" stroke-width="2" opacity="0.7">
        <circle cx="192.5" cy="192.5" r="192.5" stroke="none"/>
        <circle cx="192.5" cy="192.5" r="191.5" fill="none"/>
      </g>
      <text id="Global_Total" data-name="Global Total" transform="translate(417 314)" fill="#fff" font-size="32" font-family="Pretendard-Bold, Pretendard" font-weight="700" letter-spacing="-0.02em"><tspan x="-85.744" y="0">Global Total</tspan></text>
      <text id="_339_036_288_건" data-name="339,036,288 건" transform="translate(417 380)" fill="#fff" font-size="48" font-family="Pretendard-ExtraBold, Pretendard" font-weight="800" letter-spacing="-0.02em"><tspan x="-168.144" y="0">339,036,288 </tspan><tspan y="0" font-size="32" font-family="Pretendard-Medium, Pretendard" font-weight="500">건</tspan></text>
    </g>
    <g id="Africa" transform="translate(-689 24)">
      <g id="사각형_98" data-name="사각형 98" transform="translate(1183 294)" fill="rgba(255,255,255,0.3)" stroke="rgba(255,255,255,0.2)" stroke-width="1.5" opacity="0.697">
        <rect width="387" height="65" rx="32.5" stroke="none"/>
        <rect x="0.75" y="0.75" width="385.5" height="63.5" rx="31.75" fill="none"/>
      </g>
      <g id="그룹_674" data-name="그룹 674" transform="translate(1226 308)">
        <text id="건" transform="translate(304 28)" fill="#fff" font-size="24" font-family="Pretendard-Regular, Pretendard" letter-spacing="-0.02em"><tspan x="-20.736" y="0">건</tspan></text>
        <text id="_4_175_590" data-name="4,175,590" transform="translate(275 30)" fill="#fff" font-size="30" font-family="Pretendard-Bold, Pretendard" font-weight="700" letter-spacing="-0.02em"><tspan x="-136.02" y="0">4,175,590</tspan></text>
        <g id="그룹_676" data-name="그룹 676" transform="translate(0 4)">
          <text id="Africa-2" data-name="Africa" transform="translate(28 25)" fill="#fff" font-size="28" font-family="Pretendard-Regular, Pretendard" letter-spacing="-0.02em"><tspan x="0" y="0">Africa</tspan></text>
          <path id="제외_3" data-name="제외 3" d="M9.5,23.75a.793.793,0,0,1-.584-.235l-.067-.073c-.441-.476-.9-.98-1.435-1.59-.914-1.032-1.744-2.005-2.536-2.975-.77-.942-1.772-2.195-2.693-3.535A13.155,13.155,0,0,1,.469,12.208a9.193,9.193,0,0,1,3-10.087A9.391,9.391,0,0,1,5.679.79,10.148,10.148,0,0,1,8.434.064,9.089,9.089,0,0,1,9.511,0a9.819,9.819,0,0,1,4.183.957A9.548,9.548,0,0,1,17.52,4.32,9.264,9.264,0,0,1,19,9.291v.023c0,.26-.012.515-.034.76a8.452,8.452,0,0,1-.6,2.572,12.056,12.056,0,0,1-.74,1.447A31.839,31.839,0,0,1,15.532,17.1c-.782,1.019-1.616,2.048-2.55,3.146-.658.774-1.346,1.559-2.044,2.334-.314.349-.579.641-.854.935A.793.793,0,0,1,9.5,23.75ZM9.3,4.908A4.255,4.255,0,0,0,5.005,9.115a4.293,4.293,0,0,0,8.583,0A4.255,4.255,0,0,0,9.3,4.908Z" transform="translate(-2.997 5)" fill="#fff" stroke="rgba(0,0,0,0)" stroke-miterlimit="10" stroke-width="1"/>
        </g>
      </g>
    </g>
    <g id="europe" transform="translate(175 24)">
      <g id="사각형_98-2" data-name="사각형 98" transform="translate(1183 294)" fill="#fff" stroke="rgba(255,255,255,0.3)" stroke-width="1.5" opacity="0.697">
        <rect width="436" height="65" rx="32.5" stroke="none"/>
        <rect x="0.75" y="0.75" width="434.5" height="63.5" rx="31.75" fill="none"/>
      </g>
      <g id="그룹_674-2" data-name="그룹 674" transform="translate(1226 308)">
        <text id="건-2" data-name="건" transform="translate(353 28)" fill="#fff" font-size="24" font-family="Pretendard-Regular, Pretendard" letter-spacing="-0.02em"><tspan x="-20.736" y="0">건</tspan></text>
        <text id="_128_420_913" data-name="128,420,913" transform="translate(324 30)" fill="#fff" font-size="30" font-family="Pretendard-Bold, Pretendard" font-weight="700" letter-spacing="-0.02em"><tspan x="-171.3" y="0">128,420,913</tspan></text>
        <g id="그룹_676-2" data-name="그룹 676" transform="translate(0 4)">
          <text id="Europe-2" data-name="Europe" transform="translate(28 25)" fill="#fff" font-size="28" font-family="Pretendard-Regular, Pretendard" letter-spacing="-0.02em"><tspan x="0" y="0">Europe</tspan></text>
          <path id="제외_3-2" data-name="제외 3" d="M9.5,23.75a.793.793,0,0,1-.584-.235l-.067-.073c-.441-.476-.9-.98-1.435-1.59-.914-1.032-1.744-2.005-2.536-2.975-.77-.942-1.772-2.195-2.693-3.535A13.155,13.155,0,0,1,.469,12.208a9.193,9.193,0,0,1,3-10.087A9.391,9.391,0,0,1,5.679.79,10.148,10.148,0,0,1,8.434.064,9.089,9.089,0,0,1,9.511,0a9.819,9.819,0,0,1,4.183.957A9.548,9.548,0,0,1,17.52,4.32,9.264,9.264,0,0,1,19,9.291v.023c0,.26-.012.515-.034.76a8.452,8.452,0,0,1-.6,2.572,12.056,12.056,0,0,1-.74,1.447A31.839,31.839,0,0,1,15.532,17.1c-.782,1.019-1.616,2.048-2.55,3.146-.658.774-1.346,1.559-2.044,2.334-.314.349-.579.641-.854.935A.793.793,0,0,1,9.5,23.75ZM9.3,4.908A4.255,4.255,0,0,0,5.005,9.115a4.293,4.293,0,0,0,8.583,0A4.255,4.255,0,0,0,9.3,4.908Z" transform="translate(-2.997 5)" fill="#fff" stroke="rgba(0,0,0,0)" stroke-miterlimit="10" stroke-width="1"/>
        </g>
      </g>
    </g>
    <g id="Middle_East" data-name="Middle East" transform="translate(223 169)">
      <g id="사각형_98-3" data-name="사각형 98" transform="translate(1183 294)" fill="#fff" stroke="rgba(255,255,255,0.2)" stroke-width="1.5" opacity="0.697">
        <rect width="448" height="65" rx="32.5" stroke="none"/>
        <rect x="0.75" y="0.75" width="446.5" height="63.5" rx="31.75" fill="none"/>
      </g>
      <g id="그룹_674-3" data-name="그룹 674" transform="translate(1226 308)">
        <text id="건-3" data-name="건" transform="translate(365 28)" fill="#fff" font-size="24" font-family="Pretendard-Regular, Pretendard" letter-spacing="-0.02em"><tspan x="-20.736" y="0">건</tspan></text>
        <text id="_2_311_551" data-name="2,311,551" transform="translate(336 30)" fill="#fff" font-size="30" font-family="Pretendard-Bold, Pretendard" font-weight="700" letter-spacing="-0.02em"><tspan x="-127.74" y="0">2,311,551</tspan></text>
        <g id="그룹_676-3" data-name="그룹 676" transform="translate(0 4)">
          <text id="Middle_East-2" data-name="Middle East" transform="translate(28 25)" fill="#fff" font-size="28" font-family="Pretendard-Regular, Pretendard" letter-spacing="-0.02em"><tspan x="0" y="0">Middle East</tspan></text>
          <path id="제외_3-3" data-name="제외 3" d="M9.5,23.75a.793.793,0,0,1-.584-.235l-.067-.073c-.441-.476-.9-.98-1.435-1.59-.914-1.032-1.744-2.005-2.536-2.975-.77-.942-1.772-2.195-2.693-3.535A13.155,13.155,0,0,1,.469,12.208a9.193,9.193,0,0,1,3-10.087A9.391,9.391,0,0,1,5.679.79,10.148,10.148,0,0,1,8.434.064,9.089,9.089,0,0,1,9.511,0a9.819,9.819,0,0,1,4.183.957A9.548,9.548,0,0,1,17.52,4.32,9.264,9.264,0,0,1,19,9.291v.023c0,.26-.012.515-.034.76a8.452,8.452,0,0,1-.6,2.572,12.056,12.056,0,0,1-.74,1.447A31.839,31.839,0,0,1,15.532,17.1c-.782,1.019-1.616,2.048-2.55,3.146-.658.774-1.346,1.559-2.044,2.334-.314.349-.579.641-.854.935A.793.793,0,0,1,9.5,23.75ZM9.3,4.908A4.255,4.255,0,0,0,5.005,9.115a4.293,4.293,0,0,0,8.583,0A4.255,4.255,0,0,0,9.3,4.908Z" transform="translate(-2.997 5)" fill="#fff" stroke="rgba(0,0,0,0)" stroke-miterlimit="10" stroke-width="1"/>
        </g>
      </g>
    </g>
    <g id="Latin_America" data-name="Latin America" transform="translate(-772 311)">
      <g id="사각형_98-4" data-name="사각형 98" transform="translate(1183 294)" fill="#fff" stroke="rgba(255,255,255,0.3)" stroke-width="1.5" opacity="0.697">
        <rect width="501" height="65" rx="32.5" stroke="none"/>
        <rect x="0.75" y="0.75" width="499.5" height="63.5" rx="31.75" fill="none"/>
      </g>
      <g id="그룹_674-4" data-name="그룹 674" transform="translate(1226 308)">
        <text id="건-4" data-name="건" transform="translate(418 28)" fill="#fff" font-size="24" font-family="Pretendard-Regular, Pretendard" letter-spacing="-0.02em"><tspan x="-20.736" y="0">건</tspan></text>
        <text id="_42_310_067" data-name="42,310,067" transform="translate(389 30)" fill="#fff" font-size="30" font-family="Pretendard-Bold, Pretendard" font-weight="700" letter-spacing="-0.02em"><tspan x="-156.78" y="0">42,310,067</tspan></text>
        <g id="그룹_676-4" data-name="그룹 676" transform="translate(0 4)">
          <text id="Latin_America-2" data-name="Latin America" transform="translate(28 25)" fill="#fff" font-size="28" font-family="Pretendard-Regular, Pretendard" letter-spacing="-0.02em"><tspan x="0" y="0">Latin America</tspan></text>
          <path id="제외_3-4" data-name="제외 3" d="M9.5,23.75a.793.793,0,0,1-.584-.235l-.067-.073c-.441-.476-.9-.98-1.435-1.59-.914-1.032-1.744-2.005-2.536-2.975-.77-.942-1.772-2.195-2.693-3.535A13.155,13.155,0,0,1,.469,12.208a9.193,9.193,0,0,1,3-10.087A9.391,9.391,0,0,1,5.679.79,10.148,10.148,0,0,1,8.434.064,9.089,9.089,0,0,1,9.511,0a9.819,9.819,0,0,1,4.183.957A9.548,9.548,0,0,1,17.52,4.32,9.264,9.264,0,0,1,19,9.291v.023c0,.26-.012.515-.034.76a8.452,8.452,0,0,1-.6,2.572,12.056,12.056,0,0,1-.74,1.447A31.839,31.839,0,0,1,15.532,17.1c-.782,1.019-1.616,2.048-2.55,3.146-.658.774-1.346,1.559-2.044,2.334-.314.349-.579.641-.854.935A.793.793,0,0,1,9.5,23.75ZM9.3,4.908A4.255,4.255,0,0,0,5.005,9.115a4.293,4.293,0,0,0,8.583,0A4.255,4.255,0,0,0,9.3,4.908Z" transform="translate(-2.997 5)" fill="#fff" stroke="rgba(0,0,0,0)" stroke-miterlimit="10" stroke-width="1"/>
        </g>
      </g>
    </g>
    <g id="Latin_America-3" data-name="Latin America" transform="translate(144 311)">
      <g id="사각형_98-5" data-name="사각형 98" transform="translate(1183 294)" fill="#fff" stroke="rgba(255,255,255,0.3)" stroke-width="1.5">
        <rect width="501" height="65" rx="32.5" stroke="none"/>
        <rect x="0.75" y="0.75" width="499.5" height="63.5" rx="31.75" fill="none"/>
      </g>
      <g id="그룹_674-5" data-name="그룹 674" transform="translate(1226 308)">
        <text id="건-5" data-name="건" transform="translate(418 28)" fill="#fff" font-size="24" font-family="Pretendard-Regular, Pretendard" letter-spacing="-0.02em"><tspan x="-20.736" y="0">건</tspan></text>
        <text id="_88_570_457" data-name="88,570,457" transform="translate(389 30)" fill="#fff" font-size="30" font-family="Pretendard-Bold, Pretendard" font-weight="700" letter-spacing="-0.02em"><tspan x="-160.14" y="0">88,570,457</tspan></text>
        <g id="그룹_676-5" data-name="그룹 676" transform="translate(0 4)">
          <text id="North_America" data-name="North America" transform="translate(28 25)" fill="#fff" font-size="28" font-family="Pretendard-Regular, Pretendard" letter-spacing="-0.02em"><tspan x="0" y="0">North America</tspan></text>
          <path id="제외_3-5" data-name="제외 3" d="M9.5,23.75a.793.793,0,0,1-.584-.235l-.067-.073c-.441-.476-.9-.98-1.435-1.59-.914-1.032-1.744-2.005-2.536-2.975-.77-.942-1.772-2.195-2.693-3.535A13.155,13.155,0,0,1,.469,12.208a9.193,9.193,0,0,1,3-10.087A9.391,9.391,0,0,1,5.679.79,10.148,10.148,0,0,1,8.434.064,9.089,9.089,0,0,1,9.511,0a9.819,9.819,0,0,1,4.183.957A9.548,9.548,0,0,1,17.52,4.32,9.264,9.264,0,0,1,19,9.291v.023c0,.26-.012.515-.034.76a8.452,8.452,0,0,1-.6,2.572,12.056,12.056,0,0,1-.74,1.447A31.839,31.839,0,0,1,15.532,17.1c-.782,1.019-1.616,2.048-2.55,3.146-.658.774-1.346,1.559-2.044,2.334-.314.349-.579.641-.854.935A.793.793,0,0,1,9.5,23.75ZM9.3,4.908A4.255,4.255,0,0,0,5.005,9.115a4.293,4.293,0,0,0,8.583,0A4.255,4.255,0,0,0,9.3,4.908Z" transform="translate(-2.997 5)" fill="#fff" stroke="rgba(0,0,0,0)" stroke-miterlimit="10" stroke-width="1"/>
        </g>
      </g>
    </g>
    <g id="Africa-3" data-name="Africa" transform="translate(-812 169)">
      <g id="사각형_98-6" data-name="사각형 98" transform="translate(1183 294)" fill="rgba(255,255,255,0.3)" stroke="rgba(255,255,255,0.3)" stroke-width="1.5" opacity="0.7">
        <rect width="462" height="65" rx="32.5" stroke="none"/>
        <rect x="0.75" y="0.75" width="460.5" height="63.5" rx="31.75" fill="none"/>
      </g>
      <g id="그룹_674-6" data-name="그룹 674" transform="translate(1226 308)">
        <text id="건-6" data-name="건" transform="translate(379 28)" fill="#fff" font-size="24" font-family="Pretendard-Regular, Pretendard" letter-spacing="-0.02em"><tspan x="-20.736" y="0">건</tspan></text>
        <text id="_4_175_590-2" data-name="4,175,590" transform="translate(350 30)" fill="#fff" font-size="30" font-family="Pretendard-Bold, Pretendard" font-weight="700" letter-spacing="-0.02em"><tspan x="-136.02" y="0">4,175,590</tspan></text>
        <g id="그룹_675" data-name="그룹 675" transform="translate(0 3)">
          <text id="Asia_Pacific" data-name="Asia Pacific" transform="translate(28 25)" fill="#fff" font-size="28" font-family="Pretendard-Regular, Pretendard" letter-spacing="-0.02em"><tspan x="0" y="0">Asia Pacific</tspan></text>
          <path id="제외_3-6" data-name="제외 3" d="M9.5,23.75a.793.793,0,0,1-.584-.235l-.067-.073c-.441-.476-.9-.98-1.435-1.59-.914-1.032-1.744-2.005-2.536-2.975-.77-.942-1.772-2.195-2.693-3.535A13.155,13.155,0,0,1,.469,12.208a9.193,9.193,0,0,1,3-10.087A9.391,9.391,0,0,1,5.679.79,10.148,10.148,0,0,1,8.434.064,9.089,9.089,0,0,1,9.511,0a9.819,9.819,0,0,1,4.183.957A9.548,9.548,0,0,1,17.52,4.32,9.264,9.264,0,0,1,19,9.291v.023c0,.26-.012.515-.034.76a8.452,8.452,0,0,1-.6,2.572,12.056,12.056,0,0,1-.74,1.447A31.839,31.839,0,0,1,15.532,17.1c-.782,1.019-1.616,2.048-2.55,3.146-.658.774-1.346,1.559-2.044,2.334-.314.349-.579.641-.854.935A.793.793,0,0,1,9.5,23.75ZM9.3,4.908A4.255,4.255,0,0,0,5.005,9.115a4.293,4.293,0,0,0,8.583,0A4.255,4.255,0,0,0,9.3,4.908Z" transform="translate(-2.997 5)" fill="#fff" stroke="rgba(0,0,0,0)" stroke-miterlimit="10" stroke-width="1"/>
        </g>
      </g>
    </g>
  </g>
</svg>
