<svg xmlns="http://www.w3.org/2000/svg" width="5.5" height="5.5" viewBox="0 0 5.5 5.5">
  <g id="그룹_10813" data-name="그룹 10813" transform="translate(-368.311 -1563.349)">
    <path id="패스_12584" data-name="패스 12584" d="M364.238,1567.2a.75.75,0,0,1-.53-1.28l4-4a.75.75,0,0,1,1.061,1.061l-4,4A.748.748,0,0,1,364.238,1567.2Z" transform="translate(4.823 1.649)" fill="#fff"/>
    <path id="패스_12585" data-name="패스 12585" d="M368.238,1567.2a.748.748,0,0,1-.53-.22l-4-4a.75.75,0,0,1,1.061-1.061l4,4a.75.75,0,0,1-.53,1.28Z" transform="translate(4.823 1.649)" fill="#fff"/>
  </g>
</svg>
