<svg id="Group_47" data-name="Group 47" xmlns="http://www.w3.org/2000/svg" width="26" height="26" viewBox="0 0 26 26">
  <defs>
    <style>
      .cls-1 {
        fill: #e7e7ea;
      }

      .cls-2 {
        fill: #fff;
      }

      .cls-3 {
        fill: #1d1d1b;
      }
    </style>
  </defs>
  <circle id="타원_985" data-name="타원 985" class="cls-1" cx="13" cy="13" r="13"/>
  <g id="그룹_12961" data-name="그룹 12961" transform="translate(6.964 3)">
    <g id="그룹_12962" data-name="그룹 12962" transform="translate(0 2)">
      <ellipse id="타원_986" data-name="타원 986" class="cls-2" cx="3.108" cy="3.086" rx="3.108" ry="3.086" transform="translate(3.229)"/>
      <path id="타원_986_-_윤곽선" data-name="타원 986 - 윤곽선" class="cls-3" d="M3.108-.75A3.836,3.836,0,1,1-.75,3.086,3.851,3.851,0,0,1,3.108-.75Zm0,6.172A2.336,2.336,0,1,0,.75,3.086,2.35,2.35,0,0,0,3.108,5.422Z" transform="translate(3.229)"/>
      <path id="패스_12870" data-name="패스 12870" class="cls-2" d="M13.337,18.32a9.2,9.2,0,0,0-2.449-6.209,1.235,1.235,0,0,0-.091-.1.358.358,0,0,1-.059.045A5.348,5.348,0,0,1,7.316,13.4a1.624,1.624,0,0,1-.287,0A5.334,5.334,0,0,1,3.606,12.06a.358.358,0,0,1-.059-.045,1.235,1.235,0,0,0-.091.1A9.2,9.2,0,0,0,1.007,18.32C1,18.428,1,18.53,1,18.638c0,.261.013.522.026.783H13.311c.02-.261.033-.522.033-.783C13.344,18.53,13.344,18.428,13.337,18.32Z" transform="translate(-1 -4.609)"/>
      <path id="패스_12870_-_윤곽선" data-name="패스 12870 - 윤곽선" class="cls-3" d="M13.311,20.172H1.026a.75.75,0,0,1-.749-.713c-.013-.266-.027-.541-.027-.821,0-.111,0-.225.007-.351A9.961,9.961,0,0,1,2.9,11.6c.043-.049.085-.09.12-.125a.75.75,0,0,1,1.006-.037A.751.751,0,0,1,4.1,11.5a4.555,4.555,0,0,0,2.943,1.156.749.749,0,0,1,.076.006h.1a.749.749,0,0,1,.076-.006A4.618,4.618,0,0,0,10.241,11.5a.839.839,0,0,1,1.079-.02c.035.034.077.075.12.124a9.961,9.961,0,0,1,2.646,6.685c.007.126.007.24.007.351,0,.253-.011.528-.035.839A.75.75,0,0,1,13.311,20.172ZM1.75,18.672H12.594q0-.017,0-.033c0-.1,0-.188-.005-.273q0-.012,0-.024a8.664,8.664,0,0,0-1.872-5.309,6.122,6.122,0,0,1-3.348,1.12c-.077.008-.147.008-.2.008s-.119,0-.2-.008a6.121,6.121,0,0,1-3.348-1.12,8.664,8.664,0,0,0-1.872,5.309q0,.012,0,.024c-.005.086-.005.173-.005.273Q1.75,18.655,1.75,18.672Z" transform="translate(-1 -4.609)"/>
    </g>
  </g>
</svg>
