<svg xmlns="http://www.w3.org/2000/svg" width="14.5" height="16.5" viewBox="0 0 14.5 16.5">
  <defs>
    <style>
      .cls-1 {
        fill: #fff;
      }

      .cls-2 {
        fill: #1d1d1b;
      }
    </style>
  </defs>
  <g id="그룹_12962" data-name="그룹 12962" transform="translate(0.75 0.75)">
    <ellipse id="타원_986" data-name="타원 986" class="cls-1" cx="3.108" cy="3.086" rx="3.108" ry="3.086" transform="translate(3.575)"/>
    <path id="타원_986_-_윤곽선" data-name="타원 986 - 윤곽선" class="cls-2" d="M3.108-.75A3.836,3.836,0,1,1-.75,3.086,3.851,3.851,0,0,1,3.108-.75Zm0,6.172A2.336,2.336,0,1,0,.75,3.086,2.35,2.35,0,0,0,3.108,5.422Z" transform="translate(3.575)"/>
    <path id="패스_12870" data-name="패스 12870" class="cls-1" d="M13.993,18.32a8.959,8.959,0,0,0-2.579-6.209,1.265,1.265,0,0,0-.1-.1.376.376,0,0,1-.062.045,5.8,5.8,0,0,1-3.6,1.344,1.8,1.8,0,0,1-.3,0,5.785,5.785,0,0,1-3.6-1.344.376.376,0,0,1-.062-.045,1.265,1.265,0,0,0-.1.1A8.959,8.959,0,0,0,1.007,18.32C1,18.428,1,18.53,1,18.638c0,.261.014.522.028.783H13.966c.021-.261.034-.522.034-.783C14,18.53,14,18.428,13.993,18.32Z" transform="translate(-1 -4.422)"/>
    <path id="패스_12870_-_윤곽선" data-name="패스 12870 - 윤곽선" class="cls-2" d="M13.966,20.172H1.028a.75.75,0,0,1-.749-.711c-.014-.267-.029-.542-.029-.823,0-.111,0-.226.008-.353a9.716,9.716,0,0,1,2.789-6.7c.045-.049.089-.09.126-.124a.75.75,0,0,1,.978-.035.751.751,0,0,1,.075.056,5,5,0,0,0,3.139,1.168.75.75,0,0,1,.075.005h.119a.748.748,0,0,1,.075-.005,5.072,5.072,0,0,0,3.139-1.168.847.847,0,0,1,1.054-.021c.037.034.081.075.126.124a9.716,9.716,0,0,1,2.789,6.7c.008.127.008.242.008.353,0,.254-.012.53-.037.842A.75.75,0,0,1,13.966,20.172ZM1.75,18.672h11.5q0-.017,0-.033c0-.1,0-.186-.005-.271q0-.013,0-.025a8.363,8.363,0,0,0-2-5.332A6.61,6.61,0,0,1,7.7,14.152c-.078.007-.148.007-.2.007s-.124,0-.2-.007a6.607,6.607,0,0,1-3.54-1.142,8.363,8.363,0,0,0-2,5.332q0,.013,0,.025c-.005.085-.005.171-.005.271Q1.75,18.655,1.75,18.672Z" transform="translate(-1 -4.422)"/>
  </g>
</svg>
