<svg id="Icon_feather-calendar" data-name="Icon feather-calendar" xmlns="http://www.w3.org/2000/svg" width="18" height="18" viewBox="0 0 18 18">
  <defs>
    <style>
      .cls-1 {
        fill: red;
        opacity: 0;
      }
    </style>
  </defs>
  <rect id="사각형_4795" data-name="사각형 4795" class="cls-1" width="17.792" height="18" transform="translate(0.208)"/>
  <path id="패스_12650" data-name="패스 12650" d="M3.977,4c-.393,0-.644.228-.644.385V16.417c0,.157.251.385.644.385H17.815c.393,0,.644-.228.644-.385V4.385c0-.157-.251-.385-.644-.385H3.977m0-1.333H17.815a1.861,1.861,0,0,1,1.977,1.719V16.417a1.861,1.861,0,0,1-1.977,1.719H3.977A1.861,1.861,0,0,1,2,16.417V4.385A1.861,1.861,0,0,1,3.977,2.667Z" transform="translate(-2 -0.135)"/>
  <path id="패스_12651" data-name="패스 12651" d="M10.667,4.9a.75.75,0,0,1-.75-.75V1.333a.75.75,0,0,1,1.5,0V4.146A.75.75,0,0,1,10.667,4.9Z" transform="translate(2.494 -0.208)"/>
  <path id="패스_12652" data-name="패스 12652" d="M5.333,4.9a.75.75,0,0,1-.75-.75V1.333a.75.75,0,0,1,1.5,0V4.146A.75.75,0,0,1,5.333,4.9Z" transform="translate(-0.699 -0.208)"/>
  <rect id="사각형_4801" data-name="사각형 4801" width="16" height="5" transform="translate(1 3)"/>
  <rect id="사각형_4796" data-name="사각형 4796" width="2" height="2" transform="translate(3 10)"/>
  <rect id="사각형_4797" data-name="사각형 4797" width="2" height="2" transform="translate(6 10)"/>
</svg>
