<svg xmlns="http://www.w3.org/2000/svg" xmlns:xlink="http://www.w3.org/1999/xlink" width="48" height="240" viewBox="0 0 48 240">
  <defs>
    <style>
      .cls-1 {
        clip-path: url(#clip-아트보드_3);
      }

      .cls-2 {
        fill: #7e3cff;
      }

      .cls-3 {
        fill: #fff;
      }

      .cls-4 {
        fill: #f0f1f8;
      }

      .cls-5 {
        fill: rgba(255,255,255,0);
      }
    </style>
    <clipPath id="clip-아트보드_3">
      <rect width="48" height="240"/>
    </clipPath>
  </defs>
  <g id="아트보드_3" data-name="아트보드 – 3" class="cls-1">
    <rect class="cls-5" width="48" height="240"/>
    <g id="User" transform="translate(4.141 3.25)">
      <path id="Path" d="M3.75,0A3.75,3.75,0,1,0,7.5,3.75,3.75,3.75,0,0,0,3.75,0Z" transform="translate(4.375 0.75)"/>
      <path id="Path-2" data-name="Path" d="M4.044,0A3.905,3.905,0,0,0,0,3.75V4.938A1.577,1.577,0,0,0,1.39,6.455a46.587,46.587,0,0,0,13.935,0,1.577,1.577,0,0,0,1.39-1.517V3.75A3.905,3.905,0,0,0,12.671,0H12.3a2.025,2.025,0,0,0-.586.086l-.933.283a8.4,8.4,0,0,1-4.854,0L5,.086A2.025,2.025,0,0,0,4.412,0Z" transform="translate(-0.141 10.571)"/>
    </g>
    <g id="User-2" data-name="User" transform="translate(28.141 3.249)">
      <path id="Path-3" data-name="Path" class="cls-2" d="M3.75,0A3.75,3.75,0,1,0,7.5,3.75,3.75,3.75,0,0,0,3.75,0Z" transform="translate(4.375 0.75)"/>
      <path id="Path-4" data-name="Path" class="cls-2" d="M4.044,0A3.905,3.905,0,0,0,0,3.75V4.938A1.577,1.577,0,0,0,1.39,6.455a46.587,46.587,0,0,0,13.935,0,1.577,1.577,0,0,0,1.39-1.517V3.75A3.905,3.905,0,0,0,12.671,0H12.3a2.025,2.025,0,0,0-.586.086l-.933.283a8.4,8.4,0,0,1-4.854,0L5,.086A2.025,2.025,0,0,0,4.412,0Z" transform="translate(-0.141 10.571)"/>
    </g>
    <g id="Document" transform="translate(4 27)">
      <path id="Shape" d="M13.162,17.645H2.839A2.684,2.684,0,0,1,0,15.156V2.488A2.684,2.684,0,0,1,2.839,0h7.225a.244.244,0,0,1,.258.226v5.11a.732.732,0,0,0,.774.679h4.645A.244.244,0,0,1,16,6.241v8.915A2.684,2.684,0,0,1,13.162,17.645ZM4.9,11.668a.685.685,0,1,0,0,1.357H11.1a.685.685,0,1,0,0-1.357Zm0-3.619a.732.732,0,0,0-.775.679.732.732,0,0,0,.775.679H11.1a.732.732,0,0,0,.775-.679.732.732,0,0,0-.775-.679Z"/>
      <path id="Path-5" data-name="Path" d="M0,.232A.21.21,0,0,1,.336.046,1.748,1.748,0,0,1,.659.387l3.013,4.2a.14.14,0,0,1-.123.22H.25A.25.25,0,0,1,0,4.555Z" transform="translate(12 0.342)"/>
    </g>
    <g id="Document-2" data-name="Document" transform="translate(28 27)">
      <path id="Shape-2" data-name="Shape" class="cls-2" d="M13.162,17.645H2.839A2.684,2.684,0,0,1,0,15.156V2.488A2.684,2.684,0,0,1,2.839,0h7.225a.244.244,0,0,1,.258.226v5.11a.732.732,0,0,0,.774.679h4.645A.244.244,0,0,1,16,6.241v8.915A2.684,2.684,0,0,1,13.162,17.645ZM4.9,11.668a.685.685,0,1,0,0,1.357H11.1a.685.685,0,1,0,0-1.357Zm0-3.619a.732.732,0,0,0-.775.679.732.732,0,0,0,.775.679H11.1a.732.732,0,0,0,.775-.679.732.732,0,0,0-.775-.679Z"/>
      <path id="Path-6" data-name="Path" class="cls-2" d="M0,.232A.21.21,0,0,1,.336.046,1.748,1.748,0,0,1,.659.387l3.013,4.2a.14.14,0,0,1-.123.22H.25A.25.25,0,0,1,0,4.555Z" transform="translate(12 0.342)"/>
    </g>
    <g id="그룹_13003" data-name="그룹 13003" transform="translate(-17 15.49)">
      <path id="Path-7" data-name="Path" d="M18.175,11.406V3.714A2.158,2.158,0,0,0,16.043,1.9l-9.29-.04A.059.059,0,0,1,6.694,1.8,1.8,1.8,0,0,0,4.9,0H1.73C.627,0,.132.761,0,1.856c0,4.629,0,7.222,0,9.549.175.955.439,1.54,1.407,1.609H16.366A1.982,1.982,0,0,0,18.175,11.406Z" transform="translate(20 61.511)"/>
    </g>
    <g id="그룹_13003-2" data-name="그룹 13003" transform="translate(7 15.49)">
      <path id="Path-8" data-name="Path" class="cls-2" d="M18.175,11.406V3.714A2.158,2.158,0,0,0,16.043,1.9l-9.29-.04A.059.059,0,0,1,6.694,1.8,1.8,1.8,0,0,0,4.9,0H1.73C.627,0,.132.761,0,1.856c0,4.629,0,7.222,0,9.549.175.955.439,1.54,1.407,1.609H16.366A1.982,1.982,0,0,0,18.175,11.406Z" transform="translate(20 61.511)"/>
    </g>
    <g id="Folder-user" transform="translate(3.045 99.314)">
      <path id="Path-9" data-name="Path" d="M10.047,10.334a.215.215,0,0,1-.091.334,4.723,4.723,0,0,0-2.478,2.367c-1.783,0-.8-.06-4.927-.01C1.492,12.955,0,12.839,0,11.105,0,8.773-.12,6.551,0,1.856A2.32,2.32,0,0,1,2.372-.064L5.361,0A1.887,1.887,0,0,1,7.326,1.8a.062.062,0,0,0,.065.059H16.43c1.261,0,1.074,1.136,1.074,1.82.046.261-.035,3.675,0,3.938A4.538,4.538,0,0,0,13.123,4.75a3.675,3.675,0,0,0-3.828,3.5A3.291,3.291,0,0,0,10.047,10.334Z" transform="translate(0.006 0.75)"/>
      <path id="Path-10" data-name="Path" d="M2.187,0A2.1,2.1,0,0,0,0,2,2.1,2.1,0,0,0,2.187,4,2.1,2.1,0,0,0,4.375,2,2.1,2.1,0,0,0,2.187,0Z" transform="translate(10.941 7)"/>
      <path id="Path-11" data-name="Path" d="M0,3A3.15,3.15,0,0,1,3.281,0H5.469A3.15,3.15,0,0,1,8.75,3,1.05,1.05,0,0,1,7.656,4H1.094A1.05,1.05,0,0,1,0,3Z" transform="translate(8.754 12.5)"/>
    </g>
    <g id="Folder-user-2" data-name="Folder-user" transform="translate(27.045 99.314)">
      <path id="Path-12" data-name="Path" class="cls-2" d="M10.047,10.334a.215.215,0,0,1-.091.334,4.723,4.723,0,0,0-2.478,2.367c-1.783,0-.8-.06-4.927-.01C1.492,12.955,0,12.839,0,11.105,0,8.773-.12,6.551,0,1.856A2.32,2.32,0,0,1,2.372-.064L5.361,0A1.887,1.887,0,0,1,7.326,1.8a.062.062,0,0,0,.065.059H16.43c1.261,0,1.074,1.136,1.074,1.82.046.261-.035,3.675,0,3.938A4.538,4.538,0,0,0,13.123,4.75a3.675,3.675,0,0,0-3.828,3.5A3.291,3.291,0,0,0,10.047,10.334Z" transform="translate(0.006 0.75)"/>
      <path id="Path-13" data-name="Path" class="cls-2" d="M2.187,0A2.1,2.1,0,0,0,0,2,2.1,2.1,0,0,0,2.187,4,2.1,2.1,0,0,0,4.375,2,2.1,2.1,0,0,0,2.187,0Z" transform="translate(10.941 7)"/>
      <path id="Path-14" data-name="Path" class="cls-2" d="M0,3A3.15,3.15,0,0,1,3.281,0H5.469A3.15,3.15,0,0,1,8.75,3,1.05,1.05,0,0,1,7.656,4H1.094A1.05,1.05,0,0,1,0,3Z" transform="translate(8.754 12.5)"/>
    </g>
    <g id="Chart-pie-alt" transform="translate(3.5 122.946)">
      <path id="Path-15" data-name="Path" d="M6.167,4.925A5.968,5.968,0,0,0,.775,0,.684.684,0,0,0,0,.67V5.278a.373.373,0,0,0,.388.354H5.438A.674.674,0,0,0,6.167,4.925Z" transform="translate(10.898 1.055)"/>
      <path id="Path-16" data-name="Path" d="M7.584,0a7.584,7.584,0,1,0,7.584,7.584.446.446,0,0,0-.446-.446H8.477a.446.446,0,0,1-.446-.446V.446A.446.446,0,0,0,7.584,0Z" transform="translate(0.5 1.316)"/>
    </g>
    <g id="Chart-pie-alt-2" data-name="Chart-pie-alt" transform="translate(27.5 122.946)">
      <path id="Path-17" data-name="Path" class="cls-2" d="M6.167,4.9A5.958,5.958,0,0,0,.775,0,.683.683,0,0,0,0,.667V5.256a.372.372,0,0,0,.388.353H5.438A.673.673,0,0,0,6.167,4.9Z" transform="translate(10.898 1.055)"/>
      <path id="Path-18" data-name="Path" class="cls-2" d="M7.584,0a7.584,7.584,0,1,0,7.584,7.584.446.446,0,0,0-.446-.446H8.477a.446.446,0,0,1-.446-.446V.446A.446.446,0,0,0,7.584,0Z" transform="translate(0.5 1.316)"/>
    </g>
    <g id="Settings-alt" transform="translate(2.39 146.392)">
      <path id="Path-19" data-name="Path" d="M0,2.8a2.8,2.8,0,1,1,2.8,2.8A2.8,2.8,0,0,1,0,2.8Z" transform="translate(6.754 6.754)"/>
      <path id="Shape-3" data-name="Shape" d="M8.941,17.881a.639.639,0,0,1-.464-.2l-2.214-2.29H3.133a.646.646,0,0,1-.646-.645V11.618L.2,9.4a.645.645,0,0,1,0-.928l2.29-2.214V3.133a.647.647,0,0,1,.646-.646h3.13L8.477.2A.645.645,0,0,1,9.4.2l2.213,2.29h3.131a.646.646,0,0,1,.645.646v3.13l2.29,2.214a.645.645,0,0,1,0,.928l-2.29,2.213v3.131a.646.646,0,0,1-.645.645H11.618L9.4,17.684A.641.641,0,0,1,8.941,17.881Zm0-13.028a4.087,4.087,0,1,0,4.087,4.087A4.092,4.092,0,0,0,8.941,4.853Z" transform="translate(0.61 0.61)"/>
    </g>
    <g id="Settings-alt-2" data-name="Settings-alt" transform="translate(26.39 146.392)">
      <path id="Path-20" data-name="Path" class="cls-2" d="M0,2.8a2.8,2.8,0,1,1,2.8,2.8A2.8,2.8,0,0,1,0,2.8Z" transform="translate(6.754 6.754)"/>
      <path id="Shape-4" data-name="Shape" class="cls-2" d="M8.941,17.881a.639.639,0,0,1-.464-.2l-2.214-2.29H3.133a.646.646,0,0,1-.646-.645V11.618L.2,9.4a.645.645,0,0,1,0-.928l2.29-2.214V3.133a.647.647,0,0,1,.646-.646h3.13L8.477.2A.645.645,0,0,1,9.4.2l2.213,2.29h3.131a.646.646,0,0,1,.645.646v3.13l2.29,2.214a.645.645,0,0,1,0,.928l-2.29,2.213v3.131a.646.646,0,0,1-.645.645H11.618L9.4,17.684A.641.641,0,0,1,8.941,17.881Zm0-13.028a4.087,4.087,0,1,0,4.087,4.087A4.092,4.092,0,0,0,8.941,4.853Z" transform="translate(0.61 0.61)"/>
    </g>
    <g id="그룹_12997" data-name="그룹 12997" transform="translate(28 172)">
      <circle id="타원_987" data-name="타원 987" class="cls-2" cx="8" cy="8" r="8"/>
      <path id="다각형_16" data-name="다각형 16" class="cls-3" d="M3.132,1.519a1,1,0,0,1,1.736,0L7.145,5.5A1,1,0,0,1,6.277,7H1.723A1,1,0,0,1,.855,5.5Z" transform="translate(3.5 12) rotate(-90)"/>
    </g>
    <g id="그룹_12996" data-name="그룹 12996" transform="translate(-201 167)">
      <circle id="타원_987-2" data-name="타원 987" class="cls-3" cx="8" cy="8" r="8" transform="translate(205 5)"/>
      <path id="다각형_16-2" data-name="다각형 16" d="M3.132,1.519a1,1,0,0,1,1.736,0L7.145,5.5A1,1,0,0,1,6.277,7H1.723A1,1,0,0,1,.855,5.5Z" transform="translate(217.5 9) rotate(90)"/>
    </g>
    <g id="그룹_13043" data-name="그룹 13043" transform="translate(-201 167)">
      <circle id="타원_987-3" data-name="타원 987" cx="8" cy="8" r="8" transform="translate(205 5)"/>
      <path id="다각형_16-3" data-name="다각형 16" class="cls-4" d="M3.132,1.519a1,1,0,0,1,1.736,0L7.145,5.5A1,1,0,0,1,6.277,7H1.723A1,1,0,0,1,.855,5.5Z" transform="translate(217.5 9) rotate(90)"/>
    </g>
    <g id="Clipboard-alt" transform="translate(3.94 49.953)">
      <path id="Shape-5" data-name="Shape" d="M0,2.25C0,1.007.426,0,1.945,0H5.708C7.227,0,7.5,1.007,7.5,2.25V3.886a.692.692,0,0,1-.75.614h-6A.692.692,0,0,1,0,3.886Z" transform="translate(4.25 1.25)"/>
      <path id="Shape-6" data-name="Shape" d="M13.017,16.137h0c-1.569,0-3.383-.025-5.3-.052s-3.9-.055-5.608-.055C.669,15.851,0,14.782,0,12.665V2.48C0,1.079.824.576,1.987.019A.4.4,0,0,1,2.135,0a1.506,1.506,0,0,1,.71.156A.055.055,0,0,1,2.864.2l0,1.455a3.818,3.818,0,0,0,.214,1.559,1.122,1.122,0,0,0,1.146.627l6.337-.108c1.215,0,1.459-.8,1.459-2.078V.2c0-.111.559-.195.839-.195a.452.452,0,0,1,.161.019C14.178.575,15,1.078,15,2.48V12.665a5.581,5.581,0,0,1-.355,2.3,1.915,1.915,0,0,1-1.628,1.174ZM4.5,10.09a.75.75,0,0,0,0,1.5h5a.75.75,0,0,0,0-1.5Zm0-3a.75.75,0,0,0,0,1.5h6a.75.75,0,0,0,0-1.5Z" transform="translate(0.5 2.91)"/>
    </g>
    <g id="Clipboard-alt-2" data-name="Clipboard-alt" transform="translate(28.087 49.75)">
      <path id="Shape-7" data-name="Shape" class="cls-2" d="M0,2.25C0,1.007.426,0,1.945,0H5.708C7.227,0,7.5,1.007,7.5,2.25V3.886a.692.692,0,0,1-.75.614h-6A.692.692,0,0,1,0,3.886Z" transform="translate(4.25 1.25)"/>
      <path id="Shape-8" data-name="Shape" class="cls-2" d="M13.017,16.137h0c-1.569,0-3.383-.025-5.3-.052s-3.9-.055-5.608-.055C.669,15.851,0,14.782,0,12.665V2.48C0,1.079.824.576,1.987.019A.4.4,0,0,1,2.135,0a1.506,1.506,0,0,1,.71.156A.055.055,0,0,1,2.864.2l0,1.455a3.818,3.818,0,0,0,.214,1.559,1.122,1.122,0,0,0,1.146.627l6.337-.108c1.215,0,1.459-.8,1.459-2.078V.2c0-.111.559-.195.839-.195a.452.452,0,0,1,.161.019C14.178.575,15,1.078,15,2.48V12.665a5.581,5.581,0,0,1-.355,2.3,1.915,1.915,0,0,1-1.628,1.174ZM4.5,10.09a.75.75,0,0,0,0,1.5h5a.75.75,0,0,0,0-1.5Zm0-3a.75.75,0,0,0,0,1.5h6a.75.75,0,0,0,0-1.5Z" transform="translate(0.5 2.91)"/>
    </g>
  </g>
</svg>
