<svg xmlns="http://www.w3.org/2000/svg" width="17.105" height="17.18" viewBox="0 0 17.105 17.18">
  <defs>
    <style>
      .cls-1 {
        fill: #171717;
      }
    </style>
  </defs>
  <g id="그룹_12959" data-name="그룹 12959" transform="translate(-0.447 -0.41)">
    <path id="패스_12866" data-name="패스 12866" class="cls-1" d="M16.605,8.738a.5.5,0,0,1-.346-.139L8.553,1.193.846,8.6a.5.5,0,0,1-.693-.721L8.206.139a.5.5,0,0,1,.693,0l8.053,7.738a.5.5,0,0,1-.347.861Z" transform="translate(0.447 0.41)"/>
    <path id="패스_12867" data-name="패스 12867" class="cls-1" d="M14.451,14.326H10.057a.5.5,0,0,1-.5-.5V7.995H6.165v5.831a.5.5,0,0,1-.5.5H1.273a.5.5,0,0,1-.5-.5V3.977a.5.5,0,1,1,1,0v9.348H5.165V7.495a.5.5,0,0,1,.5-.5h4.392a.5.5,0,0,1,.5.5v5.831h3.394V3.977a.5.5,0,0,1,1,0v9.848A.5.5,0,0,1,14.451,14.326Z" transform="translate(1.139 3.264)"/>
  </g>
</svg>
