<svg xmlns="http://www.w3.org/2000/svg" width="66" height="57" viewBox="0 0 66 57"><g transform="translate(-1.676 -2.436)"><path d="M40.7,35.675c-1.631,0-2.33,1.3-2.33,2.9V48.2H28.787V8.8H39.234V18.43c0,1.6.42,3.027,2.052,3.027s2.362-1.429,2.362-3.027V7.4a2.924,2.924,0,0,0-2.951-2.9H28.787V2.9A2.874,2.874,0,0,0,27.707.656a3,3,0,0,0-2.452-.6L2.371,4.562A2.911,2.911,0,0,0,0,7.4V49.6a2.911,2.911,0,0,0,2.371,2.839l22.884,4.505a3.027,3.027,0,0,0,.58.057,2.988,2.988,0,0,0,1.872-.656,2.874,2.874,0,0,0,1.08-2.239V52.5H40.7c1.63,0,2.281-1.3,2.281-2.9V38.571c0-1.6-.651-2.9-2.281-2.9M19.853,31.568A3.068,3.068,0,1,1,22.98,28.5a3.1,3.1,0,0,1-3.126,3.068" transform="translate(1.676 2.436)" fill="#7f3cff"/><path d="M235.674,114.978l-8.609-8.445a2.991,2.991,0,0,0-4.174,0,2.856,2.856,0,0,0,0,4.094l3.57,3.5h-19.15a2.9,2.9,0,1,0,0,5.791h19.15l-3.57,3.5a2.856,2.856,0,0,0,0,4.094,2.991,2.991,0,0,0,4.174,0l8.609-8.445a2.856,2.856,0,0,0,0-4.094" transform="translate(-168.863 -86.089)" fill="#7f3cff"/></g></svg>