<?xml version="1.0" encoding="UTF-8"?><svg id="uuid-8e3d88ea-ffb9-4561-8539-d6a221e2ed50" xmlns="http://www.w3.org/2000/svg" viewBox="0 0 16 32.78"><g id="uuid-e41e248b-948a-4dc8-998c-2568632fcfdf"><g id="uuid-c5943b85-8112-4e08-8e92-d319eb89037b"><rect id="uuid-bfc20373-b31a-4a1e-8d5d-ac1cf3d990c5" x="0" y="16.78" width="16" height="16" style="fill:#e0e0e0;"/><path id="uuid-35eca5e9-1143-47f1-aba8-0f3ba538d4bf" d="M7.77,28.94l-4.34-5.12c-.27-.32-.23-.79,.09-1.06s.79-.23,1.06,.09l3.19,3.77,3.66-4.32c.27-.32,.74-.36,1.06-.09,.32,.27,.36,.74,.09,1.06h0l-4.81,5.67Z" style="fill:#fff;"/></g><g id="uuid-8e651d3a-a332-4c12-8bb5-532f1a5ae9d0"><rect id="uuid-bd1456f2-66cd-43e8-857b-b4fa72502742" width="16" height="16"/><path id="uuid-de65073e-6e94-470a-badd-c3ca572e510d" d="M7.77,12.16L3.43,7.04c-.27-.32-.23-.79,.09-1.06s.79-.23,1.06,.09l3.19,3.77,3.66-4.32c.27-.32,.74-.36,1.06-.09,.32,.27,.36,.74,.09,1.06h0l-4.81,5.67Z" style="fill:#fff;"/></g></g></svg>