<svg xmlns="http://www.w3.org/2000/svg" width="24" height="24" viewBox="0 0 24 24">
  <defs>
    <style>
      .cls-1 {
        fill: #e0e0e0;
      }
    </style>
  </defs>
  <g id="그룹_13009" data-name="그룹 13009" transform="translate(-202 -1)">
    <circle id="타원_987" data-name="타원 987" class="cls-1" cx="12" cy="12" r="12" transform="translate(202 1)"/>
    <path id="패스_12886" data-name="패스 12886" d="M3.132,2.519a1,1,0,0,1,1.736,0L7.145,5.5A1,1,0,0,1,6.277,7H1.723A1,1,0,0,1,.855,5.5Z" transform="translate(216.5 9) rotate(90)"/>
    <path id="패스_12887" data-name="패스 12887" d="M3.132,2.519a1,1,0,0,1,1.736,0L7.145,5.5A1,1,0,0,1,6.277,7H1.723A1,1,0,0,1,.855,5.5Z" transform="translate(221.5 9) rotate(90)"/>
  </g>
</svg>
